<?xml version="1.0" standalone="no"?>
<!DOCTYPE svg PUBLIC "-//W3C//DTD SVG 1.1//EN" "http://www.w3.org/Graphics/SVG/1.1/DTD/svg11.dtd" >
<svg xmlns="http://www.w3.org/2000/svg">
<metadata></metadata>
<defs>
<font id="aauxpro_ot_mediummedium" horiz-adv-x="516" >
<font-face units-per-em="2048" ascent="1587" descent="-461" />
<missing-glyph horiz-adv-x="573" />
<glyph horiz-adv-x="2048" />
<glyph horiz-adv-x="2048" />
<glyph unicode="&#xd;" horiz-adv-x="2048" />
<glyph unicode=" "  horiz-adv-x="573" />
<glyph unicode="&#x09;" horiz-adv-x="573" />
<glyph unicode="&#xa0;" horiz-adv-x="573" />
<glyph unicode="!" horiz-adv-x="604" d="M205 100q0 49 34.5 84t82.5 35q49 0 83.5 -34.5t34.5 -84.5q0 -48 -34.5 -82t-83.5 -34q-47 0 -82 34.5t-35 81.5zM231 745v685h183v-685l-11 -405h-161z" />
<glyph unicode="&#x22;" horiz-adv-x="739" d="M123 1120v303q0 36 26 62t62 26t62 -26t26 -62v-303h-176zM440 1120v303q0 36 26 62t62 26t62 -26t26 -62v-303h-176z" />
<glyph unicode="#" horiz-adv-x="1464" d="M113 414l34 166h250l58 270h-248l35 166h250l88 414h170l-91 -414h275l90 414h168l-88 -414h248l-37 -166h-248l-57 -270h247l-34 -166h-250l-90 -414h-168l90 414h-275l-90 -414h-168l88 414h-247zM565 580h275l57 270h-272z" />
<glyph unicode="$" horiz-adv-x="1081" d="M96 451l160 43q18 -96 75.5 -152t143.5 -70v412q-58 14 -98.5 27t-89 38t-78 56t-50 80.5t-20.5 111.5q0 72 28.5 130t77.5 95.5t107 59.5t123 29v119h162v-121q117 -17 197 -81.5t137 -187.5l-148 -67q-36 77 -78.5 117t-107.5 53v-330q61 -15 106.5 -30t95.5 -43 t82 -63t53 -89t21 -121q0 -151 -104 -245t-254 -113v-109h-162v111q-144 16 -247.5 100t-131.5 240zM303 997q0 -33 15 -58t43.5 -42t53.5 -26.5t60 -18.5v295q-75 -12 -123.5 -49t-48.5 -101zM637 272q84 15 139 65t55 130q0 41 -15 71.5t-44.5 51t-60.5 33.5t-74 24v-375z " />
<glyph unicode="%" horiz-adv-x="1613" d="M113 1047q0 90 12.5 150.5t44.5 113.5q41 66 105.5 102.5t142.5 36.5t142.5 -36.5t105.5 -102.5q32 -53 44.5 -113.5t12.5 -150.5q0 -170 -57 -265q-41 -66 -105.5 -102.5t-142.5 -36.5t-142.5 36.5t-105.5 102.5q-57 100 -57 265zM254 1047q0 -129 39 -191 q44 -72 125 -72q80 0 127 72q37 59 37 191q0 74 -8.5 116t-30.5 74q-44 72 -125 72t-125 -72q-39 -62 -39 -190zM403 0l644 1430h163l-643 -1430h-164zM891 381q0 91 12.5 152t44.5 112q41 67 105.5 103t142.5 36t142 -36t104 -103q59 -96 59 -264q0 -166 -59 -262 q-40 -67 -104 -103t-142 -36t-142.5 36t-105.5 103q-32 51 -44.5 111.5t-12.5 150.5zM1032 381q0 -129 37 -191q44 -71 127 -71q81 0 125 71q39 65 39 191q0 127 -39 192q-43 70 -125 70q-84 0 -127 -70q-37 -62 -37 -192z" />
<glyph unicode="&#x26;" horiz-adv-x="1320" d="M74 389q0 142 69 243.5t199 182.5q-115 179 -115 318q0 134 87.5 222.5t224.5 88.5q136 0 217.5 -84t81.5 -217q0 -66 -20 -122.5t-58.5 -101.5t-78.5 -77.5t-95 -67.5q179 -231 352 -399q57 120 57 315h176q0 -272 -100 -436q40 -34 150 -121l-91 -151q-64 48 -165 135 q-80 -70 -189.5 -103.5t-224.5 -33.5q-73 0 -142.5 16t-130 50t-106 81.5t-72 115t-26.5 146.5zM250 389q0 -109 88.5 -175.5t212.5 -66.5q160 0 280 91q-210 201 -389 440q-101 -65 -146.5 -128.5t-45.5 -160.5zM403 1133q0 -100 86 -228q85 57 129 111t44 127 q0 62 -31 95.5t-92 33.5q-63 0 -99.5 -38t-36.5 -101z" />
<glyph unicode="'" horiz-adv-x="421" d="M123 1120v303q0 36 26 62t62 26t62 -26t26 -62v-303h-176z" />
<glyph unicode="(" horiz-adv-x="702" d="M102 715q0 196 77.5 389t213.5 326h228q-170 -137 -257.5 -326t-87.5 -389q0 -199 88 -388.5t257 -326.5h-228q-138 135 -214.5 326t-76.5 389z" />
<glyph unicode=")" horiz-adv-x="702" d="M82 0q169 136 256.5 325.5t87.5 389.5q0 201 -87.5 389.5t-256.5 325.5h227q136 -133 213.5 -326t77.5 -389q0 -198 -76.5 -389t-214.5 -326h-227z" />
<glyph unicode="*" horiz-adv-x="917" d="M92 1130l45 140l256 -92l-6 272h145l-8 -272l256 92l45 -140l-260 -75l166 -217l-119 -86l-153 225l-154 -225l-119 86l168 217z" />
<glyph unicode="+" horiz-adv-x="1046" d="M92 487v146h359v358h145v-358h358v-146h-358v-358h-145v358h-359z" />
<glyph unicode="," horiz-adv-x="481" d="M133 74q0 42 32 72t75 30q44 0 76 -29.5t32 -72.5v-103l-166 -258h-49v361z" />
<glyph unicode="-" horiz-adv-x="833" d="M133 487v146h567v-146h-567z" />
<glyph unicode="." d="M133 106q0 52 36.5 88.5t88.5 36.5t88.5 -36.5t36.5 -88.5q0 -51 -36.5 -86.5t-88.5 -35.5t-88.5 35.5t-36.5 86.5z" />
<glyph unicode="/" horiz-adv-x="851" d="M10 -156l656 1741h176l-656 -1741h-176z" />
<glyph unicode="0" horiz-adv-x="1198" d="M102 715q0 86 9.5 166.5t30.5 165t59.5 153t91.5 124t132 86t175 30.5q83 0 152.5 -23.5t119.5 -63.5t89.5 -96.5t64.5 -119.5t41 -136.5t22.5 -143t6.5 -142.5q0 -86 -9.5 -167t-30.5 -165.5t-59.5 -154t-91 -125t-131 -86.5t-174.5 -31q-115 0 -204.5 45.5t-143.5 117 t-89 170.5t-48 195t-13 201zM279 715q0 -60 4.5 -115.5t15.5 -123.5t34.5 -122.5t57 -101.5t87.5 -73.5t122 -26.5t121.5 26.5t87.5 73.5t57.5 102t35 122t16 123t4.5 116t-4.5 116t-16 123t-35 121t-57.5 100.5t-87.5 72.5t-121.5 26t-122 -26t-87.5 -72.5t-57 -100.5 t-34.5 -121t-15.5 -122.5t-4.5 -116.5z" />
<glyph unicode="1" horiz-adv-x="802" d="M61 1186l363 244h113v-1430h-179v1190l-206 -141z" />
<glyph unicode="2" horiz-adv-x="1140" d="M102 0v147q130 330 383 523q30 22 85 56t93 60t78 62.5t61 83.5t21 104q0 111 -81.5 176.5t-194.5 65.5q-198 0 -283 -197l-153 72q59 138 173 215.5t263 77.5q124 0 226.5 -48.5t165 -143.5t62.5 -220q0 -72 -17 -130.5t-42.5 -97t-69.5 -77t-82 -63t-97 -62.5t-99 -69 q-90 -70 -168.5 -167.5t-120.5 -197.5h733v-170h-936z" />
<glyph unicode="3" horiz-adv-x="1099" d="M82 311l166 51q71 -208 291 -208q121 0 200.5 72t79.5 186q0 131 -89 200t-255 68v129q154 0 233.5 61t79.5 179q0 96 -78.5 163.5t-181.5 67.5q-89 0 -159 -47.5t-105 -145.5l-158 64q62 153 166 224t256 71q120 0 218.5 -48.5t156.5 -140t58 -208.5q0 -95 -41 -176.5 t-119 -120.5q96 -48 146 -140t50 -200q0 -192 -131 -309t-329 -117q-346 0 -455 325z" />
<glyph unicode="4" horiz-adv-x="1126" d="M61 354v140l611 936h192l-590 -910h459v570l174 -33v-537h137v-166h-137v-354h-174v354h-672z" />
<glyph unicode="5" horiz-adv-x="1110" d="M102 297l164 61q32 -98 104 -151t175 -53q148 0 227.5 91t79.5 242q0 148 -77.5 237t-223.5 89t-252 -100h-145v717h782v-166h-612v-351q111 66 225 66q223 0 351 -134t128 -358t-131 -362.5t-354 -138.5q-340 0 -441 311z" />
<glyph unicode="6" horiz-adv-x="1122" d="M102 475q0 295 135.5 537.5t383.5 414.5l243 3q-82 -59 -141 -104.5t-124 -105t-111 -116t-88 -128t-70 -149.5q104 86 256 86q202 0 328 -135.5t126 -337.5q0 -193 -131 -322.5t-325 -129.5q-216 0 -349 139.5t-133 347.5zM285 449q0 -120 90.5 -207.5t210.5 -87.5 q121 0 202.5 82t81.5 204q0 130 -78.5 217.5t-205.5 87.5q-141 0 -221 -77.5t-80 -218.5z" />
<glyph unicode="7" horiz-adv-x="1021" d="M61 1161v269h900v-148q-80 -84 -144 -172t-125 -207t-101 -249.5t-62 -298.5t-17 -355h-182q-2 183 20.5 349t58.5 291t92 244.5t109 203t121 172.5h-502v-99h-168z" />
<glyph unicode="8" horiz-adv-x="1101" d="M82 416q0 106 47 193.5t137 142.5q-70 51 -108.5 128t-38.5 164q0 175 127.5 286.5t304.5 111.5t303.5 -111.5t126.5 -286.5q0 -87 -38 -164t-107 -128q89 -53 136.5 -141.5t47.5 -194.5q0 -98 -37.5 -180t-101 -136t-149 -84t-181.5 -30t-181.5 30t-149 84t-101 136 t-37.5 180zM258 416q0 -117 86.5 -189.5t206.5 -72.5q119 0 205 72.5t86 189.5q0 126 -81.5 198t-209.5 72q-129 0 -211 -71.5t-82 -198.5zM297 1044q0 -110 71 -167.5t183 -57.5q113 0 183.5 57t70.5 168q0 100 -76 165t-178 65t-178 -65t-76 -165z" />
<glyph unicode="9" horiz-adv-x="1093" d="M82 991q0 187 129 320t321 133q110 0 200 -41.5t147.5 -112t88.5 -161t33 -191.5q3 -283 -132 -521t-386 -417h-231q234 179 346.5 315t185.5 308q-116 -86 -247 -86q-196 0 -325.5 131.5t-129.5 322.5zM254 991q0 -117 79.5 -201.5t196.5 -84.5q124 0 206.5 82.5 t82.5 203.5q0 122 -84 203.5t-205 81.5q-117 0 -196.5 -84t-79.5 -201z" />
<glyph unicode=":" d="M133 106q0 52 36.5 88.5t88.5 36.5t88.5 -36.5t36.5 -88.5q0 -51 -36.5 -86.5t-88.5 -35.5t-88.5 35.5t-36.5 86.5zM133 698q0 51 36.5 88t88.5 37t88.5 -37t36.5 -88q0 -52 -36.5 -88.5t-88.5 -36.5t-88.5 36.5t-36.5 88.5z" />
<glyph unicode=";" d="M133 698q0 51 36.5 88t88.5 37t88.5 -37t36.5 -88q0 -52 -36.5 -88.5t-88.5 -36.5t-88.5 36.5t-36.5 88.5zM150 74q0 43 32 72.5t76 29.5q43 0 75 -30t32 -72v-103l-166 -258h-49v361z" />
<glyph unicode="&#x3c;" horiz-adv-x="983" d="M102 715l553 715h226l-553 -715l553 -715h-226z" />
<glyph unicode="=" horiz-adv-x="1067" d="M113 238v143h841v-143h-841zM113 645v141h841v-141h-841z" />
<glyph unicode="&#x3e;" horiz-adv-x="983" d="M102 0l553 715l-553 715h226l553 -715l-553 -715h-226z" />
<glyph unicode="?" horiz-adv-x="999" d="M94 1030q0 99 35 180t94 131.5t133.5 77.5t155.5 27q82 0 156.5 -27t131.5 -76t90.5 -122t33.5 -160q0 -184 -181 -291q-43 -25 -66 -42t-46 -42.5t-33 -58t-12 -78.5l-8 -193h-132q-18 142 -18 195q0 72 15 126.5t44.5 92.5t55.5 59.5t67 47.5q5 3 24.5 15t25 15.5 t21 14t21 16.5t17 17.5t15.5 21.5t10 23.5t8 28.5t2 32q0 99 -68.5 157t-173.5 58q-106 0 -179.5 -63.5t-72.5 -182.5h-166zM395 100q0 49 34.5 83t84.5 34q48 0 82.5 -34t34.5 -83t-34.5 -82.5t-82.5 -33.5q-50 0 -84.5 33.5t-34.5 82.5z" />
<glyph unicode="@" horiz-adv-x="1464" d="M133 525q6 166 70 337q56 146 147 267.5t199.5 196t228.5 100.5t232 -17q171 -62 256 -246q58 -126 63.5 -285t-39.5 -317l-35 -567l-170 10l9 133q-91 -102 -201.5 -143t-214.5 -2q-78 28 -130.5 93.5t-73 151.5t-12.5 187.5t46 202.5q46 122 127.5 217t179.5 139 q90 42 180.5 31t157.5 -74q-15 110 -65 194.5t-138 116.5q-95 35 -207 -8.5t-215.5 -160t-165.5 -279.5q-76 -206 -52 -391.5t139 -288.5l-95 -141q-114 91 -170.5 234t-50.5 309zM631 373q0 -87 29.5 -146t76.5 -77q75 -28 175 49t155 223q36 93 38 185t-28 155 q-28 62 -78 80q-43 16 -112 -11q-66 -31 -124.5 -101t-94.5 -163q-37 -101 -37 -194z" />
<glyph unicode="A" horiz-adv-x="1341" d="M20 0l560 1430h182l559 -1430h-195l-161 414h-590l-160 -414h-195zM442 586h457l-229 581z" />
<glyph unicode="B" horiz-adv-x="1288" d="M154 0v1430h499q195 0 303 -66q83 -50 124.5 -138t41.5 -192q0 -181 -114 -289q84 -53 126 -142t42 -195t-43 -196.5t-129 -143.5q-112 -68 -314 -68h-536zM334 176h356q55 0 96.5 5t82.5 19.5t67.5 39.5t42.5 67.5t16 100.5q0 73 -23 121t-68 71.5t-94.5 32t-119.5 8.5 h-356v-465zM334 817h319q52 0 91.5 4.5t79 18t64.5 37t40.5 63t15.5 94.5q0 69 -22 114t-65.5 67t-90.5 30t-113 8h-319v-436z" />
<glyph unicode="C" horiz-adv-x="1232" d="M92 715q0 150 24 268t91 219q77 119 198 182.5t265 63.5q105 0 190 -33t146 -85t135 -140l-140 -113q-43 50 -71.5 79t-69 58.5t-87 42.5t-103.5 13q-94 0 -166 -33t-115 -85t-70.5 -127t-37 -149.5t-9.5 -160.5t9.5 -160.5t37 -149.5t70.5 -127t115 -85t166 -33 q57 0 103.5 13t87 42t69 58t71.5 79l138 -112q-73 -88 -133.5 -140t-145.5 -85t-190 -33q-144 0 -265 63t-198 182q-67 101 -91 219.5t-24 268.5z" />
<glyph unicode="D" horiz-adv-x="1308" d="M154 0v1430h440q99 0 173.5 -8.5t148.5 -34t124.5 -68.5t88 -115.5t51.5 -171.5q16 -117 16 -317q0 -201 -16 -318q-14 -99 -51.5 -171.5t-88 -115.5t-124.5 -68t-148.5 -33.5t-173.5 -8.5h-440zM334 178h260q42 0 66.5 0.5t62 2.5t60 6.5t52.5 13t49 20.5t40.5 30.5 t35 42t24.5 55.5t17 71q15 103 15 295t-15 295q-6 44 -18.5 79t-32 59.5t-39.5 43t-51.5 29.5t-56.5 18t-65.5 10t-68.5 3.5t-75 0.5h-260v-1075z" />
<glyph unicode="E" horiz-adv-x="1185" d="M154 0v1430h929v-177h-751v-434h657v-164h-657v-479h751v-176h-929z" />
<glyph unicode="F" horiz-adv-x="1144" d="M154 0v1430h909v-177h-731v-432h655v-166h-655v-655h-178z" />
<glyph unicode="G" horiz-adv-x="1300" d="M92 715q0 116 18.5 219.5t61.5 199t108 164t165 109.5t225 41q79 0 145 -17.5t123 -53t103.5 -79.5t99.5 -108l-137 -113q-82 99 -153.5 146t-180.5 47q-94 0 -165.5 -32.5t-115 -85t-70.5 -127t-37 -149t-10 -161.5q0 -84 10 -158t36.5 -149t69 -128t112.5 -86.5 t162 -33.5q73 0 130.5 26.5t93 69t58.5 102t32 120t9 128.5h-354v172h536l-2 -778h-161v147q-60 -95 -140 -130t-202 -35q-124 0 -222.5 41.5t-162.5 111t-106.5 165.5t-60.5 198.5t-18 216.5z" />
<glyph unicode="H" horiz-adv-x="1359" d="M154 0v1430h180v-605h692v605h180v-1430h-180v655h-692v-655h-180z" />
<glyph unicode="I" horiz-adv-x="514" d="M164 0v1430h186v-1430h-186z" />
<glyph unicode="J" horiz-adv-x="1077" d="M31 332l172 45q23 -79 43 -113q32 -46 94 -74q59 -26 135 -26h6q84 0 146 23.5t92 62.5q45 57 45 196v984h180v-984q0 -196 -82 -303q-59 -76 -159.5 -116.5t-221.5 -40.5q-123 0 -225 47.5t-160 134.5q-34 50 -65 164z" />
<glyph unicode="K" horiz-adv-x="1185" d="M154 0v1430h180v-705l526 705h197l-531 -709l629 -721h-211l-610 717v-717h-180z" />
<glyph unicode="L" horiz-adv-x="1030" d="M154 0v1430h178v-1254h667v-176h-845z" />
<glyph unicode="M" horiz-adv-x="1511" d="M154 0v1430h149l453 -1162l432 1162h170v-1430h-180v922l-344 -922h-158l-342 915v-915h-180z" />
<glyph unicode="N" horiz-adv-x="1310" d="M154 0v1430h170l655 -1072v1072h178v-1430h-170l-653 1071v-1071h-180z" />
<glyph unicode="O" horiz-adv-x="1343" d="M92 715q0 150 24 268t91 219q79 120 199 183t266 63t266 -63t199 -183q67 -101 90.5 -218t23.5 -269q0 -151 -23.5 -269t-90.5 -219q-79 -120 -199 -182.5t-266 -62.5t-266 62.5t-199 182.5q-67 101 -91 219.5t-24 268.5zM272 715q0 -125 16.5 -219t69.5 -172 q109 -164 314 -164q204 0 313 164q53 78 69.5 172t16.5 219t-16.5 219t-69.5 172q-109 164 -313 164q-205 0 -314 -164q-53 -78 -69.5 -172t-16.5 -219z" />
<glyph unicode="P" horiz-adv-x="1236" d="M154 0v1430h536q205 0 314 -68q84 -52 128 -141t44 -199q0 -111 -44.5 -200.5t-127.5 -141.5q-113 -68 -314 -68h-356v-612h-180zM334 788h356q149 0 217 43q41 24 64.5 73.5t23.5 117.5q0 66 -23.5 115.5t-64.5 74.5q-64 41 -217 41h-356v-465z" />
<glyph unicode="Q" horiz-adv-x="1392" d="M113 715q0 168 26 280.5t88 206.5q78 119 198.5 182.5t266.5 63.5q147 0 268 -64t197 -182q62 -94 88.5 -207t26.5 -280q0 -161 -26 -284t-105 -228l170 -203h-234l-65 78q-137 -96 -320 -96q-146 0 -266.5 63.5t-198.5 181.5q-62 94 -88 207t-26 281zM293 715 q0 -144 20 -232.5t66 -158.5q105 -164 313 -164q115 0 201 53q-83 76 -240 90v176q233 -17 365 -139q45 76 59.5 165t14.5 210q0 144 -20 232.5t-66 158.5q-105 164 -314 164q-208 0 -313 -164q-46 -70 -66 -158.5t-20 -232.5z" />
<glyph unicode="R" horiz-adv-x="1245" d="M156 0v1430h497q102 0 186 -22.5t149 -69.5t101.5 -126t36.5 -184q0 -150 -88.5 -261.5t-236.5 -137.5q21 -24 39 -51l340 -578h-201l-307 526q-32 54 -64.5 77.5t-89.5 23.5h-186v-627h-176zM332 780h327q291 0 291 248q0 55 -15.5 96t-41.5 65.5t-65.5 39.5t-81 20.5 t-93.5 5.5h-321v-475z" />
<glyph unicode="S" horiz-adv-x="1265" d="M92 426l178 31q28 -161 123.5 -229t265.5 -68q61 0 118.5 15t106.5 45t79 80.5t30 115.5q0 77 -46.5 129t-121 79t-164 47.5t-179.5 46.5t-164.5 64t-121 111t-46.5 178q0 95 40 169t108 117t149 65t171 22q196 0 317.5 -75t205.5 -249l-164 -76q-61 128 -137.5 175 t-221.5 47q-53 0 -99.5 -8.5t-91 -29t-71 -61t-26.5 -96.5q0 -50 29 -87.5t77.5 -60.5t112 -41t133.5 -35t140 -37t133.5 -52t112 -75t77.5 -111t29 -156q0 -102 -44 -186.5t-117 -137.5t-164.5 -81.5t-189.5 -28.5q-232 0 -379.5 110t-187.5 334z" />
<glyph unicode="T" horiz-adv-x="1134" d="M41 1253v177h1053v-177h-437v-1253h-180v1253h-436z" />
<glyph unicode="U" horiz-adv-x="1339" d="M143 600v830h181v-830q0 -80 7.5 -141t29.5 -120.5t59.5 -97.5t100.5 -61.5t149 -23.5t149 23.5t100.5 61.5t59.5 97.5t29.5 120.5t7.5 141v830h180v-830q0 -618 -526 -618q-527 0 -527 618z" />
<glyph unicode="V" horiz-adv-x="1202" d="M51 1430h189l360 -1102l361 1102h190l-469 -1430h-162z" />
<glyph unicode="W" horiz-adv-x="1607" d="M51 1430h187l241 -1018l242 1018h166l241 -1018l242 1018h186l-344 -1430h-168l-239 1004l-242 -1004h-168z" />
<glyph unicode="X" horiz-adv-x="1269" d="M51 0l477 737l-448 693h213l342 -529l342 529h213l-449 -693l478 -737h-215l-369 571l-371 -571h-213z" />
<glyph unicode="Y" horiz-adv-x="1226" d="M51 1430h201l362 -730l361 730h201l-474 -955v-475h-178v479z" />
<glyph unicode="Z" horiz-adv-x="1210" d="M92 0v141l768 1112h-696v177h934v-150l-764 -1104h764v-176h-1006z" />
<glyph unicode="[" horiz-adv-x="602" d="M143 -156v1741h357v-108h-189v-1524h189v-109h-357z" />
<glyph unicode="\" horiz-adv-x="851" d="M10 1585h176l656 -1741h-176z" />
<glyph unicode="]" horiz-adv-x="602" d="M102 -47h189v1524h-189v108h357v-1741h-357v109z" />
<glyph unicode="^" horiz-adv-x="1128" d="M113 842l374 588h154l375 -588l-146 -80l-305 479l-305 -479z" />
<glyph unicode="_" horiz-adv-x="1083" d="M31 0h1022v-152h-1022v152z" />
<glyph unicode="`" horiz-adv-x="671" d="M154 1415h192l172 -299h-149z" />
<glyph unicode="a" horiz-adv-x="978" d="M92 287q0 94 48.5 165t125 106.5t168.5 35.5h168q50 0 82 22v93q0 65 -56 102t-130 37q-173 0 -219 -156l-156 60q79 262 379 262q88 0 167 -34.5t132 -106t53 -164.5v-578l33 -106l-162 -50l-23 74q-115 -69 -268 -69q-135 0 -238.5 86.5t-103.5 220.5zM262 287 q0 -62 52.5 -103t119.5 -41q149 0 250 86v215q-29 -10 -70 -10h-182q-67 0 -118.5 -42t-51.5 -105z" />
<glyph unicode="b" horiz-adv-x="1036" d="M143 0v1430h170v-492q94 76 224 76q94 0 166 -29t117 -76.5t73.5 -115.5t39.5 -139.5t11 -155.5t-11 -155.5t-39.5 -139.5t-73.5 -115.5t-117 -76.5t-166 -29q-140 0 -224 65v-47h-170zM313 348q0 -91 64 -144.5t160 -53.5q60 0 103.5 19t69 50t41 78t20.5 93.5t5 107.5 t-5 107.5t-20 94t-40.5 78t-69.5 49.5t-104 19q-96 0 -160 -54.5t-64 -146.5v-297z" />
<glyph unicode="c" horiz-adv-x="1003" d="M92 498q0 108 28.5 200.5t83.5 163.5t142.5 111.5t198.5 40.5q118 0 196.5 -42.5t169.5 -140.5l-127 -112q-64 69 -113.5 100t-125.5 31q-273 0 -273 -352q0 -353 273 -353q76 0 125.5 31.5t113.5 102.5l127 -115q-90 -97 -168.5 -138.5t-197.5 -41.5q-110 0 -198 40.5 t-143 111.5t-83.5 163t-28.5 199z" />
<glyph unicode="d" horiz-adv-x="1050" d="M92 498q0 84 11.5 156t40.5 140t74.5 116t117.5 77t166 29q78 0 125.5 -13t97.5 -51v478h170v-1299l33 -106l-162 -50l-23 78q-99 -71 -241 -71q-94 0 -166 29t-117.5 76.5t-74.5 115.5t-40.5 139.5t-11.5 155.5zM262 498q0 -61 5 -107.5t20 -94t41 -78t70 -49.5t104 -19 q97 0 160 52.5t63 149.5v301q0 81 -65 137t-158 56q-60 0 -104 -19t-70 -49.5t-41 -78t-20 -94t-5 -107.5z" />
<glyph unicode="e" horiz-adv-x="1009" d="M92 494q0 111 24 201.5t74 162.5t135 112t199 40q103 0 180.5 -37t123.5 -102.5t68 -149.5q22 -80 22 -176v-8l-3 -103h-653q6 -140 74 -212t207 -72q152 0 245 118l119 -116q-137 -168 -364 -168q-234 0 -342.5 135t-108.5 375zM268 600h477q-5 113 -60 179.5t-161 66.5 q-231 0 -256 -246z" />
<glyph unicode="f" horiz-adv-x="626" d="M102 848v149h91q0 185 59 281q96 152 334 152v-173q-128 0 -176 -57q-50 -55 -50 -203h195v-149h-195v-848h-167v848h-91z" />
<glyph unicode="g" horiz-adv-x="1044" d="M92 -104q0 43 19 106l157 -55q-8 -24 -8 -41q0 -135 246 -135q46 0 97 14t97 39t76.5 67t30.5 91q0 40 -33.5 64t-75.5 24q-56 0 -163 -26t-162 -26q-86 0 -146.5 45t-60.5 127q0 108 102 189q-127 89 -127 283q0 166 101.5 259t269.5 93q150 0 248 -74q32 16 32 82 q0 10 -1 20h165v-12q0 -66 -21 -124q-23 -64 -77 -95q23 -68 23 -149q0 -173 -97.5 -260t-271.5 -87q-46 0 -96 9q-90 -64 -90 -131q0 -14 12 -22.5t27 -8.5q57 0 166 28.5t167 28.5q112 0 193.5 -62.5t81.5 -170.5q0 -86 -43 -158t-111.5 -117t-150 -69.5t-162.5 -24.5 q-57 0 -111.5 7.5t-110.5 27.5t-97.5 50.5t-68 80.5t-26.5 113zM309 662q0 -97 54 -148t151 -51q100 0 148.5 49t48.5 150q0 190 -199 190q-203 0 -203 -190z" />
<glyph unicode="h" horiz-adv-x="1067" d="M143 0v1430h170v-494q92 80 224 80q407 0 407 -428v-588h-168v578q0 137 -52.5 203.5t-186.5 66.5q-97 0 -160.5 -67.5t-63.5 -166.5v-614h-170z" />
<glyph unicode="i" horiz-adv-x="475" d="M133 1341q0 43 31 74t74 31t73.5 -31t30.5 -74t-30.5 -73.5t-73.5 -30.5t-74 30.5t-31 73.5zM152 0v997h170v-997h-170z" />
<glyph unicode="j" horiz-adv-x="520" d="M-41 -285q71 0 116 15t70 49.5t34 79.5t9 114v1024h170v-1024q0 -211 -95 -317.5t-304 -106.5v166zM168 1341q0 43 30.5 74t73.5 31t74 -31t31 -74t-31 -73.5t-74 -30.5t-73.5 30.5t-30.5 73.5z" />
<glyph unicode="k" horiz-adv-x="980" d="M143 0v1430h170v-859l361 426h225l-389 -448l451 -549h-230l-418 520v-520h-170z" />
<glyph unicode="l" horiz-adv-x="462" d="M143 256v1174h166v-1174q0 -48 16.5 -66t65.5 -18v-172q-129 0 -188.5 63t-59.5 193z" />
<glyph unicode="m" horiz-adv-x="1607" d="M143 0v997h172v-57q93 76 199 76q89 0 168 -38t131 -108q54 68 129.5 107t159.5 39q117 0 205.5 -56.5t133 -148.5t44.5 -205v-606h-172v606q0 105 -54.5 172.5t-156.5 67.5q-94 0 -148.5 -70.5t-54.5 -169.5v-606h-170v606q0 105 -56.5 172.5t-158.5 67.5 q-84 0 -141.5 -68.5t-57.5 -163.5v-614h-172z" />
<glyph unicode="n" horiz-adv-x="1067" d="M143 0v997h170v-71q101 88 224 88q206 0 306.5 -112.5t100.5 -319.5v-582h-168v571q0 142 -51.5 206.5t-187.5 64.5q-97 0 -160.5 -67.5t-63.5 -166.5v-608h-170z" />
<glyph unicode="o" horiz-adv-x="1038" d="M92 496q0 516 428 516q426 0 426 -514q0 -512 -426 -512q-428 0 -428 510zM262 496q0 -63 6 -110.5t22.5 -93.5t44.5 -75t74 -47t109 -18t110 18t75 47t44.5 75t22.5 93.5t6 110.5t-6 111.5t-22.5 95t-44.5 77t-75 48.5t-110 18t-109 -18t-74 -48.5t-44.5 -77t-22.5 -95 t-6 -111.5z" />
<glyph unicode="p" horiz-adv-x="1036" d="M143 -451v1448h170v-57q95 74 224 74q92 0 163.5 -28.5t117 -76.5t74.5 -116.5t40.5 -142.5t11.5 -161q0 -86 -12 -159t-41 -139.5t-74.5 -112.5t-116.5 -73.5t-163 -27.5q-143 0 -224 58v-486h-170zM313 350q0 -92 65 -147.5t159 -55.5q62 0 106.5 20t69.5 50.5t40 78.5 t19 92.5t4 103.5t-4 103t-19 93t-40 80t-69.5 51.5t-106.5 20.5q-94 0 -159 -57t-65 -150v-283z" />
<glyph unicode="q" horiz-adv-x="1052" d="M92 494q0 83 11.5 155t41 140t75 116.5t118.5 77.5t166 29q131 0 241 -78l23 78l162 -49l-33 -107v-1307h-170v490q-100 -62 -223 -62q-412 0 -412 517zM264 494q0 -62 4.5 -108.5t19.5 -93.5t41 -77t70 -49t105 -19q95 0 159 56t64 149v285q0 91 -65 148t-158 57 q-60 0 -104 -19t-70 -49.5t-41 -78t-20 -94t-5 -107.5z" />
<glyph unicode="r" horiz-adv-x="790" d="M143 0v997h166v-51q86 70 219 70q51 0 107 -15.5t94 -48.5l-72 -145q-64 37 -129 37q-91 0 -155 -49.5t-64 -135.5v-659h-166z" />
<glyph unicode="s" horiz-adv-x="954" d="M82 272l170 31q31 -90 86 -121.5t156 -31.5q48 0 92 12.5t79 46t35 82.5q0 48 -32 80t-83.5 49.5t-113.5 31.5t-124.5 33t-114 46.5t-83.5 80t-32 125.5q0 71 30 126t80.5 87t111 48t126.5 16q263 0 369 -209l-154 -76q-35 66 -85 90.5t-130 24.5q-31 0 -58 -4 t-55.5 -14.5t-45.5 -33t-17 -55.5q0 -30 25 -52t66 -34.5t93.5 -26.5t107 -26.5t107 -37.5t93.5 -57t66 -86.5t25 -125.5q0 -99 -57 -171t-141 -105t-180 -33q-160 0 -267.5 70.5t-144.5 219.5z" />
<glyph unicode="t" horiz-adv-x="595" d="M61 846v153h129v283h166v-283h148v-153h-148v-592q0 -46 21 -64t59 -18h45v-172h-47q-244 0 -244 254v592h-129z" />
<glyph unicode="u" horiz-adv-x="1056" d="M123 422v575h170v-567q0 -147 51.5 -215t187.5 -68q92 0 158 53.5t66 141.5v655h168v-997h-168v51q-101 -69 -224 -69q-211 0 -310 109.5t-99 330.5z" />
<glyph unicode="v" horiz-adv-x="995" d="M41 997h186l271 -716l270 716h186l-379 -997h-157z" />
<glyph unicode="w" horiz-adv-x="1568" d="M41 997h184l224 -692l253 692h158l254 -694l227 694h187l-328 -997h-160l-258 705l-260 -705h-160z" />
<glyph unicode="x" horiz-adv-x="1005" d="M41 0l356 512l-336 485h209l232 -325l231 325h211l-336 -485l357 -512h-211l-252 362l-250 -362h-211z" />
<glyph unicode="y" horiz-adv-x="993" d="M41 997h186l267 -747l272 747h186l-456 -1233q-33 -89 -90 -141q-80 -74 -201 -74h-78v172h30h30t23.5 1t24.5 3t19 5.5t20 9.5q32 20 58 84l67 178z" />
<glyph unicode="z" horiz-adv-x="954" d="M82 0v152l541 677h-494v168h733v-145l-545 -684h545v-168h-780z" />
<glyph unicode="{" horiz-adv-x="684" d="M63 647v135q101 -2 147 43t46 146q0 37 -15.5 109.5t-15.5 109.5q0 205 95 301t301 96v-157q-68 0 -112 -16t-67.5 -50.5t-32 -78.5t-8.5 -111q0 -34 16.5 -99.5t16.5 -99.5q0 -76 -30 -147t-87 -113q57 -41 87 -111.5t30 -146.5q0 -35 -16.5 -103t-16.5 -104 q0 -126 48.5 -186t171.5 -60v-160q-396 0 -396 383q0 40 15.5 116.5t15.5 115.5q0 101 -45.5 145.5t-147.5 42.5z" />
<glyph unicode="|" horiz-adv-x="565" d="M195 -156v1741h176v-1741h-176z" />
<glyph unicode="}" horiz-adv-x="684" d="M63 4q122 0 171 60.5t49 185.5q0 36 -17.5 104t-17.5 103q0 76 30 146.5t87 111.5q-57 42 -86 112.5t-29 147.5q0 34 15.5 99.5t15.5 99.5q0 67 -8.5 111t-31.5 78.5t-66.5 50.5t-111.5 16v157q206 0 300 -96t94 -301q0 -37 -14.5 -109.5t-14.5 -109.5q0 -101 46 -146 t147 -43v-135q-102 2 -147.5 -42.5t-45.5 -145.5q0 -39 15.5 -115.5t15.5 -116.5q0 -383 -396 -383v160z" />
<glyph unicode="~" horiz-adv-x="1042" d="M102 600q60 71 118.5 110.5t133.5 39.5q49 0 98.5 -20.5t83 -45.5t75.5 -45.5t79 -20.5q19 0 36.5 7t37 25.5t26 26t27.5 33.5q4 5 6 7l117 -113q-65 -71 -122.5 -109t-131.5 -38q-49 0 -98.5 20.5t-83 45t-75.5 45t-79 20.5q-20 0 -39 -8.5t-36 -25t-27.5 -29.5 t-24.5 -33z" />
<glyph unicode="&#xa1;" horiz-adv-x="604" d="M164 881q0 47 35 81.5t82 34.5q49 0 83.5 -34t34.5 -82q0 -50 -34.5 -84.5t-83.5 -34.5q-48 0 -82.5 35t-34.5 84zM190 236l11 405h161l11 -405v-685h-183v685z" />
<glyph unicode="&#xa2;" horiz-adv-x="999" d="M92 489q0 229 114 367.5t314 147.5l35 157l133 -28l-29 -140q63 -13 119.5 -51t128.5 -115l-114 -102q-95 103 -166 123l-156 -717q50 -8 76 -8q71 0 123 27t123 106l114 -104q-95 -102 -173.5 -139.5t-186.5 -37.5q-47 0 -107 11l-37 -168l-135 28l41 189 q-105 63 -161 180.5t-56 273.5zM256 489q0 -96 18 -166t72 -122l141 651q-111 -22 -172 -109q-32 -46 -45.5 -103t-13.5 -151z" />
<glyph unicode="&#xa3;" horiz-adv-x="1081" d="M92 635l35 164h90q-3 16 -8.5 48t-7.5 44q-38 269 90 420q110 125 291 125q77 0 138 -14.5t110 -46t82.5 -63t76.5 -81.5l-125 -109q-47 55 -79 83t-83 46.5t-120 18.5q-105 0 -164 -68q-60 -66 -60 -194q0 -25 3 -56t5.5 -46.5t10 -57.5t8.5 -49h264l-35 -164h-196 q20 -105 20 -191q0 -135 -51 -278h569v-166h-763v121q48 109 66 200t14 155.5t-23 158.5h-158z" />
<glyph unicode="&#xa4;" horiz-adv-x="1351" d="M86 467l39 160h106v110h-145l39 162h115q15 118 61 217.5t119 173.5t178 116t231 42q120 0 212 -33t184 -115l-95 -155q-79 74 -143.5 101.5t-157.5 27.5q-173 0 -276.5 -101.5t-130.5 -273.5h528l-37 -162h-501q0 -73 2 -110h536l-37 -160h-477q39 -143 141.5 -227 t251.5 -84q94 0 159 27.5t142 101.5l103 -156q-91 -81 -187.5 -114t-216.5 -33q-225 0 -379 134t-198 351h-166z" />
<glyph unicode="&#xa5;" horiz-adv-x="1267" d="M72 1430h200l363 -730l360 730h201l-311 -627h168l-37 -172h-215l-45 -90h297l-37 -172h-293v-369h-178v369h-330l37 172h262l-45 90h-254l37 172h131z" />
<glyph unicode="&#xa6;" horiz-adv-x="731" d="M293 -156v791h158v-791h-158zM293 797v790h158v-790h-158z" />
<glyph unicode="&#xa7;" horiz-adv-x="1058" d="M133 555q0 174 103 283q-64 84 -64 200q0 166 102 273.5t261 107.5q115 0 207.5 -76t179.5 -239l-144 -80q-69 128 -125 178.5t-118 50.5q-89 0 -143 -58t-54 -157q0 -76 42 -115.5t169 -70.5q377 -90 377 -395q0 -176 -101 -283q62 -81 62 -201q0 -166 -102 -274.5 t-261 -108.5q-115 0 -207.5 77t-179.5 241l146 80q68 -128 124 -179t117 -51q89 0 143 58t54 157q0 75 -42.5 115t-168.5 70q-377 91 -377 397zM299 555q0 -90 57.5 -146.5t192.5 -89.5q76 -16 141 -45q72 59 72 183q0 88 -58.5 144t-193.5 89q-83 21 -141 47 q-70 -61 -70 -182z" />
<glyph unicode="&#xa8;" horiz-adv-x="919" d="M133 1225q0 47 34 80.5t81 33.5t80.5 -33.5t33.5 -80.5t-33.5 -81t-80.5 -34t-81 34t-34 81zM557 1225q0 47 34 80.5t81 33.5t80.5 -33.5t33.5 -80.5t-33.5 -81t-80.5 -34t-81 34t-34 81z" />
<glyph unicode="&#xa9;" horiz-adv-x="1617" d="M92 713q0 145 57 278t153 229t229 153t278 57q146 0 279 -57t229 -153t152.5 -228.5t56.5 -278.5t-56.5 -278.5t-152.5 -228.5t-229 -153t-279 -57q-145 0 -278 57t-229 153t-153 229t-57 278zM238 713q0 -155 76.5 -287t208 -209.5t286.5 -77.5q116 0 222 45.5t183 123 t122.5 183.5t45.5 222q0 155 -77 287t-209 209t-287 77t-286.5 -77t-208 -209t-76.5 -287zM498 713q0 92 14 154.5t49 115.5q44 69 112.5 106t151.5 37q79 0 139.5 -34t131.5 -119l-119 -99q-51 63 -81.5 80t-70.5 17q-87 0 -135 -70q-39 -62 -39 -188q0 -128 39 -187 q47 -71 135 -71q40 0 70.5 17t81.5 79l119 -98q-71 -85 -131.5 -118.5t-139.5 -33.5q-84 0 -152 36t-112 105q-35 53 -49 115.5t-14 155.5z" />
<glyph unicode="&#xaa;" horiz-adv-x="845" d="M92 872q0 108 86 183t205 75h129q29 0 49 17v53q0 33 -32.5 58.5t-86.5 25.5q-100 0 -151 -78l-162 51q48 97 133.5 144t179.5 47q118 0 201.5 -71.5t83.5 -176.5v-448l27 -86l-158 -50l-14 46q-88 -50 -199 -50q-120 0 -205.5 75.5t-85.5 184.5zM258 387v150h322v-150 h-322zM258 872q0 -37 36 -66.5t89 -29.5q102 0 178 72v125q-32 -4 -49 -4h-129q-53 0 -89 -30t-36 -67z" />
<glyph unicode="&#xab;" horiz-adv-x="1005" d="M92 469v117l457 430l2 -211l-295 -277l295 -276v-211zM434 469v117l457 430l2 -211l-295 -277l295 -276v-211z" />
<glyph unicode="&#xac;" horiz-adv-x="1087" d="M92 457v149h883v-426h-150v277h-733z" />
<glyph unicode="&#xad;" horiz-adv-x="833" d="M133 487v146h567v-146h-567z" />
<glyph unicode="&#xae;" horiz-adv-x="1617" d="M92 713q0 145 57 278t153 229t229 153t278 57q146 0 279 -57t229 -153t152.5 -228.5t56.5 -278.5t-56.5 -278.5t-152.5 -228.5t-229 -153t-279 -57q-145 0 -278 57t-229 153t-153 229t-57 278zM238 713q0 -155 76.5 -287t208 -209.5t286.5 -77.5q116 0 222 45.5t183 123 t122.5 183.5t45.5 222q0 155 -77 287t-209 209t-287 77t-286.5 -77t-208 -209t-76.5 -287zM543 313v801h291q110 0 174 -41q102 -61 102 -201q0 -79 -39 -138t-110 -83l4 -6l200 -332h-180q-126 209 -168 277q-26 43 -57 43h-64v-320h-153zM696 786h138q63 0 92.5 16.5 t29.5 69.5q0 54 -28 70q-23 16 -94 16h-138v-172z" />
<glyph unicode="&#xaf;" horiz-adv-x="1085" d="M215 1186v149h655v-149h-655z" />
<glyph unicode="&#xb0;" horiz-adv-x="624" d="M92 1354q0 91 64.5 155t156.5 64q91 0 155 -64t64 -155q0 -92 -64 -156.5t-155 -64.5q-92 0 -156.5 64.5t-64.5 156.5zM213 1354q0 -41 29.5 -71t70.5 -30q40 0 69.5 30t29.5 71t-29.5 70.5t-69.5 29.5q-41 0 -70.5 -29.5t-29.5 -70.5z" />
<glyph unicode="&#xb1;" horiz-adv-x="1097" d="M113 0v168h872v-168h-872zM113 561v170h350v344h172v-344h350v-170h-350v-344h-172v344h-350z" />
<glyph unicode="&#xb2;" horiz-adv-x="776" d="M109 561v113q33 89 62.5 133t131.5 154q107 114 146.5 166t39.5 81q0 42 -29.5 62t-70.5 20q-43 0 -71.5 -26.5t-65.5 -94.5l-137 72q53 101 117 152t157 51q64 0 121.5 -25t97 -80.5t39.5 -130.5q0 -71 -44.5 -133.5t-178.5 -197.5q-79 -82 -125 -162h348v-154h-538z " />
<glyph unicode="&#xb3;" horiz-adv-x="770" d="M121 748l149 51l2 -11q12 -35 42 -56t67 -21q46 0 79.5 33.5t33.5 80.5q0 49 -33.5 83t-79.5 34h-62v154h54q45 0 75.5 29t30.5 69q0 39 -30.5 67.5t-75.5 28.5q-35 0 -63 -18t-38 -49l-4 -11l-147 52l4 10q26 77 94.5 124.5t153.5 47.5q109 0 186.5 -74t77.5 -178 q0 -100 -72 -172q86 -83 86 -197q0 -111 -79 -189.5t-191 -78.5q-88 0 -159 50.5t-99 133.5z" />
<glyph unicode="&#xb4;" horiz-adv-x="630" d="M133 1116l172 299h193l-215 -299h-150z" />
<glyph unicode="&#xb5;" horiz-adv-x="1071" d="M133 -391v1388h174v-565q0 -141 41 -201q57 -84 197 -84q64 0 114.5 27t77.5 72q17 33 29 76v675h172v-997h-172v45q-99 -61 -221 -61q-137 0 -238 63v-438h-174z" />
<glyph unicode="&#xb6;" horiz-adv-x="1181" d="M113 1012q0 173 122 295.5t295 122.5h478v-1739h-179v1534h-159v-1534h-178v905q-160 15 -269.5 134.5t-109.5 281.5z" />
<glyph unicode="&#xb7;" d="M133 543q0 51 36.5 88t88.5 37q51 0 88 -37t37 -88q0 -52 -37 -88.5t-88 -36.5q-52 0 -88.5 36t-36.5 89z" />
<glyph unicode="&#xb8;" horiz-adv-x="1079" d="M354 -401l187 270l-56 147l133 47l72 -200l-139 -264h-197z" />
<glyph unicode="&#xb9;" horiz-adv-x="618" d="M94 1286l256 156h88v-881h-151v664l-117 -72z" />
<glyph unicode="&#xba;" horiz-adv-x="892" d="M92 1028v2q0 170 58 268q44 70 123 110t173 40q96 0 174.5 -39.5t122.5 -110.5q58 -96 58 -268t-58 -266q-44 -71 -122.5 -110.5t-174.5 -39.5q-95 0 -173.5 39.5t-122.5 110.5q-58 96 -58 264zM260 1030q0 -129 35 -182q42 -70 151 -70t154 70q33 56 33 182 q0 131 -33 182q-45 72 -154 72t-151 -72q-35 -54 -35 -182zM287 387v150h321v-150h-321z" />
<glyph unicode="&#xbb;" horiz-adv-x="1005" d="M113 41v211l295 276l-295 277v211l458 -430v-117zM455 41v211l295 276l-295 277v211l458 -430v-117z" />
<glyph unicode="&#xbc;" horiz-adv-x="1609" d="M94 1286l256 156h88v-881h-151v664l-117 -72zM385 0l645 1430h160l-647 -1430h-158zM924 205v123l352 555h184l-332 -523h134v193l157 -31v-162h54v-155h-54v-205h-157v205h-338z" />
<glyph unicode="&#xbd;" horiz-adv-x="1687" d="M94 1286l256 156h88v-881h-151v664l-117 -72zM385 0l645 1430h160l-647 -1430h-158zM1024 0v113q32 88 61.5 130.5t133.5 155.5q108 118 147 170t39 80q0 41 -30 61.5t-70 20.5q-43 0 -73 -27.5t-65 -93.5l-139 72q55 101 119.5 152t157.5 51q100 0 178 -62.5t78 -173.5 q0 -51 -25 -100t-65 -95t-132 -139q-77 -75 -125 -161h349v-154h-539z" />
<glyph unicode="&#xbe;" horiz-adv-x="1775" d="M121 748l149 51l2 -11q12 -35 42 -56t67 -21q46 0 79.5 33.5t33.5 80.5q0 49 -33.5 83t-79.5 34h-62v154h54q45 0 75.5 29t30.5 69q0 39 -30.5 67.5t-75.5 28.5q-35 0 -63 -18t-38 -49l-4 -11l-147 52l4 10q26 77 94.5 124.5t153.5 47.5q109 0 186.5 -74t77.5 -178 q0 -100 -72 -172q86 -83 86 -197q0 -111 -79 -189.5t-191 -78.5q-88 0 -159 50.5t-99 133.5zM516 0l645 1430h158l-645 -1430h-158zM1055 205v123l350 555h172l-328 -523h144v193l155 -31v-162h56v-155h-56v-205h-155v205h-338z" />
<glyph unicode="&#xbf;" horiz-adv-x="999" d="M94 -78q0 56 15.5 103.5t43 82t56 58t65.5 45.5q43 26 66 43t46 42.5t33.5 58t12.5 77.5l8 195h131q19 -142 19 -197q0 -71 -15 -126t-44 -92t-56 -59.5t-67 -46.5q-4 -2 -22 -13.5t-22.5 -14t-20 -13t-19.5 -15t-16 -15t-15.5 -17.5t-11 -19t-10 -23t-5 -25t-2.5 -29 q0 -100 68 -158.5t174 -58.5t180 64.5t74 183.5h164q0 -99 -35 -180t-94 -131.5t-133.5 -77.5t-155.5 -27q-82 0 -156.5 27t-131.5 76t-90.5 122t-33.5 160zM387 883q0 47 35 81.5t84 34.5q47 0 82 -34.5t35 -81.5q0 -49 -34.5 -84t-82.5 -35q-50 0 -84.5 35t-34.5 84z" />
<glyph unicode="&#xc0;" horiz-adv-x="1341" d="M20 0l560 1430h182l559 -1430h-195l-161 414h-590l-160 -414h-195zM399 1886h193l172 -299h-150zM442 586h457l-229 581z" />
<glyph unicode="&#xc1;" horiz-adv-x="1341" d="M20 0l560 1430h182l559 -1430h-195l-161 414h-590l-160 -414h-195zM442 586h457l-229 581zM575 1587l173 299h192l-215 -299h-150z" />
<glyph unicode="&#xc2;" horiz-adv-x="1341" d="M20 0l560 1430h182l559 -1430h-195l-161 414h-590l-160 -414h-195zM324 1587l237 299h209l238 -299h-213l-129 211l-129 -211h-213zM442 586h457l-229 581z" />
<glyph unicode="&#xc3;" horiz-adv-x="1341" d="M20 0l560 1430h182l559 -1430h-195l-161 414h-590l-160 -414h-195zM317 1669q110 135 226 135q45 0 89.5 -18.5t75 -40.5t68.5 -40.5t70 -18.5q24 0 50.5 17t37 29t35.5 42l104 -101q-39 -42 -67 -67t-72.5 -46.5t-91.5 -21.5q-44 0 -88 18.5t-74 41t-68 41t-71 18.5 q-56 0 -117 -88zM442 586h457l-229 581z" />
<glyph unicode="&#xc4;" horiz-adv-x="1341" d="M20 0l560 1430h182l559 -1430h-195l-161 414h-590l-160 -414h-195zM342 1702q0 47 34 81t81 34t80.5 -34t33.5 -81t-33.5 -81t-80.5 -34t-81 34t-34 81zM442 586h457l-229 581zM766 1702q0 47 34 81t81 34t80.5 -34t33.5 -81t-33.5 -81t-80.5 -34t-81 34t-34 81z" />
<glyph unicode="&#xc5;" horiz-adv-x="1341" d="M20 0l560 1430h182l559 -1430h-195l-161 414h-590l-160 -414h-195zM432 1763q0 98 70 169t168 71q99 0 169 -70.5t70 -169.5q0 -98 -69.5 -167.5t-169.5 -69.5q-98 0 -168 69.5t-70 167.5zM442 586h457l-229 581zM567 1763q0 -42 30.5 -72t72.5 -30q43 0 72.5 29.5 t29.5 72.5t-29.5 73t-72.5 30q-42 0 -72.5 -30.5t-30.5 -72.5z" />
<glyph unicode="&#xc6;" horiz-adv-x="1914" d="M31 0l710 1430h1082v-177h-719v-428h622v-170h-622v-479h719v-176h-903l2 412h-484l-200 -412h-207zM516 582h406v667h-82z" />
<glyph unicode="&#xc7;" horiz-adv-x="1232" d="M92 715q0 167 26.5 280t88.5 207q76 118 196.5 182t266.5 64q141 0 244 -56t227 -202l-140 -113q-98 116 -165.5 154.5t-165.5 38.5q-207 0 -312 -164q-46 -70 -66 -158.5t-20 -232.5t20 -232.5t66 -158.5q105 -164 312 -164q98 0 166 38t165 154l138 -112 q-101 -120 -186 -177.5t-185 -72.5l45 -127l-139 -264h-197l185 270l-44 115q-129 10 -234.5 73t-176.5 170q-62 94 -88.5 207.5t-26.5 280.5z" />
<glyph unicode="&#xc8;" horiz-adv-x="1185" d="M154 0v1430h929v-177h-751v-426h657v-172h-657v-479h751v-176h-929zM397 1886h193l172 -299h-150z" />
<glyph unicode="&#xc9;" horiz-adv-x="1185" d="M154 0v1430h929v-177h-751v-422h657v-176h-657v-479h751v-176h-929zM494 1587l172 299h192l-215 -299h-149z" />
<glyph unicode="&#xca;" horiz-adv-x="1185" d="M154 0v1430h929v-177h-751v-426h657v-172h-657v-479h751v-176h-929zM305 1587l238 299h209l237 -299h-213l-129 211l-129 -211h-213z" />
<glyph unicode="&#xcb;" horiz-adv-x="1185" d="M154 0v1430h929v-177h-751v-426h657v-172h-657v-479h751v-176h-929zM324 1702q0 47 33.5 81t80.5 34q46 0 80.5 -34t34.5 -81t-34.5 -81t-80.5 -34q-47 0 -80.5 34t-33.5 81zM748 1702q0 47 33.5 81t80.5 34t81 -34t34 -81t-34 -81t-81 -34t-80.5 34t-33.5 81z" />
<glyph unicode="&#xcc;" d="M16 1886h195l172 -299h-152zM168 0v1430h184v-1430h-184z" />
<glyph unicode="&#xcd;" horiz-adv-x="528" d="M133 1587l172 299h193l-215 -299h-150zM176 0v1430h186v-1430h-186z" />
<glyph unicode="&#xce;" d="M-88 1587l235 299h211l236 -299h-211l-129 211l-129 -211h-213zM162 0v1430h184v-1430h-184z" />
<glyph unicode="&#xcf;" d="M-66 1702q0 47 34 81t81 34t81 -34t34 -81t-34 -81t-81 -34t-81 34t-34 81zM168 0v1430h186v-1430h-186zM358 1702q0 47 34 81t81 34t81 -34t34 -81t-34 -81t-81 -34t-81 34t-34 81z" />
<glyph unicode="&#xd0;" horiz-adv-x="1443" d="M133 623v178h84v629h442q67 0 121 -3.5t112.5 -14.5t104 -29t89.5 -48.5t74.5 -71.5t53.5 -99.5t33 -131.5q17 -133 17 -317q0 -179 -17 -318q-10 -73 -33 -131t-53.5 -99t-74.5 -71.5t-89.5 -48.5t-104 -29t-112.5 -14.5t-121 -3.5h-442v623h-84zM397 178h262 q203 0 295 45q93 46 115 197q14 150 14 295t-14 295q-21 149 -115 198q-97 45 -295 45h-262v-452h324v-178h-324v-445z" />
<glyph unicode="&#xd1;" horiz-adv-x="1310" d="M154 0v1430h170l655 -1072v1072h178v-1430h-170l-653 1071v-1071h-180zM283 1669q51 62 104.5 98.5t120.5 36.5q45 0 89.5 -18.5t75 -40.5t68.5 -40.5t70 -18.5q24 0 50.5 17t37 29t35.5 42l104 -101q-39 -42 -67 -67t-72.5 -46.5t-91.5 -21.5q-44 0 -88 18.5t-74 41 t-68 41t-71 18.5q-56 0 -117 -88z" />
<glyph unicode="&#xd2;" horiz-adv-x="1343" d="M92 715q0 167 26.5 280t88.5 207q78 119 198.5 182.5t266.5 63.5q147 0 268 -64t197 -182q62 -94 88 -206.5t26 -280.5t-26 -281t-88 -207q-76 -118 -197 -181.5t-268 -63.5q-146 0 -266.5 63.5t-198.5 181.5q-62 94 -88.5 207.5t-26.5 280.5zM272 715q0 -144 20 -232.5 t66 -158.5q105 -164 314 -164q208 0 313 164q46 70 66 158.5t20 232.5t-20 232.5t-66 158.5q-105 164 -313 164q-209 0 -314 -164q-46 -70 -66 -158.5t-20 -232.5zM446 1886h193l172 -299h-149z" />
<glyph unicode="&#xd3;" horiz-adv-x="1343" d="M92 715q0 167 26.5 280t88.5 207q78 119 198.5 182.5t266.5 63.5q147 0 268 -64t197 -182q62 -94 88 -206.5t26 -280.5t-26 -281t-88 -207q-76 -118 -197 -181.5t-268 -63.5q-146 0 -266.5 63.5t-198.5 181.5q-62 94 -88.5 207.5t-26.5 280.5zM272 715q0 -144 20 -232.5 t66 -158.5q105 -164 314 -164q208 0 313 164q46 70 66 158.5t20 232.5t-20 232.5t-66 158.5q-105 164 -313 164q-209 0 -314 -164q-46 -70 -66 -158.5t-20 -232.5zM537 1587l172 299h192l-215 -299h-149z" />
<glyph unicode="&#xd4;" horiz-adv-x="1343" d="M92 715q0 167 26.5 280t88.5 207q78 119 198.5 182.5t266.5 63.5q147 0 268 -64t197 -182q62 -94 88 -206.5t26 -280.5t-26 -281t-88 -207q-76 -118 -197 -181.5t-268 -63.5q-146 0 -266.5 63.5t-198.5 181.5q-62 94 -88.5 207.5t-26.5 280.5zM272 715q0 -144 20 -232.5 t66 -158.5q105 -164 314 -164q208 0 313 164q46 70 66 158.5t20 232.5t-20 232.5t-66 158.5q-105 164 -313 164q-209 0 -314 -164q-46 -70 -66 -158.5t-20 -232.5zM326 1587l237 299h209l238 -299h-213l-129 211l-129 -211h-213z" />
<glyph unicode="&#xd5;" horiz-adv-x="1343" d="M92 715q0 167 26.5 280t88.5 207q78 119 198.5 182.5t266.5 63.5q147 0 268 -64t197 -182q62 -94 88 -206.5t26 -280.5t-26 -281t-88 -207q-76 -118 -197 -181.5t-268 -63.5q-146 0 -266.5 63.5t-198.5 181.5q-62 94 -88.5 207.5t-26.5 280.5zM272 715q0 -144 20 -232.5 t66 -158.5q105 -164 314 -164q208 0 313 164q46 70 66 158.5t20 232.5t-20 232.5t-66 158.5q-105 164 -313 164q-209 0 -314 -164q-46 -70 -66 -158.5t-20 -232.5zM313 1669q110 135 226 135q45 0 89.5 -18.5t75 -40.5t68.5 -40.5t70 -18.5q24 0 50.5 17t37 29t35.5 42 l104 -101q-39 -42 -67 -67t-72.5 -46.5t-91.5 -21.5q-44 0 -88 18.5t-74 41t-68 41t-71 18.5q-56 0 -117 -88z" />
<glyph unicode="&#xd6;" horiz-adv-x="1343" d="M92 715q0 167 26.5 280t88.5 207q78 119 198.5 182.5t266.5 63.5q147 0 268 -64t197 -182q62 -94 88 -206.5t26 -280.5t-26 -281t-88 -207q-76 -118 -197 -181.5t-268 -63.5q-146 0 -266.5 63.5t-198.5 181.5q-62 94 -88.5 207.5t-26.5 280.5zM272 715q0 -144 20 -232.5 t66 -158.5q105 -164 314 -164q208 0 313 164q46 70 66 158.5t20 232.5t-20 232.5t-66 158.5q-105 164 -313 164q-209 0 -314 -164q-46 -70 -66 -158.5t-20 -232.5zM342 1702q0 47 34 81t81 34q46 0 80 -34t34 -81t-34 -81t-80 -34q-47 0 -81 34t-34 81zM766 1702q0 47 34 81 t81 34t80.5 -34t33.5 -81t-33.5 -81t-80.5 -34t-81 34t-34 81z" />
<glyph unicode="&#xd7;" horiz-adv-x="985" d="M127 311l248 250l-248 248l117 117l248 -248l249 248l117 -117l-250 -248l250 -250l-117 -116l-249 249l-248 -249z" />
<glyph unicode="&#xd8;" horiz-adv-x="1343" d="M92 715q0 150 24 268t91 219q79 120 199 183t266 63q160 0 284 -74l35 56h199l-98 -166q30 -38 45 -62q67 -101 90.5 -218t23.5 -269q0 -151 -23.5 -269t-90.5 -219q-79 -120 -199 -182.5t-266 -62.5q-165 0 -293 79l-37 -61h-199l103 174q-15 18 -39 53 q-67 101 -91 219.5t-24 268.5zM272 715q0 -116 14.5 -206t59.5 -165l520 877q-82 49 -194 49q-205 0 -314 -164q-53 -78 -69.5 -172t-16.5 -219zM469 213q86 -53 203 -53q204 0 313 164q53 78 69.5 172t16.5 219q0 120 -15 211.5t-63 169.5z" />
<glyph unicode="&#xd9;" horiz-adv-x="1339" d="M143 621v809h181v-809q0 -223 61 -324q39 -64 113.5 -100.5t171.5 -36.5t171 36.5t113 100.5q62 103 62 324v809h180v-809q0 -270 -86 -414q-66 -106 -181 -164.5t-259 -60.5q-144 0 -259.5 58.5t-179.5 166.5q-88 143 -88 414zM469 1886h193l172 -299h-150z" />
<glyph unicode="&#xda;" horiz-adv-x="1339" d="M143 621v809h181v-809q0 -223 61 -324q39 -64 113.5 -100.5t171.5 -36.5t171 36.5t113 100.5q62 103 62 324v809h180v-809q0 -270 -86 -414q-66 -106 -181 -164.5t-259 -60.5q-144 0 -259.5 58.5t-179.5 166.5q-88 143 -88 414zM532 1587l173 299h192l-215 -299h-150z " />
<glyph unicode="&#xdb;" horiz-adv-x="1339" d="M143 621v809h181v-809q0 -223 61 -324q39 -64 113.5 -100.5t171.5 -36.5t171 36.5t113 100.5q62 103 62 324v809h180v-809q0 -270 -86 -414q-66 -106 -181 -164.5t-259 -60.5q-144 0 -259.5 58.5t-179.5 166.5q-88 143 -88 414zM342 1587l238 299h208l238 -299h-213 l-129 211l-129 -211h-213z" />
<glyph unicode="&#xdc;" horiz-adv-x="1339" d="M143 621v809h181v-809q0 -223 61 -324q39 -64 113.5 -100.5t171.5 -36.5t171 36.5t113 100.5q62 103 62 324v809h180v-809q0 -270 -86 -414q-66 -106 -181 -164.5t-259 -60.5q-144 0 -259.5 58.5t-179.5 166.5q-88 143 -88 414zM348 1702q0 47 34 81t81 34q46 0 80.5 -34 t34.5 -81t-34.5 -81t-80.5 -34q-47 0 -81 34t-34 81zM772 1702q0 47 34 81t81 34t80.5 -34t33.5 -81t-33.5 -81t-80.5 -34t-81 34t-34 81z" />
<glyph unicode="&#xdd;" horiz-adv-x="1226" d="M51 1430h201l362 -730l361 730h201l-474 -955v-475h-178v479zM475 1587l170 299h195l-215 -299h-150z" />
<glyph unicode="&#xde;" horiz-adv-x="1372" d="M221 0v1430h180v-285h357q197 4 313 -68q83 -50 127.5 -139.5t44.5 -200.5q0 -110 -45 -200t-127 -142q-111 -67 -313 -67h-357v-328h-180zM401 506h357q153 0 217 41q88 55 88 190q0 66 -23.5 116t-64.5 75q-64 41 -217 41h-357v-463z" />
<glyph unicode="&#xdf;" horiz-adv-x="1048" d="M43 848v149h90q0 99 19.5 177.5t61.5 140.5t114.5 95.5t171.5 33.5q134 0 222.5 -89t88.5 -218q0 -48 -19.5 -100t-52.5 -83q65 -27 110 -75t67 -111.5t31 -126.5t9 -139q0 -251 -107 -373.5t-353 -128.5v172q88 2 144.5 22.5t87.5 63.5t42.5 99.5t11.5 142.5 q0 87 -11.5 145t-42 103.5t-87.5 66.5t-145 21v161q65 0 103 39t38 101q0 54 -41 94.5t-96 40.5q-48 0 -83.5 -15t-56 -38.5t-33 -59.5t-16.5 -71.5t-4 -81.5v-1006h-174v848h-90z" />
<glyph unicode="&#xe0;" horiz-adv-x="999" d="M92 287q0 94 48.5 165t125 106.5t168.5 35.5h168q50 0 82 22v93q0 65 -56 102t-130 37q-173 0 -219 -156l-156 60q79 262 379 262q88 0 167 -34.5t132 -106t53 -164.5v-578l33 -106l-162 -50l-23 74q-115 -69 -268 -69q-135 0 -238.5 86.5t-103.5 220.5zM262 287 q0 -62 52.5 -103t119.5 -41q149 0 250 86v215q-29 -10 -70 -10h-182q-67 0 -118.5 -42t-51.5 -105zM279 1415h192l172 -299h-149z" />
<glyph unicode="&#xe1;" horiz-adv-x="999" d="M92 287q0 94 48.5 165t125 106.5t168.5 35.5h168q50 0 82 22v93q0 65 -56 102t-130 37q-173 0 -219 -156l-156 60q79 262 379 262q88 0 167 -34.5t132 -106t53 -164.5v-578l33 -106l-162 -50l-23 74q-115 -69 -268 -69q-135 0 -238.5 86.5t-103.5 220.5zM262 287 q0 -62 52.5 -103t119.5 -41q149 0 250 86v215q-29 -10 -70 -10h-182q-67 0 -118.5 -42t-51.5 -105zM373 1116l170 299h194l-215 -299h-149z" />
<glyph unicode="&#xe2;" horiz-adv-x="999" d="M92 287q0 94 48.5 165t125 106.5t168.5 35.5h168q50 0 82 22v93q0 65 -56 102t-130 37q-173 0 -219 -156l-156 60q79 262 379 262q88 0 167 -34.5t132 -106t53 -164.5v-578l33 -106l-162 -50l-23 74q-115 -69 -268 -69q-135 0 -238.5 86.5t-103.5 220.5zM158 1092 l235 299h211l236 -299h-213l-129 211l-129 -211h-211zM262 287q0 -62 52.5 -103t119.5 -41q149 0 250 86v215q-29 -10 -70 -10h-182q-67 0 -118.5 -42t-51.5 -105z" />
<glyph unicode="&#xe3;" horiz-adv-x="999" d="M92 287q0 94 48.5 165t125 106.5t168.5 35.5h168q50 0 82 22v93q0 65 -56 102t-130 37q-173 0 -219 -156l-156 60q79 262 379 262q88 0 167 -34.5t132 -106t53 -164.5v-578l33 -106l-162 -50l-23 74q-115 -69 -268 -69q-135 0 -238.5 86.5t-103.5 220.5zM133 1194 q51 67 104 103t125 36q54 0 102.5 -26t89.5 -52t77 -26q26 0 49.5 14.5t37.5 30t32 41.5l110 -96q-56 -68 -108.5 -103t-124.5 -35q-46 0 -86 16.5t-63.5 36t-55 36t-62.5 16.5q-26 0 -48.5 -14.5t-31.5 -26t-32 -43.5zM262 287q0 -62 52.5 -103t119.5 -41q149 0 250 86v215 q-29 -10 -70 -10h-182q-67 0 -118.5 -42t-51.5 -105z" />
<glyph unicode="&#xe4;" horiz-adv-x="999" d="M92 287q0 94 48.5 165t125 106.5t168.5 35.5h168q50 0 82 22v93q0 65 -56 102t-130 37q-173 0 -219 -156l-156 60q79 262 379 262q88 0 167 -34.5t132 -106t53 -164.5v-578l33 -106l-162 -50l-23 74q-115 -69 -268 -69q-135 0 -238.5 86.5t-103.5 220.5zM174 1225 q0 47 34 80.5t81 33.5t80.5 -33.5t33.5 -80.5t-33.5 -81t-80.5 -34t-81 34t-34 81zM262 287q0 -62 52.5 -103t119.5 -41q149 0 250 86v215q-29 -10 -70 -10h-182q-67 0 -118.5 -42t-51.5 -105zM598 1225q0 47 34 80.5t81 33.5t80.5 -33.5t33.5 -80.5t-33.5 -81t-80.5 -34 t-81 34t-34 81z" />
<glyph unicode="&#xe5;" horiz-adv-x="999" d="M92 287q0 94 48.5 165t125 106.5t168.5 35.5h168q50 0 82 22v93q0 65 -56 102t-130 37q-173 0 -219 -156l-156 60q79 262 379 262q88 0 167 -34.5t132 -106t53 -164.5v-578l33 -106l-162 -50l-23 74q-115 -69 -268 -69q-135 0 -238.5 86.5t-103.5 220.5zM262 287 q0 -62 52.5 -103t119.5 -41q149 0 250 86v215q-29 -10 -70 -10h-182q-67 0 -118.5 -42t-51.5 -105zM276 1329q0 98 70 168t170 70q98 0 168 -70t70 -168t-70 -168.5t-168 -70.5q-100 0 -170 70t-70 169zM414 1329q0 -43 29.5 -72.5t72.5 -29.5q42 0 72 30t30 72q0 43 -30 73 t-72 30q-43 0 -72.5 -30t-29.5 -73z" />
<glyph unicode="&#xe6;" horiz-adv-x="1638" d="M92 287q0 130 105.5 221.5t251.5 91.5h167q47 0 89 33l-7 96q-3 46 -50.5 81t-121.5 36q-80 0 -147 -41t-94 -127l-168 49q31 101 101 168t147 93t161 26q89 0 165.5 -33t123.5 -92q116 125 322 125q223 0 342 -176q33 -50 48 -126.5t14 -144t-1 -135.5h-668 q7 -121 50 -182q30 -46 92 -73t143 -27q154 0 250 116l139 -102q-147 -182 -389 -182q-218 -3 -346 131q-160 -133 -362 -133q-145 0 -251 89t-106 218zM268 287q0 -54 52 -95.5t129 -41.5q154 0 274 114q-23 76 -27 176q-50 -8 -80 -8h-167q-76 0 -128.5 -44.5 t-52.5 -100.5zM877 600h485q-8 110 -33 145q-67 101 -192 101q-149 0 -215 -101q-29 -40 -45 -145z" />
<glyph unicode="&#xe7;" horiz-adv-x="1003" d="M92 498q0 108 28.5 200.5t83.5 163.5t142.5 111.5t198.5 40.5q118 0 196.5 -42.5t169.5 -140.5l-127 -112q-64 69 -113.5 100t-125.5 31q-273 0 -273 -352q0 -353 273 -353q76 0 125.5 31.5t113.5 102.5l127 -115q-75 -80 -139.5 -121.5t-148.5 -54.5l45 -125l-140 -264 h-196l186 270l-45 119q-183 24 -282 165.5t-99 344.5z" />
<glyph unicode="&#xe8;" horiz-adv-x="1019" d="M92 494q0 111 24 201.5t74 162.5t135 112t199 40q103 0 180.5 -37t123.5 -102.5t68.5 -149.5t21.5 -184l-3 -103h-653q6 -140 74 -212t207 -72q152 0 245 118l119 -116q-137 -168 -364 -168q-234 0 -342.5 135t-108.5 375zM268 600h477q-5 113 -60 179.5t-161 66.5 q-231 0 -256 -246zM295 1415h192l172 -299h-149z" />
<glyph unicode="&#xe9;" horiz-adv-x="1019" d="M92 494q0 111 24 201.5t74 162.5t135 112t199 40q103 0 180.5 -37t123.5 -102.5t68.5 -149.5t21.5 -184l-3 -103h-653q6 -140 74 -212t207 -72q152 0 245 118l119 -116q-137 -168 -364 -168q-234 0 -342.5 135t-108.5 375zM268 600h477q-5 113 -60 179.5t-161 66.5 q-231 0 -256 -246zM358 1116l172 299h193l-215 -299h-150z" />
<glyph unicode="&#xea;" horiz-adv-x="1019" d="M92 494q0 111 24 201.5t74 162.5t135 112t199 40q103 0 180.5 -37t123.5 -102.5t68.5 -149.5t21.5 -184l-3 -103h-653q6 -140 74 -212t207 -72q152 0 245 118l119 -116q-137 -168 -364 -168q-234 0 -342.5 135t-108.5 375zM184 1092l236 299h211l237 -299h-213l-129 211 l-129 -211h-213zM268 600h477q-5 113 -60 179.5t-161 66.5q-231 0 -256 -246z" />
<glyph unicode="&#xeb;" horiz-adv-x="1019" d="M92 494q0 111 24 201.5t74 162.5t135 112t199 40q103 0 180.5 -37t123.5 -102.5t68.5 -149.5t21.5 -184l-3 -103h-653q6 -140 74 -212t207 -72q152 0 245 118l119 -116q-137 -168 -364 -168q-234 0 -342.5 135t-108.5 375zM180 1225q0 47 33 80.5t80 33.5t81 -33.5 t34 -80.5t-34 -81t-81 -34t-80 34t-33 81zM268 600h477q-5 113 -60 179.5t-161 66.5q-231 0 -256 -246zM604 1225q0 47 34 80.5t81 33.5q46 0 79 -33.5t33 -80.5t-33 -81t-79 -34q-47 0 -81 34t-34 81z" />
<glyph unicode="&#xec;" horiz-adv-x="509" d="M10 1415h195l172 -299h-152zM170 0v997h172v-997h-172z" />
<glyph unicode="&#xed;" horiz-adv-x="503" d="M133 1116l172 299h193l-215 -299h-150zM158 0v997h170v-997h-170z" />
<glyph unicode="&#xee;" horiz-adv-x="522" d="M-82 1092l236 299h211l235 -299h-213l-129 211l-127 -211h-213zM176 0v997h170v-997h-170z" />
<glyph unicode="&#xef;" horiz-adv-x="528" d="M-43 1225q0 47 34 80.5t81 33.5t80.5 -33.5t33.5 -80.5t-33.5 -81t-80.5 -34t-81 34t-34 81zM174 0v997h170v-997h-170zM340 1225q0 47 34 80.5t81 33.5t80.5 -33.5t33.5 -80.5t-33.5 -81t-80.5 -34t-81 34t-34 81z" />
<glyph unicode="&#xf0;" horiz-adv-x="1157" d="M150 500q0 219 71 336q52 87 147.5 135.5t211.5 48.5q44 0 96 -10l-47 108h-250v168h176l-111 250h183l110 -250h185v-168h-111l90 -188l45 -86q62 -115 62 -344q0 -216 -70 -334q-54 -89 -147.5 -136.5t-210.5 -47.5q-116 -2 -211.5 46.5t-147.5 137.5q-71 114 -71 334z M324 500q0 -170 45 -246q30 -47 84 -73.5t125 -26.5q149 0 210 100q46 80 46 246q0 171 -46 245q-29 47 -83 74t-127 27q-72 0 -126.5 -27t-82.5 -74q-45 -73 -45 -245z" />
<glyph unicode="&#xf1;" horiz-adv-x="1067" d="M143 0v997h170v-71q101 88 224 88q206 0 306.5 -112.5t100.5 -319.5v-582h-168v571q0 142 -51.5 206.5t-187.5 64.5q-97 0 -160.5 -67.5t-63.5 -166.5v-608h-170zM188 1194q50 67 104 103t126 36q43 0 83 -16.5t65.5 -35.5t58 -35.5t61.5 -16.5q26 0 49.5 14.5t37.5 30 t32 41.5l110 -96q-56 -68 -108.5 -103t-124.5 -35q-46 0 -86 16.5t-63.5 36t-54.5 36t-62 16.5q-26 0 -48.5 -14.5t-32.5 -26.5t-32 -43z" />
<glyph unicode="&#xf2;" horiz-adv-x="1069" d="M92 496q0 516 428 516q426 0 426 -514q0 -512 -426 -512q-428 0 -428 510zM262 496q0 -63 6 -110.5t22.5 -93.5t44.5 -75t74 -47t109 -18t110 18t75 47t44.5 75t22.5 93.5t6 110.5t-6 111.5t-22.5 95t-44.5 77t-75 48.5t-110 18t-109 -18t-74 -48.5t-44.5 -77t-22.5 -95 t-6 -111.5zM281 1415h192l172 -299h-149z" />
<glyph unicode="&#xf3;" horiz-adv-x="1069" d="M92 496q0 516 428 516q426 0 426 -514q0 -512 -426 -512q-428 0 -428 510zM262 496q0 -63 6 -110.5t22.5 -93.5t44.5 -75t74 -47t109 -18t110 18t75 47t44.5 75t22.5 93.5t6 110.5t-6 111.5t-22.5 95t-44.5 77t-75 48.5t-110 18t-109 -18t-74 -48.5t-44.5 -77t-22.5 -95 t-6 -111.5zM395 1116l172 299h193l-215 -299h-150z" />
<glyph unicode="&#xf4;" horiz-adv-x="1069" d="M92 496q0 516 428 516q426 0 426 -514q0 -512 -426 -512q-428 0 -428 510zM178 1092l236 299h211l235 -299h-211l-129 211l-129 -211h-213zM262 496q0 -63 6 -110.5t22.5 -93.5t44.5 -75t74 -47t109 -18t110 18t75 47t44.5 75t22.5 93.5t6 110.5t-6 111.5t-22.5 95 t-44.5 77t-75 48.5t-110 18t-109 -18t-74 -48.5t-44.5 -77t-22.5 -95t-6 -111.5z" />
<glyph unicode="&#xf5;" horiz-adv-x="1069" d="M92 496q0 516 428 516q426 0 426 -514q0 -512 -426 -512q-428 0 -428 510zM178 1194q50 67 104 103t126 36q43 0 83 -16.5t65.5 -35.5t58 -35.5t61.5 -16.5q26 0 49.5 14.5t37.5 30t32 41.5l110 -96q-56 -68 -108.5 -103t-124.5 -35q-46 0 -86 16.5t-63.5 36t-54.5 36 t-62 16.5q-26 0 -48.5 -14.5t-32.5 -26.5t-32 -43zM262 496q0 -63 6 -110.5t22.5 -93.5t44.5 -75t74 -47t109 -18t110 18t75 47t44.5 75t22.5 93.5t6 110.5t-6 111.5t-22.5 95t-44.5 77t-75 48.5t-110 18t-109 -18t-74 -47.5t-44.5 -76t-22.5 -95.5t-6 -113z" />
<glyph unicode="&#xf6;" horiz-adv-x="1069" d="M92 496q0 516 428 516q426 0 426 -514q0 -512 -426 -512q-428 0 -428 510zM193 1225q0 47 32.5 80.5t79.5 33.5t81 -33.5t34 -80.5t-34 -81t-81 -34t-79.5 33.5t-32.5 81.5zM262 496q0 -63 6 -110.5t22.5 -93.5t44.5 -75t74 -47t109 -18t110 18t75 47t44.5 75t22.5 93.5 t6 110.5t-6 111.5t-22.5 95t-44.5 77t-75 48.5t-110 18t-109 -18t-74 -48.5t-44.5 -77t-22.5 -95t-6 -111.5zM616 1225q0 47 34 80.5t81 33.5q46 0 79.5 -33.5t33.5 -80.5t-33.5 -81t-79.5 -34q-47 0 -81 34t-34 81z" />
<glyph unicode="&#xf7;" horiz-adv-x="1073" d="M113 487v146h848v-146h-848zM424 244q0 44 32 76t76 32q46 0 77.5 -32t31.5 -76q0 -46 -31.5 -78.5t-77.5 -32.5q-44 0 -76 32.5t-32 78.5zM424 879q0 46 32 78t76 32q46 0 77.5 -32t31.5 -78q0 -45 -32 -77t-77 -32q-44 0 -76 32.5t-32 76.5z" />
<glyph unicode="&#xf8;" horiz-adv-x="1058" d="M102 496q0 516 428 516q122 0 205 -41l17 26h176l-74 -118q102 -129 102 -381q0 -512 -426 -512q-121 0 -208 41l-17 -27h-176l74 119q-101 128 -101 377zM272 496q0 -137 31 -215l342 546q-50 19 -117 19q-64 0 -111 -19t-74.5 -50t-44 -78.5t-21.5 -94t-5 -108.5z M412 170q48 -18 116 -18q64 0 111.5 18.5t75 49t44 76.5t22 92.5t5.5 107.5q0 146 -32 221z" />
<glyph unicode="&#xf9;" horiz-adv-x="1077" d="M123 422v575h170v-567q0 -147 51.5 -215t187.5 -68q92 0 158 53.5t66 141.5v655h168v-997h-168v51q-101 -69 -224 -69q-211 0 -310 109.5t-99 330.5zM299 1415h193l172 -299h-150z" />
<glyph unicode="&#xfa;" horiz-adv-x="1077" d="M123 422v575h170v-567q0 -147 51.5 -215t187.5 -68q92 0 158 53.5t66 141.5v655h168v-997h-168v51q-101 -69 -224 -69q-211 0 -310 109.5t-99 330.5zM362 1116l173 299h192l-215 -299h-150z" />
<glyph unicode="&#xfb;" horiz-adv-x="1077" d="M123 422v575h170v-567q0 -147 51.5 -215t187.5 -68q92 0 158 53.5t66 141.5v655h168v-997h-168v51q-101 -69 -224 -69q-211 0 -310 109.5t-99 330.5zM188 1092l236 299h211l235 -299h-211l-129 211l-129 -211h-213z" />
<glyph unicode="&#xfc;" horiz-adv-x="1077" d="M123 422v575h170v-567q0 -147 51.5 -215t187.5 -68q92 0 158 53.5t66 141.5v655h168v-997h-168v51q-101 -69 -224 -69q-211 0 -310 109.5t-99 330.5zM201 1225q0 47 33.5 80.5t80.5 33.5t81 -33.5t34 -80.5t-34 -81t-81 -34t-80.5 34t-33.5 81zM625 1225q0 47 33.5 80.5 t80.5 33.5t81 -33.5t34 -80.5t-34 -81t-81 -34t-80.5 34t-33.5 81z" />
<glyph unicode="&#xfd;" horiz-adv-x="991" d="M39 997h186l267 -747l274 747h186l-458 -1233q-32 -87 -91 -141q-80 -74 -200 -74h-78l2 172h30h30t23.5 1t24 3t18 5.5t19.5 9.5q36 22 58 84l69 178zM346 1116l172 299h193l-215 -299h-150z" />
<glyph unicode="&#xfe;" horiz-adv-x="1134" d="M211 -451v1881h174v-461q95 59 221 59q113 0 203 -48.5t141 -137.5q66 -116 66 -336q4 -212 -66 -338q-51 -89 -141 -137.5t-203 -48.5q-126 0 -221 59v-492h-174zM385 358q6 -63 29 -104q56 -98 192 -98q66 0 116 26.5t77 71.5q45 78 45 250t-45 252q-27 45 -77 71.5 t-116 26.5q-136 0 -192 -98q-23 -44 -29 -107v-291z" />
<glyph unicode="&#xff;" horiz-adv-x="993" d="M41 997h186l267 -747l272 747h186l-456 -1233q-33 -89 -90 -141q-80 -74 -201 -74h-78v172h30h30t23.5 1t24.5 3t19 5.5t20 9.5q32 20 58 84l67 178zM174 1225q0 47 34 80.5t81 33.5t80.5 -33.5t33.5 -80.5t-33.5 -81t-80.5 -34t-81 34t-34 81zM598 1225q0 47 34 80.5 t81 33.5t80.5 -33.5t33.5 -80.5t-33.5 -81t-80.5 -34t-81 34t-34 81z" />
<glyph unicode="&#x152;" horiz-adv-x="2080" d="M92 715q0 168 26.5 280.5t90.5 206.5q78 119 200 182.5t271 63.5q244 0 405 -164v148h904v-179h-721v-422h624v-176h-624v-479h721v-178h-904v149q-154 -165 -405 -165q-148 0 -270.5 63.5t-200.5 181.5q-64 94 -90.5 207t-26.5 281zM274 715q0 -145 20 -233t68 -158 q108 -164 318 -164q209 0 317 164q48 70 68 158t20 233t-20 233t-68 158q-105 164 -317 164q-213 0 -318 -164q-48 -70 -68 -158t-20 -233z" />
<glyph unicode="&#x153;" horiz-adv-x="1738" d="M92 496q0 221 72 338q55 85 151.5 131.5t214.5 46.5q108 0 201.5 -40t151.5 -120q59 81 151.5 120.5t202.5 39.5q221 0 340 -176q15 -23 26.5 -49t18.5 -58t11 -56t5.5 -63.5t2 -58t0 -61.5t-0.5 -54h-669q8 -127 49 -186q30 -46 92 -73t143 -27q153 0 252 116l140 -102 q-150 -182 -392 -182q-112 -2 -210.5 37.5t-161.5 121.5q-58 -80 -151.5 -119.5t-201.5 -39.5q-117 -2 -214 45t-152 133q-72 113 -72 336zM268 496q0 -172 47 -248q30 -45 86 -71.5t129 -26.5t129 26.5t86 71.5q48 74 48 248q-4 180 -48 249q-30 46 -86 72.5t-129 26.5 t-129 -26.5t-86 -72.5q-47 -76 -47 -249zM975 604h487q-12 107 -32 139q-67 101 -193 101q-151 0 -217 -101q-30 -42 -45 -139z" />
<glyph unicode="&#x178;" horiz-adv-x="1226" d="M51 1430h201l362 -730l361 730h201l-474 -955v-475h-178v479zM291 1702q0 47 34 81t81 34t80.5 -34t33.5 -81t-33.5 -81t-80.5 -34t-81 34t-34 81zM715 1702q0 47 33.5 81t80.5 34t81 -34t34 -81t-34 -81t-81 -34t-80.5 34t-33.5 81z" />
<glyph unicode="&#x2c6;" horiz-adv-x="1050" d="M184 1092l236 299h211l235 -299h-213l-129 211l-129 -211h-211z" />
<glyph unicode="&#x2dc;" horiz-adv-x="1011" d="M145 1194q50 67 104 103t126 36q43 0 83 -16.5t65.5 -35.5t58 -35.5t61.5 -16.5q26 0 49.5 14.5t37.5 30t32 41.5l110 -96q-56 -68 -108.5 -103t-124.5 -35q-46 0 -86 16.5t-63.5 36t-54.5 36t-62 16.5q-26 0 -48.5 -14.5t-32.5 -26.5t-32 -43z" />
<glyph unicode="&#x2000;" horiz-adv-x="1001" />
<glyph unicode="&#x2001;" horiz-adv-x="2003" />
<glyph unicode="&#x2002;" horiz-adv-x="1001" />
<glyph unicode="&#x2003;" horiz-adv-x="2003" />
<glyph unicode="&#x2004;" horiz-adv-x="667" />
<glyph unicode="&#x2005;" horiz-adv-x="500" />
<glyph unicode="&#x2006;" horiz-adv-x="333" />
<glyph unicode="&#x2007;" horiz-adv-x="333" />
<glyph unicode="&#x2008;" horiz-adv-x="250" />
<glyph unicode="&#x2009;" horiz-adv-x="400" />
<glyph unicode="&#x200a;" horiz-adv-x="111" />
<glyph unicode="&#x2010;" horiz-adv-x="833" d="M133 487v146h567v-146h-567z" />
<glyph unicode="&#x2011;" horiz-adv-x="833" d="M133 487v146h567v-146h-567z" />
<glyph unicode="&#x2012;" horiz-adv-x="833" d="M133 487v146h567v-146h-567z" />
<glyph unicode="&#x2013;" horiz-adv-x="1073" d="M113 487v146h848v-146h-848z" />
<glyph unicode="&#x2014;" horiz-adv-x="1683" d="M113 487v146h1458v-146h-1458z" />
<glyph unicode="&#x2018;" d="M143 1180l15 102l166 258h49l-15 -360q-2 -43 -32.5 -73t-73.5 -30q-46 0 -80.5 31t-28.5 72z" />
<glyph unicode="&#x2019;" d="M143 1077l15 361q1 43 32 72.5t74 29.5q46 0 80.5 -30.5t28.5 -71.5l-15 -103l-165 -258h-50z" />
<glyph unicode="&#x201a;" d="M143 -258l15 360q2 43 32.5 73t73.5 30q46 0 80.5 -31t28.5 -72l-15 -102l-165 -258h-50z" />
<glyph unicode="&#x201c;" horiz-adv-x="851" d="M143 1180l15 102l166 258h49l-15 -360q-2 -43 -32.5 -73t-73.5 -30q-46 0 -80.5 31t-28.5 72zM479 1180l15 102l165 258h50l-15 -360q-2 -43 -32.5 -73t-73.5 -30q-46 0 -80.5 31t-28.5 72z" />
<glyph unicode="&#x201d;" horiz-adv-x="851" d="M143 1077l15 361q1 43 32 72.5t74 29.5q46 0 80.5 -30.5t28.5 -71.5l-15 -103l-165 -258h-50zM479 1077l15 361q1 43 32 72.5t74 29.5q46 0 79.5 -30t29.5 -72l-15 -103l-168 -258h-47z" />
<glyph unicode="&#x201e;" horiz-adv-x="851" d="M143 -258l15 360q2 43 32.5 73t73.5 30q46 0 80.5 -31t28.5 -72l-15 -102l-165 -258h-50zM479 -258l15 360q2 43 32.5 73t73.5 30q46 0 79.5 -30.5t29.5 -72.5l-15 -102l-168 -258h-47z" />
<glyph unicode="&#x2022;" horiz-adv-x="919" d="M133 692q0 135 96 231.5t232 96.5q135 0 230 -96.5t95 -231.5t-95 -231t-230 -96q-136 0 -232 96t-96 231z" />
<glyph unicode="&#x2026;" horiz-adv-x="1482" d="M154 106q0 52 36 88.5t89 36.5q52 0 88 -36t36 -89q0 -51 -36 -86.5t-88 -35.5t-88.5 35.5t-36.5 86.5zM616 106q0 52 37 88.5t88 36.5q53 0 89 -36.5t36 -88.5q0 -51 -36.5 -86.5t-88.5 -35.5q-51 0 -88 35.5t-37 86.5zM1081 106q0 52 36 88.5t87 36.5q52 0 88.5 -36.5 t36.5 -88.5q0 -51 -36.5 -86.5t-88.5 -35.5q-51 0 -87 35.5t-36 86.5z" />
<glyph unicode="&#x202f;" horiz-adv-x="400" />
<glyph unicode="&#x2039;" horiz-adv-x="663" d="M92 469v119l457 438l2 -215l-295 -283l295 -282v-217z" />
<glyph unicode="&#x203a;" horiz-adv-x="663" d="M113 29v217l295 282l-295 283v215l458 -438v-119z" />
<glyph unicode="&#x205f;" horiz-adv-x="500" />
<glyph unicode="&#x20ac;" horiz-adv-x="1351" d="M86 467l39 160h106v110h-145l39 162h115q15 118 61 217.5t119 173.5t178 116t231 42q120 0 212 -33t184 -115l-95 -155q-79 74 -143.5 101.5t-157.5 27.5q-173 0 -276.5 -101.5t-130.5 -273.5h528l-37 -162h-501q0 -73 2 -110h536l-37 -160h-477q39 -143 141.5 -227 t251.5 -84q94 0 159 27.5t142 101.5l103 -156q-91 -81 -187.5 -114t-216.5 -33q-225 0 -379 134t-198 351h-166z" />
<glyph unicode="&#x2122;" horiz-adv-x="1038" d="M82 1356v74h352v-74h-137v-363h-78v363h-137zM489 993v437h76l137 -326l140 326h73v-437h-75v236l-101 -236h-73l-99 236v-236h-78z" />
<glyph unicode="&#x25fc;" horiz-adv-x="993" d="M0 0v993h993v-993h-993z" />
<glyph unicode="&#xfb01;" horiz-adv-x="1005" d="M92 848v149h90q0 215 90.5 324t302.5 109v-173q-134 0 -179.5 -60.5t-45.5 -199.5h502v-997h-170v848h-332v-848h-168v848h-90zM664 1341q0 43 30.5 74t73.5 31t73.5 -31t30.5 -74t-30.5 -73.5t-73.5 -30.5t-73.5 30.5t-30.5 73.5z" />
<glyph unicode="&#xfb02;" horiz-adv-x="1060" d="M92 848v149h90q0 214 92 323.5t301 109.5h293v-1174q0 -55 13 -69.5t67 -14.5v-172q-129 0 -188.5 63t-59.5 193v1001h-125q-70 0 -114.5 -15.5t-68.5 -50t-33 -79.5t-9 -115h195v-149h-195v-848h-168v848h-90z" />
</font>
</defs>
</svg>
