<?xml version="1.0" standalone="no"?>
<!DOCTYPE svg PUBLIC "-//W3C//DTD SVG 1.1//EN" "http://www.w3.org/Graphics/SVG/1.1/DTD/svg11.dtd" >
<svg xmlns="http://www.w3.org/2000/svg">
<metadata></metadata>
<defs>
<font id="aauxpro_ot_regularregular" horiz-adv-x="1062" >
<font-face units-per-em="2048" ascent="1587" descent="-461" />
<missing-glyph horiz-adv-x="552" />
<glyph horiz-adv-x="2048" />
<glyph horiz-adv-x="2048" />
<glyph unicode="&#xd;" horiz-adv-x="2048" />
<glyph unicode=" "  horiz-adv-x="552" />
<glyph unicode="&#x09;" horiz-adv-x="552" />
<glyph unicode="&#xa0;" horiz-adv-x="552" />
<glyph unicode="!" horiz-adv-x="573" d="M205 86q0 42 30 72t72 30q41 0 72 -30.5t31 -71.5q0 -42 -30.5 -72t-72.5 -30q-43 0 -72.5 29.5t-29.5 72.5zM231 741v689h152v-689l-21 -389h-108z" />
<glyph unicode="&#x22;" horiz-adv-x="696" d="M123 1120v310q0 32 23 55.5t55 23.5t55 -23.5t23 -55.5v-310h-156zM418 1120v310q0 32 23 55.5t55 23.5t54.5 -23.5t22.5 -55.5v-310h-155z" />
<glyph unicode="#" horiz-adv-x="1445" d="M113 424l28 137h254l66 307h-252l29 138h254l90 424h141l-92 -424h309l92 424h139l-90 -424h252l-28 -138h-252l-68 -307h254l-31 -137h-252l-92 -424h-139l90 424h-309l-90 -424h-142l91 424h-252zM535 561h311l65 307h-309z" />
<glyph unicode="$" horiz-adv-x="1064" d="M92 430l131 35q18 -97 88.5 -155.5t171.5 -69.5v458q-61 14 -103.5 26.5t-92.5 37t-80 55t-51 79t-21 110.5q0 70 29.5 127t79.5 93.5t111 57t128 25.5v121h133v-123q122 -13 205 -74t137 -174l-120 -55q-36 78 -88.5 120t-133.5 52v-375q66 -16 112.5 -30.5t99.5 -42 t85.5 -61t54 -86.5t21.5 -120q0 -77 -30.5 -141.5t-83 -108t-119 -69.5t-140.5 -33v-109h-133v111q-148 13 -256.5 93.5t-134.5 225.5zM268 1006q0 -32 15 -59t34 -44t53 -32.5t55.5 -22.5t57.5 -17v347q-88 -7 -151.5 -49.5t-63.5 -122.5zM616 240q100 12 170 68.5 t70 152.5q0 40 -15 72.5t-36 53t-56.5 37.5t-63.5 26t-69 20v-430z" />
<glyph unicode="%" horiz-adv-x="1613" d="M113 1044q0 79 16 147.5t49.5 128.5t95 95t144.5 35q67 0 120 -23t87 -61.5t56.5 -91t32 -109t9.5 -118.5t-9.5 -118t-32 -109t-56.5 -91.5t-87 -62t-120 -23.5t-120 23t-87 61t-56.5 91t-32 108.5t-9.5 117.5zM240 1047q0 -50 8.5 -95.5t27.5 -88.5t55.5 -69t86.5 -26 q180 0 180 279q0 278 -180 278q-178 0 -178 -278zM420 0l633 1430h141l-633 -1430h-141zM891 381q0 62 9.5 118.5t32 109t56.5 91t87 61.5t120 23t120 -23t87 -61.5t56.5 -91t32 -109t9.5 -118.5t-9.5 -117.5t-32 -108.5t-56.5 -91t-87 -61t-120 -23t-120 23t-87 61 t-56.5 91t-32 108.5t-9.5 117.5zM1016 381q0 -279 180 -279q178 0 178 279q0 281 -178 281q-180 0 -180 -281z" />
<glyph unicode="&#x26;" horiz-adv-x="1269" d="M74 381q0 144 73 247t211 185q-125 190 -125 330q0 130 85 215.5t219 85.5q132 0 210 -80.5t78 -208.5q0 -67 -21 -124t-62 -102.5t-82.5 -78.5t-100.5 -70q183 -242 393 -444q74 134 74 336h145q0 -262 -108 -432q59 -54 139 -115l-76 -125q-20 15 -41.5 32.5t-35.5 30 t-37 33.5t-35 31q-82 -74 -195.5 -110.5t-234.5 -36.5q-92 0 -176 26t-151 74.5t-106.5 126.5t-39.5 174zM219 381q0 -82 48 -144t121.5 -92t158.5 -30q191 0 319 110q-222 203 -426 477q-115 -71 -168 -141t-53 -180zM377 1143q0 -112 102 -258q48 31 79 55t62 57.5 t46.5 72.5t15.5 85q0 69 -38 109.5t-107 40.5q-73 0 -116.5 -44.5t-43.5 -117.5z" />
<glyph unicode="'" horiz-adv-x="401" d="M123 1120v310q0 32 23 55.5t55 23.5t55 -23.5t23 -55.5v-310h-156z" />
<glyph unicode="(" horiz-adv-x="669" d="M102 715q0 197 80.5 390.5t220.5 324.5h185q-158 -121 -247 -314.5t-89 -400.5q0 -206 89 -400.5t247 -314.5h-185q-141 134 -221 325.5t-80 389.5z" />
<glyph unicode=")" horiz-adv-x="669" d="M82 0q157 121 246.5 315.5t89.5 399.5q0 206 -89.5 400t-246.5 315h182q140 -131 221.5 -325t81.5 -390q0 -198 -80.5 -389.5t-222.5 -325.5h-182z" />
<glyph unicode="*" horiz-adv-x="892" d="M92 1139l39 116l260 -92l-8 277h125l-8 -277l262 92l39 -116l-266 -80l167 -219l-100 -72l-156 227l-157 -227l-101 72l170 219z" />
<glyph unicode="+" horiz-adv-x="1026" d="M92 498v125h359v358h124v-358h359v-125h-359v-359h-124v359h-359z" />
<glyph unicode="," horiz-adv-x="450" d="M133 90q0 35 27 60.5t65 25.5t65 -25.5t27 -60.5v-119l-159 -247h-25v366z" />
<glyph unicode="-" horiz-adv-x="813" d="M133 498v125h547v-125h-547z" />
<glyph unicode="." horiz-adv-x="485" d="M133 92q0 44 32.5 76.5t76.5 32.5q46 0 78 -32.5t32 -76.5q0 -46 -32 -77t-78 -31q-45 0 -77 31.5t-32 76.5z" />
<glyph unicode="/" horiz-adv-x="806" d="M10 -156l645 1741h142l-643 -1741h-144z" />
<glyph unicode="0" horiz-adv-x="1181" d="M102 715q0 68 5.5 133.5t20 139t38 137t62 123t88 101t120.5 66.5t156 25t155.5 -25t120 -66.5t87.5 -101t61 -123t37.5 -137t20 -139t5.5 -133.5t-5.5 -133t-20 -139t-37.5 -138t-61 -124t-87.5 -102t-120 -67.5t-155.5 -25.5t-156 25.5t-120.5 67.5t-88 102t-62 124 t-38 138t-20 139t-5.5 133zM244 715q0 -57 3.5 -110t13.5 -114t26 -112.5t43.5 -100.5t62.5 -83.5t86 -55t113 -20.5q61 0 112 20.5t86 55t62 83.5t43 100.5t26 112.5t13.5 114t3.5 110q0 67 -5.5 129t-18.5 132.5t-38.5 127t-62 103.5t-93.5 73.5t-128 26.5 q-85 0 -149.5 -39t-101.5 -98t-59.5 -142t-30 -157t-7.5 -156z" />
<glyph unicode="1" horiz-adv-x="743" d="M74 1208l325 222h88v-1430h-143v1237l-205 -133z" />
<glyph unicode="2" horiz-adv-x="1144" d="M113 0v121q128 332 385 532q30 23 76.5 52.5t81 50t73 51.5t63.5 62t41.5 76.5t16.5 98.5q0 121 -89 194t-212 73q-103 0 -180.5 -50t-118.5 -145l-125 58q56 129 169 200.5t255 71.5q187 0 315.5 -110t128.5 -294q0 -72 -17.5 -130t-43 -96.5t-69.5 -77t-82 -62.5 t-96.5 -62.5t-98.5 -68.5q-98 -75 -186 -187t-128 -221h760v-137h-919z" />
<glyph unicode="3" d="M86 289l135 43q36 -105 115 -158t184 -53q131 0 218 78t87 204q0 142 -93 211.5t-257 69.5v123q152 0 236 61t84 189q0 108 -85 182t-200 74q-95 0 -171.5 -51t-109.5 -146l-133 45q56 138 166.5 211.5t251.5 73.5q178 0 299 -108t121 -281q0 -100 -40.5 -180 t-123.5 -125q98 -50 149.5 -142.5t51.5 -206.5q0 -189 -127.5 -303t-323.5 -114q-156 0 -269 74.5t-165 228.5z" />
<glyph unicode="4" horiz-adv-x="1130" d="M82 365v122l612 943h162l-598 -928h506v575l141 -26v-549h139v-137h-139v-365h-141v365h-682z" />
<glyph unicode="5" horiz-adv-x="1101" d="M106 285l136 41q34 -102 112 -153.5t181 -51.5q159 0 245 99.5t86 260.5q0 160 -84 258.5t-241 98.5q-152 0 -265 -107h-122v699h761v-134h-626v-399q113 76 250 76q224 0 347.5 -136.5t123.5 -355.5q0 -218 -127.5 -356.5t-350.5 -138.5q-148 0 -262.5 76t-163.5 223z " />
<glyph unicode="6" horiz-adv-x="1118" d="M104 489q0 295 130 533.5t376 407.5l205 2q-97 -66 -175 -130.5t-153.5 -145.5t-130 -176.5t-82.5 -199.5q109 121 293 121q131 0 234 -62.5t158 -168.5t55 -236q0 -190 -129 -318t-320 -128q-140 0 -246.5 68.5t-160.5 181.5t-54 251zM244 442q0 -130 96.5 -225.5 t226.5 -95.5q132 0 221 90.5t89 222.5q0 139 -86 235.5t-224 96.5q-150 0 -236.5 -87t-86.5 -237z" />
<glyph unicode="7" horiz-adv-x="1026" d="M72 1192v238h878v-125q-486 -536 -467 -1305h-153q-2 188 23 358t65 298t101.5 251t118 208t130.5 177h-555v-100h-141z" />
<glyph unicode="8" horiz-adv-x="1105" d="M92 403q0 114 50.5 207t148.5 142q-81 47 -120.5 129t-39.5 176q0 168 123 276.5t299 108.5t299 -107t123 -278q0 -92 -40.5 -175t-121.5 -130q98 -50 149.5 -142.5t51.5 -206.5q0 -128 -63 -224t-167 -144.5t-231 -48.5q-197 0 -329 112.5t-132 304.5zM236 403 q0 -125 91.5 -203.5t225.5 -78.5q132 0 223.5 78.5t91.5 203.5q0 135 -87.5 214t-227.5 79q-142 0 -229.5 -78.5t-87.5 -214.5zM274 1057q0 -118 76.5 -182t202.5 -64q127 0 202.5 63t75.5 183q0 108 -82.5 180t-195.5 72q-115 0 -197 -72t-82 -180z" />
<glyph unicode="9" horiz-adv-x="1093" d="M100 997q0 184 127.5 315.5t315.5 131.5q108 0 196 -40.5t145 -110t87.5 -159t32.5 -190.5q3 -285 -132 -525t-385 -419h-202q435 327 538 662q-123 -113 -276 -113q-192 0 -319.5 130t-127.5 318zM240 997q0 -127 87 -220t214 -93q133 0 224 91t91 222 q0 127 -92.5 219.5t-222.5 92.5q-128 0 -214.5 -92.5t-86.5 -219.5z" />
<glyph unicode=":" horiz-adv-x="485" d="M133 92q0 44 32.5 76.5t76.5 32.5q46 0 78 -32.5t32 -76.5q0 -46 -32 -77t-78 -31q-45 0 -77 31.5t-32 76.5zM133 682q0 46 32.5 78.5t76.5 32.5q46 0 78 -32.5t32 -78.5q0 -44 -32 -76.5t-78 -32.5q-44 0 -76.5 32.5t-32.5 76.5z" />
<glyph unicode=";" horiz-adv-x="485" d="M133 682q0 46 32.5 78.5t76.5 32.5q46 0 78 -32.5t32 -78.5q0 -44 -32 -76.5t-78 -32.5q-44 0 -76.5 32.5t-32.5 76.5zM150 90q0 35 27.5 60.5t64.5 25.5q38 0 65 -25.5t27 -60.5v-119l-158 -247h-26v366z" />
<glyph unicode="&#x3c;" horiz-adv-x="956" d="M131 715l539 715h180l-539 -715l539 -715h-180z" />
<glyph unicode="=" horiz-adv-x="1046" d="M113 248v123h821v-123h-821zM113 655v121h821v-121h-821z" />
<glyph unicode="&#x3e;" horiz-adv-x="956" d="M131 0l539 715l-539 715h180l539 -715l-539 -715h-180z" />
<glyph unicode="?" horiz-adv-x="1017" d="M102 1053q0 91 34.5 167t92 124.5t130.5 75t153 26.5q109 0 200 -45t147 -133.5t56 -202.5q0 -179 -176 -283q-44 -27 -69.5 -45.5t-50 -46.5t-36 -64.5t-14.5 -86.5l-8 -183h-100q-17 128 -17 183q0 71 14.5 125t44 91t54.5 58t66 47q79 48 104 72q51 51 51 133 q0 112 -76 177t-190 65t-196.5 -67.5t-82.5 -186.5h-131zM414 84q0 43 29.5 72.5t72.5 29.5q41 0 70.5 -29.5t29.5 -72.5q0 -41 -29.5 -70.5t-70.5 -29.5q-43 0 -72.5 29.5t-29.5 70.5z" />
<glyph unicode="@" horiz-adv-x="1454" d="M133 487q0 179 70 373q40 104 103.5 202.5t147 183.5t191 136.5t219.5 51.5q92 0 169 -34.5t129.5 -92t89 -134t53 -158.5t16.5 -167q0 -96 -18 -191q-2 -9 -12.5 -48.5t-10.5 -47.5l-35 -567l-143 8l10 170q-64 -86 -153 -142.5t-185 -56.5q-62 0 -114 22.5t-87.5 60.5 t-60 88.5t-36 105.5t-11.5 112q0 117 42 239t124.5 225t187.5 149q74 33 139 33q133 0 220 -107q-4 57 -17.5 111t-39 106t-60.5 90.5t-86.5 62t-112.5 23.5q-89 0 -175 -45.5t-152.5 -119t-116 -154.5t-80.5 -164q-62 -162 -62 -322q0 -120 39.5 -228.5t124.5 -172.5 l-75 -119q-118 85 -175 222.5t-57 295.5zM610 367q0 -41 8 -82t25.5 -81t51 -64.5t77.5 -24.5q52 0 103 29t90.5 74.5t69.5 95.5t48 98q39 103 39 204q0 41 -8.5 82t-26 80t-51.5 63.5t-78 24.5q-34 0 -79 -18q-79 -35 -142 -118t-95 -178.5t-32 -184.5z" />
<glyph unicode="A" horiz-adv-x="1343" d="M41 0l553 1430h156l553 -1430h-154l-164 424h-627l-165 -424h-152zM410 561h524l-262 676z" />
<glyph unicode="B" horiz-adv-x="1308" d="M174 0v1430h490q101 0 181.5 -20.5t144 -64.5t98 -120t34.5 -181q0 -92 -35.5 -173t-105.5 -128q98 -38 148.5 -133.5t50.5 -210.5q0 -108 -36.5 -187t-103.5 -124.5t-151 -66.5t-189 -21h-526zM315 141h385q75 0 131.5 10.5t105.5 37.5t75 79.5t26 130.5 q0 77 -25.5 133.5t-72.5 89.5t-106.5 48.5t-133.5 15.5h-385v-545zM315 801h373q72 0 122 10t90.5 36t60.5 75t20 122q0 244 -317 244h-349v-487z" />
<glyph unicode="C" horiz-adv-x="1243" d="M109 715q0 115 18 218t60.5 199t107 165t163 110t222.5 41q145 0 246.5 -59t203.5 -183l-108 -90q-53 65 -96.5 103t-106 63t-139.5 25q-100 0 -176.5 -35t-122.5 -91t-75.5 -135.5t-40.5 -159t-11 -171.5t11 -171.5t40.5 -159t75.5 -135.5t122.5 -91t176.5 -35 q112 0 187 46t155 144l108 -90q-101 -123 -203 -182t-247 -59q-124 0 -222.5 41t-163 110t-107 165t-60.5 199t-18 218z" />
<glyph unicode="D" horiz-adv-x="1329" d="M174 0v1430h428q88 0 160 -9.5t129 -26t101.5 -45t77 -61.5t55.5 -80.5t37.5 -96.5t23 -115.5t11.5 -131t3 -149.5q0 -79 -2 -137.5t-7.5 -121.5t-16 -108.5t-27.5 -92.5t-41 -79t-57 -63t-76.5 -50.5t-98.5 -34.5t-122.5 -21.5t-149.5 -6.5h-428zM315 141h287 q67 0 121.5 5t97.5 19t76 27t57.5 42t41.5 50t27.5 65t16.5 73t9 88t3.5 95.5t0.5 109.5q0 79 -1 120.5t-4.5 103.5t-12 94t-23.5 76t-38 65.5t-56.5 48t-78.5 38t-104 19.5t-133 8h-287v-1147z" />
<glyph unicode="E" horiz-adv-x="1206" d="M174 0v1430h909v-142h-768v-473h672v-137h-672v-537h768v-141h-909z" />
<glyph unicode="F" horiz-adv-x="1165" d="M174 0v1430h889v-142h-748v-477h672v-137h-672v-674h-141z" />
<glyph unicode="G" horiz-adv-x="1320" d="M109 715q0 117 17.5 220t60 198.5t106.5 164t163.5 109.5t225.5 41q146 0 246 -58t205 -184l-109 -90q-58 68 -99.5 105t-103 61.5t-139.5 24.5q-100 0 -177.5 -35t-124.5 -91t-77 -135t-41.5 -159t-11.5 -172q0 -89 11 -167.5t40 -158.5t75 -137t122 -93t174 -36 q84 0 148 30.5t102 78t61.5 115.5t32 134t8.5 142h-360v133h501v-756h-141v166q-105 -184 -352 -184q-103 0 -188.5 28.5t-146 80t-105.5 119.5t-71.5 151.5t-39 171t-12.5 182.5z" />
<glyph unicode="H" horiz-adv-x="1380" d="M174 0v1430h141v-621h748v621h143v-1430h-143v674h-748v-674h-141z" />
<glyph unicode="I" horiz-adv-x="514" d="M184 0v1430h146v-1430h-146z" />
<glyph unicode="J" horiz-adv-x="1093" d="M51 307l137 35q28 -106 113 -164.5t191 -58.5q161 0 233 78.5t72 240.5v992h143v-992q0 -223 -112 -337.5t-334 -114.5q-172 0 -286.5 80.5t-156.5 240.5z" />
<glyph unicode="K" horiz-adv-x="1183" d="M174 0v1430h141v-703l594 703h166l-594 -709l652 -721h-179l-639 709v-709h-141z" />
<glyph unicode="L" horiz-adv-x="1050" d="M174 0v1430h141v-1293h684v-137h-825z" />
<glyph unicode="M" horiz-adv-x="1529" d="M174 0v1430h143l449 -1254l446 1254h144v-1430h-142v1057l-383 -1057h-133l-381 1057v-1057h-143z" />
<glyph unicode="N" horiz-adv-x="1331" d="M174 0v1430h141l701 -1176v1176h141v-1430h-141l-701 1176v-1176h-141z" />
<glyph unicode="O" horiz-adv-x="1363" d="M113 715q0 116 17.5 218.5t59.5 198.5t105.5 165t162.5 110t224 41t224.5 -41.5t163 -110t105 -164.5t59 -198.5t17.5 -218.5t-17.5 -218.5t-59 -198.5t-105 -164.5t-163 -110t-224.5 -41.5t-224 41t-162.5 110t-105.5 165t-59.5 198.5t-17.5 218.5zM256 715 q0 -92 10.5 -171.5t40 -159t75.5 -135.5t123 -91t177 -35t177 35t123.5 91t76 135.5t40.5 159t11 171.5t-11 171.5t-40.5 159t-76 135.5t-123.5 91t-177 35t-177 -35t-123 -91t-75.5 -135.5t-40 -159t-10.5 -171.5z" />
<glyph unicode="P" horiz-adv-x="1257" d="M174 0v1430h526q104 0 187.5 -21t149.5 -66.5t102.5 -124.5t36.5 -188q0 -88 -24 -156.5t-66.5 -113.5t-103.5 -74.5t-130 -42t-152 -12.5h-385v-631h-141zM315 764h385q59 0 106.5 6.5t91 24.5t72.5 47.5t46.5 77t17.5 110.5q0 79 -25 131.5t-73.5 79t-104 37 t-131.5 10.5h-385v-524z" />
<glyph unicode="Q" horiz-adv-x="1390" d="M129 715q0 118 17.5 221.5t59 199t106 163.5t164 108.5t226.5 40.5q124 0 223 -41t163 -109.5t106 -164.5t60 -199t18 -219q0 -162 -29 -292.5t-110 -236.5l155 -186h-184l-74 88q-138 -106 -328 -106q-126 0 -225.5 40.5t-164 109t-106.5 164t-59.5 199t-17.5 220.5z M272 715q0 -94 11 -174t40 -159.5t76 -134.5t124.5 -89.5t178.5 -34.5q136 0 236 72q-105 114 -250 114v142q200 0 348 -154q56 84 75 186.5t19 231.5q0 92 -11 172.5t-41 159.5t-76.5 135t-123 90.5t-176.5 34.5q-103 0 -181 -34t-124.5 -88.5t-75.5 -134.5t-39 -159.5 t-10 -175.5z" />
<glyph unicode="R" horiz-adv-x="1251" d="M174 0v1430h490q101 0 183 -22t146 -67.5t99.5 -123t35.5 -181.5q0 -154 -98 -265t-256 -126q39 -33 64 -82l331 -563h-165l-310 530q-35 60 -72 86.5t-100 26.5h-207v-643h-141zM315 770h355q315 0 315 266q0 60 -17 105t-45 72.5t-70.5 44.5t-87.5 23.5t-101 6.5h-349 v-518z" />
<glyph unicode="S" horiz-adv-x="1284" d="M111 375l139 35q15 -77 54 -135t95.5 -92t123 -50t143.5 -16q92 0 172 30t135 98t55 163q0 68 -29.5 117.5t-79.5 78.5t-114.5 49.5t-136 35.5t-143 31.5t-136 43.5t-114.5 64.5t-79.5 101t-29.5 147.5q0 92 39.5 164.5t106 115.5t146.5 65t167 22q184 0 306.5 -68.5 t196.5 -228.5l-127 -60q-57 123 -145 169.5t-231 46.5q-58 0 -111 -11.5t-101 -36.5t-77 -71t-29 -107q0 -59 29.5 -101.5t79.5 -68t115 -44.5t136.5 -35t143 -34.5t136.5 -48.5t115 -71.5t79.5 -109.5t29.5 -156q0 -100 -43 -182.5t-114.5 -134.5t-160.5 -80.5t-185 -28.5 q-101 0 -191 22.5t-166 68t-128.5 123t-71.5 179.5z" />
<glyph unicode="T" horiz-adv-x="1155" d="M61 1290v140h1033v-140h-445v-1290h-143v1290h-445z" />
<glyph unicode="U" horiz-adv-x="1359" d="M164 598v832h141v-832q0 -85 8.5 -151.5t33.5 -129.5t65.5 -104t108.5 -65.5t159 -24.5t159 24.5t108.5 65.5t65.5 104t33.5 129.5t8.5 151.5v832h141v-832q0 -109 -15.5 -198.5t-52.5 -168.5t-95 -133t-147.5 -85t-205.5 -31t-205.5 31t-147.5 85t-95 133t-52.5 168.5 t-15.5 198.5z" />
<glyph unicode="V" horiz-adv-x="1226" d="M61 1430h150l403 -1184l402 1184h149l-487 -1430h-129z" />
<glyph unicode="W" horiz-adv-x="1617" d="M72 1430h147l260 -1117l260 1117h138l262 -1117l260 1117h147l-340 -1430h-137l-260 1118l-260 -1118h-137z" />
<glyph unicode="X" horiz-adv-x="1255" d="M72 0l473 737l-445 693h168l361 -566l358 566h170l-444 -693l471 -737h-168l-387 610l-389 -610h-168z" />
<glyph unicode="Y" horiz-adv-x="1222" d="M72 1430h157l383 -785l381 785h158l-469 -957v-473h-141v477z" />
<glyph unicode="Z" horiz-adv-x="1230" d="M113 0v119l809 1171h-738v140h914v-125l-805 -1164h805v-141h-985z" />
<glyph unicode="[" horiz-adv-x="571" d="M143 -156v1741h326v-104h-188v-1532h188v-105h-326z" />
<glyph unicode="\" horiz-adv-x="806" d="M10 1585h144l643 -1741h-142z" />
<glyph unicode="]" horiz-adv-x="571" d="M102 -51h189v1532h-189v104h326v-1741h-326v105z" />
<glyph unicode="^" horiz-adv-x="1087" d="M113 836l362 594h137l363 -594l-121 -68l-311 510l-312 -510z" />
<glyph unicode="_" horiz-adv-x="1083" d="M31 0h1022v-121h-1022v121z" />
<glyph unicode="`" horiz-adv-x="636" d="M154 1415h155l174 -299h-135z" />
<glyph unicode="a" horiz-adv-x="999" d="M113 279q0 136 96.5 217.5t234.5 81.5h172q68 0 105 34v105q0 76 -63.5 114.5t-145.5 38.5q-191 0 -238 -153l-124 47q38 125 134 183.5t232 58.5q87 0 163.5 -32.5t126.5 -100t50 -156.5v-602l31 -95l-131 -40l-25 81q-119 -81 -287 -81q-86 0 -161 36.5t-122.5 106 t-47.5 156.5zM250 279q0 -73 59.5 -119.5t134.5 -46.5q86 0 151.5 22t125.5 76v262q-34 -22 -92 -22h-187q-74 0 -133 -48.5t-59 -123.5z" />
<glyph unicode="b" horiz-adv-x="1050" d="M154 0v1430h137v-527q59 54 115.5 77.5t132.5 23.5q91 0 161.5 -28t114.5 -74.5t72.5 -113.5t39.5 -139t11 -157q0 -107 -19 -193.5t-62.5 -160.5t-124 -115t-193.5 -41q-161 0 -248 90v-72h-137zM291 340q0 -102 72 -162.5t176 -60.5q66 0 115 22t77 56t45 85.5 t22 100.5t5 111q0 63 -5.5 112t-22 101t-44.5 85.5t-77 55.5t-115 22q-105 0 -176.5 -60.5t-71.5 -164.5v-303z" />
<glyph unicode="c" horiz-adv-x="1015" d="M113 492q0 107 27.5 198.5t81 161.5t139.5 109.5t196 39.5q113 0 186.5 -38t155.5 -129l-96 -91q-62 68 -114.5 98.5t-131.5 30.5q-84 0 -144 -30.5t-93.5 -85t-48.5 -119.5t-15 -145q0 -79 15 -144t48.5 -120t94 -86t143.5 -31q79 0 131.5 30.5t114.5 98.5l96 -90 q-83 -90 -156.5 -128t-185.5 -38q-110 0 -196 40t-139.5 110t-81 161t-27.5 197z" />
<glyph unicode="d" horiz-adv-x="1040" d="M113 492q0 85 11.5 157.5t40 140t73 115t115 75.5t161.5 28q87 0 136 -17t112 -69v508h137v-1313q0 -1 7 -23.5t14 -46.5t8 -27l-131 -40l-27 88q-55 -45 -114 -65.5t-142 -20.5q-91 0 -161.5 27.5t-115 74t-73 113.5t-40 138.5t-11.5 156.5zM250 492q0 -63 5 -111.5 t21.5 -100t44.5 -85.5t77 -56t116 -22q106 0 177 58.5t71 168.5v311q0 92 -73.5 154.5t-174.5 62.5q-67 0 -116 -22t-77 -56.5t-44.5 -87t-21.5 -102t-5 -112.5z" />
<glyph unicode="e" horiz-adv-x="1032" d="M113 489q0 85 14.5 160t47 141.5t81 114.5t120.5 75.5t161 27.5q80 0 145 -25.5t109.5 -69t74.5 -103.5t44 -128q13 -64 12 -135v-10l-2 -88h-670q3 -158 77 -246t228 -88q75 0 143.5 29t112.5 85l92 -92q-120 -155 -348 -155q-116 0 -202.5 37.5t-138 106.5t-76.5 159.5 t-25 203.5zM254 582h530q-7 131 -66 211.5t-181 80.5q-130 0 -201 -78.5t-82 -213.5z" />
<glyph unicode="f" horiz-adv-x="667" d="M133 856v135h92v62q0 181 94.5 279t276.5 98v-136q-125 0 -179.5 -57.5t-54.5 -181.5v-64h203v-135h-203v-856h-137v856h-92z" />
<glyph unicode="g" horiz-adv-x="1048" d="M104 -111q0 56 19 111l121 -43q-13 -32 -13 -61q0 -48 26.5 -81.5t70.5 -49t85 -21.5t87 -6q51 0 107 16.5t105 46t81 77t32 102.5q0 50 -41 80t-92 30q-56 0 -163 -26.5t-164 -26.5q-80 0 -134.5 36.5t-54.5 114.5q0 94 113 183q-73 41 -110.5 120t-37.5 168 q0 166 98 257.5t265 91.5q154 0 252 -80q53 17 53 88v10h133q0 -68 -25.5 -122.5t-80.5 -80.5q28 -71 28 -164q0 -172 -93.5 -258t-266.5 -86q-33 0 -109 13q-94 -62 -94 -133q0 -22 17 -33.5t40 -11.5q58 0 167 29.5t167 29.5q106 0 184 -60.5t78 -164.5 q0 -85 -41.5 -156.5t-107.5 -117t-145.5 -70.5t-159.5 -25q-56 0 -109 7.5t-106 27t-92.5 49.5t-64 79t-24.5 111zM279 659q0 -109 59 -167t168 -58q221 0 221 225q0 218 -223 218q-225 0 -225 -218z" />
<glyph unicode="h" horiz-adv-x="1071" d="M154 0v1430h137v-533q43 51 110 80t138 29q399 0 399 -420v-586h-135v575q0 153 -57.5 224t-206.5 71q-109 0 -178.5 -74.5t-69.5 -183.5v-612h-137z" />
<glyph unicode="i" horiz-adv-x="516" d="M164 1356q0 38 28 66t66 28q39 0 66.5 -27.5t27.5 -66.5t-27.5 -66.5t-66.5 -27.5q-38 0 -66 28t-28 66zM188 0v991h140v-991h-140z" />
<glyph unicode="j" horiz-adv-x="532" d="M-20 -313h7q65 0 109 18q47 19 71 58.5t33 87t9 116.5v1024h137v-1024q0 -418 -366 -418v138zM190 1356q0 38 28 66t67 28q38 0 66 -28t28 -66t-28 -66t-66 -28q-39 0 -67 28t-28 66z" />
<glyph unicode="k" horiz-adv-x="987" d="M154 0v1430h137v-891l397 454h178l-403 -456l471 -537h-186l-457 522v-522h-137z" />
<glyph unicode="l" horiz-adv-x="493" d="M170 233v1197h139v-1188q0 -59 16 -83t72 -24v-135q-227 0 -227 233z" />
<glyph unicode="m" horiz-adv-x="1611" d="M154 0v991h137v-80q85 97 221 97q96 0 175.5 -39.5t127.5 -118.5q50 75 127 116.5t168 41.5q169 0 269 -113t100 -285v-610h-138v610q0 114 -60 190.5t-171 76.5q-106 0 -165.5 -79.5t-59.5 -187.5v-610h-135v610q0 116 -62.5 191.5t-177.5 75.5q-92 0 -155.5 -78 t-63.5 -181v-618h-137z" />
<glyph unicode="n" horiz-adv-x="1071" d="M154 0v991h137v-94q44 52 111 81.5t137 29.5q399 0 399 -422v-586h-135v575q0 153 -57.5 225t-206.5 72q-108 0 -178 -75.5t-70 -184.5v-612h-137z" />
<glyph unicode="o" d="M113 494q0 88 12.5 162.5t43 140.5t78 112t120 72.5t165.5 26.5t165.5 -26.5t119.5 -72.5t77.5 -112t43 -139.5t12.5 -161.5q0 -510 -418 -510q-93 0 -165.5 26t-120 71.5t-78 111t-43 138.5t-12.5 161zM250 494q0 -66 6 -117t23.5 -101.5t48 -83t81.5 -53t121 -20.5 t121.5 20.5t82 53t49 83t24.5 101.5t6 117q0 67 -6 118t-24 102t-48.5 84t-82.5 53.5t-122 20.5t-121 -20.5t-81.5 -53.5t-48 -84t-23.5 -102t-6 -118z" />
<glyph unicode="p" horiz-adv-x="1050" d="M154 -451v1442h137v-73q56 52 111.5 72t136.5 20q113 0 193.5 -42.5t124 -118t62.5 -164t19 -196.5q0 -85 -11 -157.5t-39.5 -140t-72.5 -114t-114.5 -74.5t-161.5 -28q-172 0 -248 82v-508h-137zM291 340q0 -103 71.5 -165t176.5 -62q67 0 116 22t77 56t44.5 86 t21.5 100.5t5 111.5t-5 112.5t-21.5 102.5t-44.5 88t-77 57.5t-116 22.5q-103 0 -175.5 -64t-72.5 -165v-303z" />
<glyph unicode="q" horiz-adv-x="1060" d="M111 492q0 84 12 157t41 141.5t73.5 116.5t115.5 76.5t161 28.5q144 0 256 -92l27 88l131 -39q-1 -6 -15 -51.5t-14 -47.5v-1321h-137v508q-104 -82 -248 -82q-403 0 -403 517zM250 492q0 -64 5 -112.5t21 -101t44 -87t77.5 -56.5t116.5 -22q105 0 176.5 62t71.5 165v305 q0 102 -73 165.5t-175 63.5q-67 0 -116 -22.5t-77 -57t-44.5 -87.5t-21.5 -102.5t-5 -112.5z" />
<glyph unicode="r" horiz-adv-x="817" d="M154 0v991h135v-73q48 53 106 72.5t140 19.5q50 0 103.5 -14t84.5 -42l-53 -114q-61 37 -135 37q-100 0 -173 -56.5t-73 -154.5v-666h-135z" />
<glyph unicode="s" horiz-adv-x="989" d="M113 264l135 43q27 -104 93.5 -148t176.5 -44q56 0 106.5 16t89 55.5t38.5 96.5q0 52 -33.5 87t-87 53.5t-118.5 33.5t-129.5 33.5t-118 46t-87 78.5t-33.5 124q0 67 30.5 120t80.5 84.5t109.5 48t123.5 16.5q133 0 223.5 -51t147.5 -166l-123 -60q-38 80 -96.5 111.5 t-151.5 31.5q-34 0 -68 -7t-66 -21.5t-52 -42t-20 -64.5q0 -41 33.5 -69.5t87 -45t118 -31.5t129 -37t118 -53t87 -87t33.5 -133q0 -72 -32.5 -130.5t-86 -94.5t-118.5 -55t-134 -19q-160 0 -262.5 65.5t-142.5 214.5z" />
<glyph unicode="t" horiz-adv-x="616" d="M82 858v135h135v289h133v-289h154v-135h-154v-616q0 -39 5.5 -60.5t24 -32t38 -12.5t61.5 -2v-135h-55q-105 0 -156 67t-51 175v616h-135z" />
<glyph unicode="u" horiz-adv-x="1081" d="M143 424v567h138v-567q0 -157 57.5 -232t206.5 -75q101 0 174.5 60.5t73.5 160.5v653h135v-991h-135v74q-104 -90 -248 -90q-209 0 -305.5 105.5t-96.5 334.5z" />
<glyph unicode="v" horiz-adv-x="997" d="M61 991h146l291 -778l293 778h145l-373 -991h-131z" />
<glyph unicode="w" horiz-adv-x="1572" d="M61 991h146l239 -760l273 760h131l274 -760l244 760h143l-317 -991h-133l-277 768l-276 -768h-133z" />
<glyph unicode="x" horiz-adv-x="989" d="M61 0l351 510l-330 481h166l248 -356l247 356h164l-329 -481l350 -510h-166l-266 391l-269 -391h-166z" />
<glyph unicode="y" horiz-adv-x="997" d="M61 991h146l289 -796l292 796h148l-459 -1235q-77 -207 -272 -207h-6h-60l2 138l41 -2q69 0 105 26.5t61 93.5l74 195z" />
<glyph unicode="z" horiz-adv-x="974" d="M102 0v129l578 729h-530v133h712v-123l-581 -733h581v-135h-760z" />
<glyph unicode="{" horiz-adv-x="684" d="M82 655v121q102 -1 147 48t45 153q0 38 -15 111.5t-15 111.5q0 193 83 284t275 91v-125q-69 0 -113.5 -17.5t-67 -55t-30.5 -82t-8 -111.5q0 -35 16.5 -102.5t16.5 -102.5q0 -82 -30.5 -154.5t-94.5 -109.5q64 -34 94.5 -106.5t30.5 -155.5q0 -37 -16.5 -107t-16.5 -106 q0 -127 48 -193.5t171 -66.5v-125q-184 0 -271 89.5t-87 272.5q0 40 15 119t15 119q0 102 -45 151t-147 49z" />
<glyph unicode="|" horiz-adv-x="534" d="M195 -156v1741h145v-1741h-145z" />
<glyph unicode="}" horiz-adv-x="684" d="M82 -20q123 0 171 66.5t48 193.5q0 36 -17.5 106t-17.5 107q0 82 31.5 155t95.5 107q-64 37 -94.5 109.5t-30.5 154.5q0 35 15.5 102.5t15.5 102.5q0 67 -8 111.5t-30.5 82t-66.5 55t-112 17.5v125q192 0 274 -90.5t82 -284.5q0 -38 -14 -111.5t-14 -111.5 q0 -104 45 -153t147 -48v-121q-103 0 -147.5 -49t-44.5 -151q0 -40 15 -119t15 -119q0 -183 -87 -272.5t-271 -89.5v125z" />
<glyph unicode="~" horiz-adv-x="952" d="M74 600q56 67 111.5 102t123.5 35q48 0 96.5 -20.5t81.5 -45t75.5 -45t80.5 -20.5q36 0 66.5 22t70.5 70l99 -94q-64 -67 -118 -101t-122 -34q-47 0 -95 20.5t-81 45t-76 45t-82 20.5q-65 0 -131 -90z" />
<glyph unicode="&#xa1;" horiz-adv-x="573" d="M164 911q0 41 30 71t72 30q41 0 72 -30t31 -71q0 -42 -30.5 -72t-72.5 -30q-43 0 -72.5 29.5t-29.5 72.5zM195 256l10 399h121l10 -399v-690h-141v690z" />
<glyph unicode="&#xa2;" horiz-adv-x="974" d="M92 489q0 230 114 368t312 144l33 158l115 -24l-29 -142q65 -12 121 -48t125 -111l-101 -93q-52 59 -91 86.5t-83 36.5l-159 -745q36 -10 88 -10q73 0 125.5 26.5t119.5 102.5l101 -91q-89 -98 -165 -134t-181 -36q-55 0 -115 13l-37 -170l-115 24l41 189 q-106 62 -162.5 179.5t-56.5 276.5zM236 489q0 -105 21 -181t85 -132l147 692q-125 -16 -192 -114q-34 -49 -47.5 -108.5t-13.5 -156.5z" />
<glyph unicode="&#xa3;" horiz-adv-x="1060" d="M92 649l29 135h98q-6 35 -18 113q-40 264 88 416q108 123 286 123q61 0 113 -10.5t89.5 -26.5t74.5 -43.5t61.5 -52t55.5 -60.5l-105 -90q-44 51 -76 78t-86 46t-127 19q-118 0 -182 -73q-63 -72 -63 -209q0 -67 30 -230h263l-29 -135h-205q23 -138 23 -211 q0 -138 -58 -301h588v-137h-752v104q39 87 59 159t22.5 139t-3 119t-20.5 128h-156z" />
<glyph unicode="&#xa4;" horiz-adv-x="1292" d="M68 479l28 127h113q-4 99 -2 152h-139l28 127h117q26 250 176.5 406.5t396.5 156.5q116 0 203 -31t168 -106l-74 -125q-69 66 -135.5 93.5t-161.5 27.5q-186 0 -295.5 -116t-132.5 -306h527l-29 -127h-506v-58q0 -36 4 -94h531l-29 -127h-485q36 -163 144.5 -259.5 t270.5 -96.5q95 0 162.5 27.5t136.5 93.5l80 -125q-80 -74 -172 -105.5t-207 -31.5q-223 0 -372.5 137t-190.5 360h-155z" />
<glyph unicode="&#xa5;" horiz-adv-x="1222" d="M72 1430h157l383 -777l381 777h158l-315 -646h176l-29 -135h-215l-66 -135h310l-29 -135h-301v-379h-141v379h-330l29 135h282l-65 135h-246l29 135h149z" />
<glyph unicode="&#xa6;" horiz-adv-x="636" d="M246 -156v791h125v-791h-125zM246 797v790h125v-790h-125z" />
<glyph unicode="&#xa7;" horiz-adv-x="1048" d="M133 555q0 182 111 287q-70 80 -70 205q0 163 99 267.5t257 104.5q112 0 202.5 -72.5t174.5 -226.5l-123 -65q-66 122 -126 173.5t-128 51.5q-99 0 -158 -63t-59 -170q0 -85 47 -128t181 -75q374 -89 374 -387q0 -184 -108 -289q67 -76 67 -203q0 -165 -99 -270 t-255 -105q-113 0 -203.5 72.5t-175.5 228.5l123 66q66 -123 126.5 -175t129.5 -52q97 0 157 64t60 171q0 83 -47.5 126.5t-181.5 76.5q-375 89 -375 387zM272 555q0 -97 63.5 -158t205.5 -94q106 -29 149 -51q88 66 88 205q0 97 -63.5 158t-206.5 94q-78 18 -150 49 q-86 -64 -86 -203z" />
<glyph unicode="&#xa8;" horiz-adv-x="899" d="M133 1214q0 43 31 74t74 31t73.5 -31t30.5 -74t-30.5 -73.5t-73.5 -30.5t-74 30.5t-31 73.5zM557 1214q0 43 31 74t74 31t73.5 -31t30.5 -74t-30.5 -73.5t-73.5 -30.5t-74 30.5t-31 73.5z" />
<glyph unicode="&#xa9;" horiz-adv-x="1617" d="M92 713q0 145 57 278t153 229t229 153t278 57q146 0 279 -57t229 -153t152.5 -228.5t56.5 -278.5t-56.5 -278.5t-152.5 -228.5t-229 -153t-279 -57q-145 0 -278 57t-229 153t-153 229t-57 278zM219 713q0 -160 79 -296t215 -215t296 -79t296.5 79t216 215t79.5 296 t-79.5 296.5t-216 216t-296.5 79.5t-296 -79.5t-215 -216t-79 -296.5zM504 713q0 92 14 154.5t47 115.5q43 66 111 102.5t149 36.5q77 0 135.5 -32t124.5 -111l-104 -88q-49 60 -81 77t-75 17q-94 0 -145 -76q-41 -66 -41 -196q0 -131 41 -195q50 -78 145 -78q42 0 74.5 18 t81.5 77l104 -89q-65 -78 -123.5 -109.5t-136.5 -31.5q-82 0 -149.5 36t-110.5 103q-33 52 -47 114.5t-14 154.5z" />
<glyph unicode="&#xaa;" horiz-adv-x="821" d="M92 864q0 104 82.5 178t196.5 74h133q44 0 71 27v65q0 45 -40 77t-103 32q-33 0 -67.5 -9.5t-71.5 -39.5t-51 -76l-125 37q33 110 122.5 164.5t192.5 54.5q114 0 194.5 -69.5t80.5 -170.5v-473l22 -76l-125 -36l-16 51q-96 -62 -217 -62q-114 0 -196.5 74t-82.5 178z M223 864q0 -48 43 -84.5t105 -36.5q118 0 204 86v166q-33 -10 -71 -10h-133q-62 0 -105 -35.5t-43 -85.5zM258 397v129h301v-129h-301z" />
<glyph unicode="&#xab;" horiz-adv-x="985" d="M92 473v111l436 417l2 -186l-301 -287l301 -286v-189zM434 473v111l438 417v-186l-301 -287l301 -286v-189z" />
<glyph unicode="&#xac;" horiz-adv-x="1067" d="M92 467v129h862v-406h-129v277h-733z" />
<glyph unicode="&#xad;" horiz-adv-x="813" d="M133 498v125h547v-125h-547z" />
<glyph unicode="&#xae;" horiz-adv-x="1617" d="M92 713q0 145 57 278t153 229t229 153t278 57q146 0 279 -57t229 -153t152.5 -228.5t56.5 -278.5t-56.5 -278.5t-152.5 -228.5t-229 -153t-279 -57q-145 0 -278 57t-229 153t-153 229t-57 278zM219 713q0 -160 79 -296t215 -215t296 -79t296.5 79t216 215t79.5 296 t-79.5 296.5t-216 216t-296.5 79.5t-296 -79.5t-215 -216t-79 -296.5zM549 317v791h287q111 0 170 -37q98 -64 98 -194q0 -83 -41 -141.5t-115 -80.5l8 -16l195 -322h-158l-151 252q0 1 -6 10.5t-7 11.5t-6.5 10.5t-8 11.5t-8 9.5t-10 8.5t-10.5 6t-12.5 5t-13.5 1h-76v-326 h-135zM684 778h152q32 0 52 3t40.5 12t30.5 29t10 52q0 59 -35 80q-34 19 -98 19h-152v-195z" />
<glyph unicode="&#xaf;" horiz-adv-x="991" d="M178 1196v129h635v-129h-635z" />
<glyph unicode="&#xb0;" horiz-adv-x="585" d="M92 1354q0 83 59 141.5t142 58.5t142 -58.5t59 -141.5t-59 -142t-142 -59t-142 59t-59 142zM203 1354q0 -38 26 -64t64 -26q37 0 63.5 26t26.5 64q0 37 -26.5 63.5t-63.5 26.5q-38 0 -64 -26.5t-26 -63.5z" />
<glyph unicode="&#xb1;" horiz-adv-x="1067" d="M113 0v137h841v-137h-841zM113 561v139h350v344h141v-344h350v-139h-350v-344h-141v344h-350z" />
<glyph unicode="&#xb2;" horiz-adv-x="681" d="M82 561v94q32 85 88.5 171t120.5 147q112 104 150 155t38 91q0 56 -39 81t-88 25q-52 0 -85 -29.5t-66 -89.5l-107 56q48 89 109 135.5t149 46.5q99 0 173.5 -59.5t74.5 -165.5q0 -72 -47 -141t-178 -193q-88 -83 -150 -205h375v-119h-518z" />
<glyph unicode="&#xb3;" horiz-adv-x="675" d="M76 766l117 37l8 -31q15 -43 52 -69.5t81 -26.5q57 0 98 41.5t41 99.5q0 60 -41 102t-98 42h-64v118h56q55 0 93 36t38 87t-38 87t-93 36q-42 0 -76.5 -23.5t-48.5 -60.5l-11 -31l-114 39l10 31q26 74 92.5 120t147.5 46q104 0 178 -71.5t74 -172.5q0 -109 -84 -180 q100 -78 100 -205q0 -107 -76.5 -183.5t-183.5 -76.5q-85 0 -153.5 49t-94.5 129z" />
<glyph unicode="&#xb4;" horiz-adv-x="595" d="M133 1116l174 299h156l-195 -299h-135z" />
<glyph unicode="&#xb5;" horiz-adv-x="1050" d="M133 -401v827v553h137v-553q0 -151 45 -219q30 -44 87.5 -69t132.5 -25q72 0 129 29.5t86 80.5q20 38 32 86v670h136v-979h-136v57q-107 -80 -247 -80q-160 0 -265 82v-460h-137z" />
<glyph unicode="&#xb6;" horiz-adv-x="1161" d="M113 1022q0 169 119 288.5t288 119.5h467v-1739h-141v1571h-205v-1571h-141v925q-161 8 -274 126t-113 280z" />
<glyph unicode="&#xb7;" horiz-adv-x="485" d="M133 543q0 44 32.5 76t76.5 32q46 0 78 -32t32 -76q0 -46 -32 -78.5t-78 -32.5q-44 0 -76.5 32.5t-32.5 78.5z" />
<glyph unicode="&#xb8;" horiz-adv-x="985" d="M319 -401l179 262l-68 147l111 43l92 -201l-141 -251h-173z" />
<glyph unicode="&#xb9;" horiz-adv-x="524" d="M66 1292l247 150h68v-881h-119v713l-137 -84z" />
<glyph unicode="&#xba;" horiz-adv-x="872" d="M92 1028v2q0 174 58 270q41 69 117.5 108.5t168.5 39.5q94 0 170 -39t117 -109q57 -94 57 -270q0 -178 -57 -268q-41 -70 -117 -109t-170 -39q-93 0 -169 39t-117 109q-58 96 -58 266zM223 1030q0 -139 39 -203q29 -48 79 -66t95 -18t96 18t80 66q37 64 37 203 q0 144 -37 203q-52 84 -176 84t-174 -84q-39 -63 -39 -203zM287 397v129h301v-129h-301z" />
<glyph unicode="&#xbb;" horiz-adv-x="985" d="M113 53v189l299 286l-299 287v186l438 -417v-111zM455 53v189l299 286l-299 287v186l438 -417v-111z" />
<glyph unicode="&#xbc;" horiz-adv-x="1515" d="M66 1292l247 150h68v-881h-119v713l-137 -84zM346 0l633 1430h123l-631 -1430h-125zM887 215v102l356 566h141l-344 -547h197v268l123 -24v-244h55v-121h-55v-215h-123v215h-350z" />
<glyph unicode="&#xbd;" horiz-adv-x="1593" d="M66 1292l247 150h68v-881h-119v713l-137 -84zM346 0l633 1430h123l-631 -1430h-125zM987 0v94q31 86 87 171t122 147q112 106 149 156t37 91q0 54 -39 79.5t-86 25.5q-52 0 -85 -29.5t-66 -89.5l-107 55q46 90 107.5 137.5t150.5 47.5q98 0 172 -60t74 -166 q0 -74 -46.5 -142.5t-176.5 -190.5q-77 -73 -152 -205h377v-121h-518z" />
<glyph unicode="&#xbe;" horiz-adv-x="1681" d="M76 766l117 37l8 -31q15 -43 52 -69.5t81 -26.5q57 0 98 41.5t41 99.5q0 60 -41 102t-98 42h-64v118h56q55 0 93 36t38 87t-38 87t-93 36q-42 0 -76.5 -23.5t-48.5 -60.5l-11 -31l-114 39l10 31q26 74 92.5 120t147.5 46q104 0 178 -71.5t74 -172.5q0 -109 -84 -180 q100 -78 100 -205q0 -107 -76.5 -183.5t-183.5 -76.5q-85 0 -153.5 49t-94.5 129zM510 0l633 1430h125l-633 -1430h-125zM1090 215v102l356 566h143l-344 -547h197v268l121 -24v-244h57v-121h-57v-215h-121v215h-352z" />
<glyph unicode="&#xbf;" horiz-adv-x="1017" d="M123 -70q0 179 176 283q60 36 90.5 61t53.5 71t26 112l8 182h101q16 -127 16 -182q0 -71 -14.5 -125t-43.5 -91.5t-54.5 -58.5t-65.5 -47q-78 -48 -100 -69q-56 -53 -56 -136q0 -112 76 -176.5t190 -64.5t196.5 67.5t82.5 186.5h131q0 -121 -59 -212.5t-151 -136.5 t-200 -45q-109 0 -200 45t-147 133.5t-56 202.5zM422 911q0 41 30 71t72 30q41 0 71 -30t30 -71q0 -43 -29.5 -72.5t-71.5 -29.5q-43 0 -72.5 29.5t-29.5 72.5z" />
<glyph unicode="&#xc0;" horiz-adv-x="1343" d="M41 0l553 1430h156l553 -1430h-154l-164 424h-627l-165 -424h-152zM410 561h524l-262 676zM430 1886h156l176 -299h-137z" />
<glyph unicode="&#xc1;" horiz-adv-x="1343" d="M41 0l553 1430h156l553 -1430h-154l-164 424h-627l-165 -424h-152zM410 561h524l-262 676zM563 1587l176 299h156l-195 -299h-137z" />
<glyph unicode="&#xc2;" horiz-adv-x="1343" d="M41 0l553 1430h156l553 -1430h-154l-164 424h-627l-165 -424h-152zM358 1587l215 299h195l215 -299h-174l-137 213l-137 -213h-177zM410 561h524l-262 676z" />
<glyph unicode="&#xc3;" horiz-adv-x="1343" d="M41 0l553 1430h156l553 -1430h-154l-164 424h-627l-165 -424h-152zM336 1655q79 101 159 114.5t207 -49.5q1 0 13 -5.5t16 -7t16.5 -6.5t18.5 -7t18 -5.5t19 -4t17.5 -1t18 1.5t15.5 5.5t14 9.5q9 8 26 29t19 24l101 -82l-19 -22q-30 -39 -64.5 -61.5t-65 -29.5t-67 -2.5 t-64 13.5t-62.5 24q-9 4 -32 14t-33 14t-28.5 11t-29 8t-24.5 2t-24.5 -3.5t-19.5 -12.5q-9 -9 -25 -29t-20 -24zM410 561h524l-262 676z" />
<glyph unicode="&#xc4;" horiz-adv-x="1343" d="M41 0l553 1430h156l553 -1430h-154l-164 424h-627l-165 -424h-152zM352 1692q0 43 31 73.5t74 30.5t73.5 -30.5t30.5 -73.5t-30.5 -74t-73.5 -31t-74 31t-31 74zM410 561h524l-262 676zM776 1692q0 43 31 73.5t74 30.5t73.5 -30.5t30.5 -73.5t-30.5 -74t-73.5 -31t-74 31 t-31 74z" />
<glyph unicode="&#xc5;" horiz-adv-x="1343" d="M41 0l553 1430h156l553 -1430h-154l-164 424h-627l-165 -424h-152zM410 561h524l-262 676zM432 1763q0 98 71 169t169 71t167.5 -70.5t69.5 -169.5q0 -98 -69.5 -167.5t-167.5 -69.5q-99 0 -169.5 69.5t-70.5 167.5zM555 1763q0 -48 34 -82t83 -34q47 0 81.5 34.5 t34.5 81.5q0 49 -34 83t-82 34q-50 0 -83.5 -34t-33.5 -83z" />
<glyph unicode="&#xc6;" horiz-adv-x="1882" d="M31 0l688 1430h1071v-142h-727v-473h629v-141h-629v-533h727v-141h-870v424h-527l-205 -424h-157zM459 561h461v727h-111z" />
<glyph unicode="&#xc7;" horiz-adv-x="1202" d="M92 715q0 169 26 281.5t87 207.5q76 118 193.5 181t260.5 63q138 0 238.5 -53.5t212.5 -188.5l-109 -90q-93 111 -165.5 151t-176.5 40q-220 0 -333 -179q-50 -76 -71.5 -169.5t-21.5 -243.5t21.5 -244t71.5 -170q113 -178 333 -178q104 0 177 39.5t165 150.5l109 -90 q-95 -115 -180 -169t-191 -66l54 -127l-140 -262h-159l176 272l-49 113q-130 7 -237.5 69.5t-178.5 171.5q-61 95 -87 208t-26 282z" />
<glyph unicode="&#xc8;" horiz-adv-x="1206" d="M174 0v1430h909v-142h-768v-473h672v-141h-672v-533h768v-141h-909zM393 1886h156l174 -299h-135z" />
<glyph unicode="&#xc9;" horiz-adv-x="1206" d="M174 0v1430h909v-142h-768v-473h672v-141h-672v-533h768v-141h-909zM504 1587l174 299h156l-195 -299h-135z" />
<glyph unicode="&#xca;" horiz-adv-x="1206" d="M174 0v1430h909v-142h-768v-473h672v-141h-672v-533h768v-141h-909zM309 1587l215 299h195l213 -299h-174l-137 213l-138 -213h-174z" />
<glyph unicode="&#xcb;" horiz-adv-x="1206" d="M174 0v1430h909v-142h-768v-473h672v-141h-672v-533h768v-141h-909zM303 1692q0 43 31 73.5t74 30.5t73.5 -30.5t30.5 -73.5t-30.5 -74t-73.5 -31t-74 31t-31 74zM727 1692q0 43 30.5 73.5t73.5 30.5t74 -30.5t31 -73.5t-31 -74t-74 -31t-73.5 31t-30.5 74z" />
<glyph unicode="&#xcc;" horiz-adv-x="493" d="M31 1886h155l174 -299h-135zM166 0v1430h145v-1430h-145z" />
<glyph unicode="&#xcd;" horiz-adv-x="493" d="M133 1587l174 299h156l-195 -299h-135zM172 0v1430h145v-1430h-145z" />
<glyph unicode="&#xce;" horiz-adv-x="663" d="M20 1587l216 299h194l213 -299h-174l-137 213l-137 -213h-175zM256 0v1430h143v-1430h-143z" />
<glyph unicode="&#xcf;" horiz-adv-x="632" d="M20 1692q0 43 31 73.5t74 30.5t73.5 -30.5t30.5 -73.5t-30.5 -74t-73.5 -31t-74 31t-31 74zM244 0v1430h145v-1430h-145zM403 1692q0 43 31 73.5t74 30.5t73.5 -30.5t30.5 -73.5t-30.5 -74t-73.5 -31t-74 31t-31 74z" />
<glyph unicode="&#xd0;" horiz-adv-x="1349" d="M96 641v141h86v648h430q96 0 168 -8t146.5 -32.5t125 -66.5t88 -114t50.5 -171q16 -131 16 -323q0 -193 -16 -324q-11 -83 -37.5 -147t-68.5 -106t-90.5 -70t-113.5 -42.5t-127 -20t-141 -5.5h-430v641h-86zM326 141h286q212 0 308 49q106 52 129 220q14 105 14 305 t-14 305q-12 88 -43 140.5t-86 80.5q-96 47 -308 47h-286v-506h327v-141h-327v-500z" />
<glyph unicode="&#xd1;" horiz-adv-x="1290" d="M154 0v1430h141l700 -1156v1156h142v-1430h-142l-700 1155v-1155h-141zM315 1661q79 102 159.5 116t207.5 -48q25 -12 39 -18t41.5 -15t49 -5.5t36.5 17.5q2 1 45 51l100 -80l-18 -24q-38 -48 -80 -72t-86 -23t-78.5 10.5t-79.5 28.5q-7 3 -20 9q-34 16 -52 23t-43.5 14 t-43.5 3.5t-33 -16.5q-9 -8 -43 -53z" />
<glyph unicode="&#xd2;" horiz-adv-x="1363" d="M113 715q0 170 25.5 283t86.5 206q76 118 194 181t263 63t263 -63t194 -181q61 -95 86.5 -207t25.5 -282t-25.5 -282.5t-86.5 -207.5q-76 -118 -194 -180.5t-263 -62.5t-263 62.5t-194 180.5q-61 95 -86.5 207.5t-25.5 282.5zM256 715q0 -152 20.5 -245.5t69.5 -168.5 q116 -178 336 -178t336 178q50 76 71 169.5t21 244.5t-21 244t-71 169q-116 179 -336 179t-336 -179q-50 -75 -70 -168t-20 -245zM502 1886h155l174 -299h-135z" />
<glyph unicode="&#xd3;" horiz-adv-x="1363" d="M113 715q0 170 25.5 283t86.5 206q76 118 194 181t263 63t263 -63t194 -181q61 -95 86.5 -207t25.5 -282t-25.5 -282.5t-86.5 -207.5q-76 -118 -194 -180.5t-263 -62.5t-263 62.5t-194 180.5q-61 95 -86.5 207.5t-25.5 282.5zM256 715q0 -152 20.5 -245.5t69.5 -168.5 q116 -178 336 -178t336 178q50 76 71 169.5t21 244.5t-21 244t-71 169q-116 179 -336 179t-336 -179q-50 -75 -70 -168t-20 -245zM561 1587l174 299h156l-195 -299h-135z" />
<glyph unicode="&#xd4;" horiz-adv-x="1363" d="M113 715q0 170 25.5 283t86.5 206q76 118 194 181t263 63t263 -63t194 -181q61 -95 86.5 -207t25.5 -282t-25.5 -282.5t-86.5 -207.5q-76 -118 -194 -180.5t-263 -62.5t-263 62.5t-194 180.5q-61 95 -86.5 207.5t-25.5 282.5zM256 715q0 -152 20.5 -245.5t69.5 -168.5 q116 -178 336 -178t336 178q50 76 71 169.5t21 244.5t-21 244t-71 169q-116 179 -336 179t-336 -179q-50 -75 -70 -168t-20 -245zM373 1587l213 299h196l213 -299h-174l-137 213l-137 -213h-174z" />
<glyph unicode="&#xd5;" horiz-adv-x="1363" d="M113 715q0 170 25.5 283t86.5 206q76 118 194 181t263 63t263 -63t194 -181q61 -95 86.5 -207t25.5 -282t-25.5 -282.5t-86.5 -207.5q-76 -118 -194 -180.5t-263 -62.5t-263 62.5t-194 180.5q-61 95 -86.5 207.5t-25.5 282.5zM256 715q0 -152 20.5 -245.5t69.5 -168.5 q116 -178 336 -178t336 178q50 76 71 169.5t21 244.5t-21 244t-71 169q-116 179 -336 179t-336 -179q-50 -75 -70 -168t-20 -245zM334 1655q79 101 159 114.5t207 -49.5q26 -12 38 -17t40.5 -14t50 -6t37.5 17q9 8 43 53l101 -82l-17 -22q-31 -39 -65.5 -61.5t-64.5 -29.5 t-67 -2.5t-63.5 13.5t-62.5 24q-11 5 -33 14l-33 13.5t-29 11t-29 8.5t-24.5 2.5t-24.5 -4t-20 -12.5q-13 -13 -43 -53z" />
<glyph unicode="&#xd6;" horiz-adv-x="1363" d="M113 715q0 170 25.5 283t86.5 206q76 118 194 181t263 63t263 -63t194 -181q61 -95 86.5 -207t25.5 -282t-25.5 -282.5t-86.5 -207.5q-76 -118 -194 -180.5t-263 -62.5t-263 62.5t-194 180.5q-61 95 -86.5 207.5t-25.5 282.5zM256 715q0 -152 20.5 -245.5t69.5 -168.5 q116 -178 336 -178t336 178q50 76 71 169.5t21 244.5t-21 244t-71 169q-116 179 -336 179t-336 -179q-50 -75 -70 -168t-20 -245zM358 1692q0 43 31 73.5t74 30.5t73.5 -30.5t30.5 -73.5t-30.5 -74t-73.5 -31t-74 31t-31 74zM782 1692q0 43 31 73.5t74 30.5t73.5 -30.5 t30.5 -73.5t-30.5 -74t-73.5 -31t-74 31t-31 74z" />
<glyph unicode="&#xd7;" horiz-adv-x="890" d="M94 311l248 250l-248 248l103 102l247 -247l250 247l103 -102l-250 -248l250 -250l-103 -102l-250 250l-247 -250z" />
<glyph unicode="&#xd8;" horiz-adv-x="1323" d="M113 715q0 116 17.5 218.5t59.5 198.5t105.5 165t162.5 110t224 41q150 0 268 -62l25 44h155l-69 -125q190 -193 190 -590q0 -116 -17.5 -218.5t-59 -198.5t-105 -164.5t-163 -110t-224.5 -41.5q-178 0 -305 84l-37 -66h-156l88 160q-159 195 -159 555zM256 715 q0 -271 92 -418l533 965q-82 45 -199 45q-100 0 -177 -35t-123 -91t-75.5 -135.5t-40 -159t-10.5 -171.5zM446 190q96 -67 236 -67q100 0 177 35t123.5 91t76 135.5t40.5 159t11 171.5q0 305 -121 459z" />
<glyph unicode="&#xd9;" horiz-adv-x="1359" d="M164 618v812h141v-812q0 -229 68 -344q43 -71 123.5 -111t183.5 -40q104 0 185 40t122 111q68 115 68 344v812h141v-812q0 -271 -86 -415q-62 -105 -175 -162t-255 -59q-141 0 -254 58t-176 163q-86 144 -86 415zM512 1886h156l174 -299h-135z" />
<glyph unicode="&#xda;" horiz-adv-x="1359" d="M164 618v812h141v-812q0 -229 68 -344q43 -71 123.5 -111t183.5 -40q104 0 185 40t122 111q68 115 68 344v812h141v-812q0 -271 -86 -415q-62 -105 -175 -162t-255 -59q-141 0 -254 58t-176 163q-86 144 -86 415zM549 1587l174 299h156l-195 -299h-135z" />
<glyph unicode="&#xdb;" horiz-adv-x="1359" d="M164 618v812h141v-812q0 -229 68 -344q43 -71 123.5 -111t183.5 -40q104 0 185 40t122 111q68 115 68 344v812h141v-812q0 -271 -86 -415q-62 -105 -175 -162t-255 -59q-141 0 -254 58t-176 163q-86 144 -86 415zM371 1587l213 299h196l213 -299h-174l-137 213l-137 -213 h-174z" />
<glyph unicode="&#xdc;" horiz-adv-x="1359" d="M164 618v812h141v-812q0 -229 68 -344q43 -71 123.5 -111t183.5 -40q104 0 185 40t122 111q68 115 68 344v812h141v-812q0 -271 -86 -415q-62 -105 -175 -162t-255 -59q-141 0 -254 58t-176 163q-86 144 -86 415zM369 1692q0 43 30.5 73.5t73.5 30.5t72.5 -30.5 t29.5 -73.5h3q0 -43 -31 -74t-74 -31t-73.5 31t-30.5 74zM793 1692q0 43 30.5 73.5t73.5 30.5t73.5 -30.5t30.5 -73.5t-30.5 -74t-73.5 -31t-73.5 31t-30.5 74z" />
<glyph unicode="&#xdd;" horiz-adv-x="1222" d="M72 1430h157l383 -777l381 777h158l-469 -957v-473h-141v477zM465 1587l174 299h156l-195 -299h-135z" />
<glyph unicode="&#xde;" horiz-adv-x="1277" d="M184 0v1430h142v-293h385q197 4 309 -66q79 -51 122.5 -138t43.5 -196q0 -108 -43.5 -195t-122.5 -136q-108 -68 -309 -68h-385v-338h-142zM326 479h385q160 0 233 45q47 30 73.5 85.5t26.5 127.5t-27 128.5t-73 86.5q-77 45 -233 45h-385v-518z" />
<glyph unicode="&#xdf;" horiz-adv-x="1028" d="M43 856v135h90q0 80 9 144.5t33.5 124t63.5 99.5t102 63.5t146 23.5q119 0 204 -92t85 -211q0 -97 -80 -191q74 -29 123.5 -78t74 -114t33.5 -128t9 -143q0 -482 -430 -493v135q89 2 148.5 28t90 76.5t42.5 111t12 147.5q0 174 -49 254q-34 53 -96.5 79.5t-133.5 28.5 h-16v137q63 0 99 43.5t36 106.5q0 64 -45 117t-107 53q-56 0 -97 -18.5t-64 -46t-36 -72t-16.5 -84.5t-3.5 -95v-997h-137v856h-90z" />
<glyph unicode="&#xe0;" horiz-adv-x="999" d="M113 279q0 136 96.5 217.5t234.5 81.5h172q68 0 105 34v105q0 76 -63.5 114.5t-145.5 38.5q-191 0 -238 -153l-124 47q38 125 134 183.5t232 58.5q87 0 163.5 -32.5t126.5 -100t50 -156.5v-602q29 -89 31 -95l-131 -40l-25 81q-119 -81 -287 -81q-86 0 -161 36.5 t-122.5 106t-47.5 156.5zM250 279q0 -73 59.5 -119.5t134.5 -46.5q86 0 151.5 22t125.5 76v262q-34 -22 -92 -22h-187q-74 0 -133 -48.5t-59 -123.5zM307 1415h156l174 -299h-135z" />
<glyph unicode="&#xe1;" horiz-adv-x="999" d="M113 279q0 136 96.5 217.5t234.5 81.5h172q68 0 105 34v105q0 76 -63.5 114.5t-145.5 38.5q-191 0 -238 -153l-124 47q38 125 134 183.5t232 58.5q87 0 163.5 -32.5t126.5 -100t50 -156.5v-602q29 -89 31 -95l-131 -40l-25 81q-119 -81 -287 -81q-86 0 -161 36.5 t-122.5 106t-47.5 156.5zM250 279q0 -73 59.5 -119.5t134.5 -46.5q86 0 151.5 22t125.5 76v262q-34 -22 -92 -22h-187q-74 0 -133 -48.5t-59 -123.5zM365 1116l174 299h155l-194 -299h-135z" />
<glyph unicode="&#xe2;" horiz-adv-x="999" d="M113 279q0 136 96.5 217.5t234.5 81.5h172q68 0 105 34v105q0 76 -63.5 114.5t-145.5 38.5q-191 0 -238 -153l-124 47q38 125 134 183.5t232 58.5q87 0 163.5 -32.5t126.5 -100t50 -156.5v-602q29 -89 31 -95l-131 -40l-25 81q-119 -81 -287 -81q-86 0 -161 36.5 t-122.5 106t-47.5 156.5zM221 1092l195 299h194l193 -299h-154l-137 213l-137 -213h-154zM250 279q0 -73 59.5 -119.5t134.5 -46.5q86 0 151.5 22t125.5 76v262q-34 -22 -92 -22h-187q-74 0 -133 -48.5t-59 -123.5z" />
<glyph unicode="&#xe3;" horiz-adv-x="999" d="M113 279q0 136 96.5 217.5t234.5 81.5h172q68 0 105 34v105q0 76 -63.5 114.5t-145.5 38.5q-191 0 -238 -153l-124 47q38 125 134 183.5t232 58.5q87 0 163.5 -32.5t126.5 -100t50 -156.5v-602q29 -89 31 -95l-131 -40l-25 81q-119 -81 -287 -81q-86 0 -161 36.5 t-122.5 106t-47.5 156.5zM184 1202q43 56 88.5 87.5t104.5 31.5q60 0 155.5 -44t135.5 -44q14 0 25 3t21.5 12t15 14.5t16 20.5t14.5 20l100 -82q-45 -60 -86.5 -89.5t-103.5 -29.5q-59 0 -159 44t-136 44q-13 0 -24 -3.5t-21.5 -12.5t-15 -14t-15.5 -21t-14 -19zM250 279 q0 -73 59.5 -119.5t134.5 -46.5q86 0 151.5 22t125.5 76v262q-34 -22 -92 -22h-187q-74 0 -133 -48.5t-59 -123.5z" />
<glyph unicode="&#xe4;" horiz-adv-x="999" d="M113 279q0 136 96.5 217.5t234.5 81.5h172q68 0 105 34v105q0 76 -63.5 114.5t-145.5 38.5q-191 0 -238 -153l-124 47q38 125 134 183.5t232 58.5q87 0 163.5 -32.5t126.5 -100t50 -156.5v-602q29 -89 31 -95l-131 -40l-25 81q-119 -81 -287 -81q-86 0 -161 36.5 t-122.5 106t-47.5 156.5zM203 1214q0 43 30 74t72 31q43 0 74 -31t31 -74t-31 -73.5t-74 -30.5t-72.5 30.5t-29.5 73.5zM250 279q0 -73 59.5 -119.5t134.5 -46.5q86 0 151.5 22t125.5 76v262q-34 -22 -92 -22h-187q-74 0 -133 -48.5t-59 -123.5zM627 1214q0 43 30 74t74 31 q43 0 73 -31t30 -74t-30 -73.5t-73 -30.5q-44 0 -74 30.5t-30 73.5z" />
<glyph unicode="&#xe5;" horiz-adv-x="999" d="M113 279q0 136 96.5 217.5t234.5 81.5h172q68 0 105 34v105q0 76 -63.5 114.5t-145.5 38.5q-191 0 -238 -153l-124 47q38 125 134 183.5t232 58.5q87 0 163.5 -32.5t126.5 -100t50 -156.5v-602q29 -89 31 -95l-131 -40l-25 81q-119 -81 -287 -81q-86 0 -161 36.5 t-122.5 106t-47.5 156.5zM250 279q0 -73 59.5 -119.5t134.5 -46.5q86 0 151.5 22t125.5 76v262q-34 -22 -92 -22h-187q-74 0 -133 -48.5t-59 -123.5zM287 1329q0 99 69.5 168.5t169.5 69.5q98 0 168 -70t70 -168t-70 -168.5t-168 -70.5q-99 0 -169 70t-70 169zM408 1329 q0 -49 34 -83t84 -34q48 0 82.5 34t34.5 83q0 47 -35 82t-82 35q-49 0 -83.5 -34.5t-34.5 -82.5z" />
<glyph unicode="&#xe6;" horiz-adv-x="1611" d="M92 279q0 126 101 215.5t241 89.5h168q64 0 109 45l2 10l-6 90q-3 58 -58 98.5t-137 40.5q-85 2 -158.5 -40.5t-99.5 -127.5l-133 39q28 90 94 152t141 87.5t156 25.5q93 0 170.5 -38.5t120.5 -105.5q116 144 330 144q212 0 327 -175q31 -47 46 -117.5t14.5 -133.5 t-0.5 -127h-678q4 -148 53 -222q34 -53 102 -83.5t154 -30.5q169 0 258 114l109 -82q-128 -165 -367 -165q-108 -1 -199.5 36.5t-150.5 106.5q-160 -145 -367 -145q-140 0 -241 87.5t-101 211.5zM229 279q0 -67 59 -115.5t146 -48.5q170 0 299 135q-28 85 -28 217 q-46 -16 -103 -16h-168q-86 0 -145.5 -52t-59.5 -120zM846 584h536q-8 124 -39 172q-70 112 -210 112q-164 3 -238 -112q-42 -61 -49 -172z" />
<glyph unicode="&#xe7;" horiz-adv-x="974" d="M92 492q0 107 27.5 198.5t81.5 161.5t140 109.5t196 39.5q113 0 186.5 -38t155.5 -129l-97 -91q-62 68 -114 98.5t-131 30.5q-84 0 -144 -30.5t-93.5 -85t-48.5 -119.5t-15 -145q0 -79 15 -144t48.5 -120t94 -86t143.5 -31q79 0 131 30.5t114 98.5l97 -90 q-69 -75 -129.5 -113.5t-139.5 -48.5l64 -138l-142 -251h-172l179 262l-58 125q-128 13 -217.5 85t-130.5 179.5t-41 241.5z" />
<glyph unicode="&#xe8;" horiz-adv-x="1032" d="M113 489q0 85 14.5 160t47 141.5t81 114.5t120.5 75.5t161 27.5q80 0 145 -25.5t109.5 -69t74.5 -103.5t43.5 -128.5t12.5 -144.5l-2 -88h-670q3 -158 77 -246t228 -88q75 0 143.5 29t112.5 85l92 -92q-120 -155 -348 -155q-116 0 -202.5 37.5t-138 106.5t-76.5 159.5 t-25 203.5zM254 582h530q-7 131 -66 211.5t-181 80.5q-130 0 -201 -78.5t-82 -213.5zM328 1415h155l174 -299h-135z" />
<glyph unicode="&#xe9;" horiz-adv-x="1032" d="M113 489q0 85 14.5 160t47 141.5t81 114.5t120.5 75.5t161 27.5q80 0 145 -25.5t109.5 -69t74.5 -103.5t43.5 -128.5t12.5 -144.5l-2 -88h-670q3 -158 77 -246t228 -88q75 0 143.5 29t112.5 85l92 -92q-120 -155 -348 -155q-116 0 -202.5 37.5t-138 106.5t-76.5 159.5 t-25 203.5zM254 582h530q-7 131 -66 211.5t-181 80.5q-130 0 -201 -78.5t-82 -213.5zM440 1116l174 299h156l-195 -299h-135z" />
<glyph unicode="&#xea;" horiz-adv-x="1032" d="M113 489q0 85 14.5 160t47 141.5t81 114.5t120.5 75.5t161 27.5q80 0 145 -25.5t109.5 -69t74.5 -103.5t43.5 -128.5t12.5 -144.5l-2 -88h-670q3 -158 77 -246t228 -88q75 0 143.5 29t112.5 85l92 -92q-120 -155 -348 -155q-116 0 -202.5 37.5t-138 106.5t-76.5 159.5 t-25 203.5zM240 1092l194 299h195l192 -299h-153l-138 213l-137 -213h-153zM254 582h530q-7 131 -66 211.5t-181 80.5q-130 0 -201 -78.5t-82 -213.5z" />
<glyph unicode="&#xeb;" horiz-adv-x="1032" d="M113 489q0 85 14.5 160t47 141.5t81 114.5t120.5 75.5t161 27.5q80 0 145 -25.5t109.5 -69t74.5 -103.5t43.5 -128.5t12.5 -144.5l-2 -88h-670q3 -158 77 -246t228 -88q75 0 143.5 29t112.5 85l92 -92q-120 -155 -348 -155q-116 0 -202.5 37.5t-138 106.5t-76.5 159.5 t-25 203.5zM219 1214q0 43 31 74t74 31t73.5 -31t30.5 -74t-30.5 -73.5t-73.5 -30.5t-74 30.5t-31 73.5zM254 582h530q-7 131 -66 211.5t-181 80.5q-130 0 -201 -78.5t-82 -213.5zM625 1214q0 43 30 74t74 31q42 0 72 -31t30 -74t-29.5 -73.5t-72.5 -30.5q-44 0 -74 30.5 t-30 73.5z" />
<glyph unicode="&#xec;" horiz-adv-x="475" d="M29 1415h155l174 -299h-135zM168 0v991h139v-991h-139z" />
<glyph unicode="&#xed;" horiz-adv-x="475" d="M127 1116l174 299h156l-195 -299h-135zM168 0v991h139v-991h-139z" />
<glyph unicode="&#xee;" horiz-adv-x="475" d="M-51 1092l194 299h195l192 -299h-153l-137 213l-138 -213h-153zM168 0v991h139v-991h-139z" />
<glyph unicode="&#xef;" horiz-adv-x="475" d="M-59 1214q0 43 30 74t72 31q43 0 73.5 -31t30.5 -74t-30.5 -73.5t-73.5 -30.5t-72.5 30.5t-29.5 73.5zM168 0v991h139v-991h-139zM324 1214q0 43 30 74t74 31q42 0 72 -31t30 -74t-29.5 -73.5t-72.5 -30.5q-44 0 -74 30.5t-30 73.5z" />
<glyph unicode="&#xf0;" d="M113 494q0 218 69 333q51 85 143.5 132t206.5 47q68 0 136 -19l-72 162h-248v129h191l-113 258h141l113 -258h182v-129h-125l105 -223l49 -88q59 -114 59 -344q0 -220 -69 -334q-51 -86 -142.5 -132t-206.5 -46q-114 -1 -206.5 46t-143.5 132q-69 114 -69 334zM250 494 q0 -181 49 -265q32 -53 92.5 -82.5t138.5 -29.5q79 0 140.5 29.5t93.5 82.5q49 84 49 265q0 180 -49 262q-32 54 -93 83t-141 29q-78 1 -138.5 -28.5t-92.5 -83.5q-49 -82 -49 -262z" />
<glyph unicode="&#xf1;" horiz-adv-x="1030" d="M133 0v991h137v-94q44 52 111 81.5t137 29.5q400 0 400 -422v-586h-136v575q0 153 -57.5 225t-206.5 72q-108 0 -178 -75.5t-70 -184.5v-612h-137zM195 1202q44 56 88.5 87.5t103.5 31.5q60 0 155.5 -44t135.5 -44q14 0 25 3t21.5 12t15 14.5t16 20.5t14.5 20l100 -82 q-45 -60 -86.5 -89.5t-103.5 -29.5q-59 0 -159 44t-136 44q-13 0 -24 -3.5t-21.5 -12.5t-15 -14t-15.5 -21t-14 -19z" />
<glyph unicode="&#xf2;" d="M113 494q0 88 12.5 162.5t43 140.5t78 112t120 72.5t165.5 26.5t165.5 -26.5t119.5 -72.5t77.5 -112t43 -139.5t12.5 -161.5q0 -510 -418 -510q-93 0 -165.5 26t-120 71.5t-78 111t-43 138.5t-12.5 161zM250 494q0 -66 6 -117t23.5 -101.5t48 -83t81.5 -53t121 -20.5 t121.5 20.5t82 53t49 83t24.5 101.5t6 117q0 67 -6 118t-24 102t-48.5 84t-82.5 53.5t-122 20.5t-121 -20.5t-81.5 -53.5t-48 -84t-23.5 -102t-6 -118zM322 1415h155l174 -299h-135z" />
<glyph unicode="&#xf3;" d="M113 494q0 88 12.5 162.5t43 140.5t78 112t120 72.5t165.5 26.5t165.5 -26.5t119.5 -72.5t77.5 -112t43 -139.5t12.5 -161.5q0 -510 -418 -510q-93 0 -165.5 26t-120 71.5t-78 111t-43 138.5t-12.5 161zM250 494q0 -66 6 -117t23.5 -101.5t48 -83t81.5 -53t121 -20.5 t121.5 20.5t82 53t49 83t24.5 101.5t6 117q0 67 -6 118t-24 102t-48.5 84t-82.5 53.5t-122 20.5t-121 -20.5t-81.5 -53.5t-48 -84t-23.5 -102t-6 -118zM438 1116l174 299h156l-195 -299h-135z" />
<glyph unicode="&#xf4;" d="M113 494q0 88 12.5 162.5t43 140.5t78 112t120 72.5t165.5 26.5t165.5 -26.5t119.5 -72.5t77.5 -112t43 -139.5t12.5 -161.5q0 -510 -418 -510q-93 0 -165.5 26t-120 71.5t-78 111t-43 138.5t-12.5 161zM231 1092l195 299h195l192 -299h-154l-137 213l-137 -213h-154z M250 494q0 -66 6 -117t23.5 -101.5t48 -83t81.5 -53t121 -20.5t121.5 20.5t82 53t49 83t24.5 101.5t6 117q0 67 -6 118t-24 102t-48.5 84t-82.5 53.5t-122 20.5t-121 -20.5t-81.5 -53.5t-48 -84t-23.5 -102t-6 -118z" />
<glyph unicode="&#xf5;" d="M113 494q0 88 12.5 162.5t43 140.5t78 112t120 72.5t165.5 26.5t165.5 -26.5t119.5 -72.5t77.5 -112t43 -139.5t12.5 -161.5q0 -510 -418 -510q-93 0 -165.5 26t-120 71.5t-78 111t-43 138.5t-12.5 161zM199 1202q44 56 88.5 87.5t103.5 31.5q60 0 155.5 -44t135.5 -44 q14 0 25 3t21.5 12t15 14.5t16 20.5t14.5 20l100 -82q-45 -60 -86.5 -89.5t-103.5 -29.5q-59 0 -159 44t-136 44q-13 0 -24 -3.5t-21.5 -12.5t-15 -14t-15.5 -21t-14 -19zM250 494q0 -66 6 -117t23.5 -101.5t48 -83t81.5 -53t121 -20.5t121.5 20.5t82 53t49 83t24.5 101.5 t6 117q0 67 -6 118t-24 102t-48.5 84t-82.5 53.5t-122 20.5t-121 -20.5t-81.5 -53.5t-48 -84t-23.5 -102t-6 -118z" />
<glyph unicode="&#xf6;" d="M113 494q0 88 12.5 162.5t43 140.5t78 112t120 72.5t165.5 26.5t165.5 -26.5t119.5 -72.5t77.5 -112t43 -139.5t12.5 -161.5q0 -510 -418 -510q-93 0 -165.5 26t-120 71.5t-78 111t-43 138.5t-12.5 161zM229 1214q0 43 31 74t74 31t73.5 -31t30.5 -74t-30.5 -73.5 t-73.5 -30.5t-74 30.5t-31 73.5zM250 494q0 -66 6 -117t23.5 -101.5t48 -83t81.5 -53t121 -20.5t121.5 20.5t82 53t49 83t24.5 101.5t6 117q0 67 -6 118t-24 102t-48.5 84t-82.5 53.5t-122 20.5t-121 -20.5t-81.5 -53.5t-48 -84t-23.5 -102t-6 -118zM635 1214q0 43 30 74 t74 31q43 0 73 -31t30 -74t-30 -73.5t-73 -30.5q-44 0 -74 30.5t-30 73.5z" />
<glyph unicode="&#xf7;" horiz-adv-x="1052" d="M113 498v125h827v-125h-827zM424 244q0 40 28.5 69t69.5 29t70 -29t29 -69q0 -41 -29 -71t-70 -30t-69.5 29.5t-28.5 71.5zM424 879q0 41 28.5 70.5t69.5 29.5t70 -29.5t29 -70.5q0 -40 -29 -69.5t-70 -29.5t-69.5 29.5t-28.5 69.5z" />
<glyph unicode="&#xf8;" horiz-adv-x="1021" d="M92 487q0 213 70 328q51 84 143 130t207 46q98 0 182 -35l23 41h145l-61 -110q77 -71 103 -171t26 -229q0 -216 -70 -329q-51 -84 -142 -130t-206 -46q-99 -3 -188 36l-19 -36h-145l59 106q-75 71 -101 171t-26 228zM229 485q0 -188 58 -270l342 623q-58 20 -119 20 q-77 0 -137.5 -30t-93.5 -83q-50 -81 -50 -260zM389 137q55 -22 121 -22q164 0 233 112q50 84 50 258q0 179 -50 260q-2 3 -6 8.5t-6 8.5z" />
<glyph unicode="&#xf9;" horiz-adv-x="1081" d="M143 424v567h138v-567q0 -157 57.5 -232t206.5 -75q101 0 174.5 60.5t73.5 160.5v653h135v-991h-135v74q-104 -90 -248 -90q-209 0 -305.5 105.5t-96.5 334.5zM309 1415h156l174 -299h-135z" />
<glyph unicode="&#xfa;" horiz-adv-x="1081" d="M143 424v567h138v-567q0 -157 57.5 -232t206.5 -75q101 0 174.5 60.5t73.5 160.5v653h135v-991h-135v74q-104 -90 -248 -90q-209 0 -305.5 105.5t-96.5 334.5zM438 1116l174 299h156l-195 -299h-135z" />
<glyph unicode="&#xfb;" horiz-adv-x="1081" d="M143 424v567h138v-567q0 -157 57.5 -232t206.5 -75q101 0 174.5 60.5t73.5 160.5v653h135v-991h-135v74q-104 -90 -248 -90q-209 0 -305.5 105.5t-96.5 334.5zM238 1092l194 299h195l194 -299h-155l-138 213l-137 -213h-153z" />
<glyph unicode="&#xfc;" horiz-adv-x="1081" d="M143 424v567h138v-567q0 -157 57.5 -232t206.5 -75q101 0 174.5 60.5t73.5 160.5v653h135v-991h-135v74q-104 -90 -248 -90q-209 0 -305.5 105.5t-96.5 334.5zM229 1214q0 43 31 74t74 31t73.5 -31t30.5 -74t-30.5 -73.5t-73.5 -30.5t-74 30.5t-31 73.5zM635 1214 q0 43 30 74t74 31q43 0 73 -31t30 -74t-30 -73.5t-73 -30.5q-44 0 -74 30.5t-30 73.5z" />
<glyph unicode="&#xfd;" horiz-adv-x="897" d="M12 991h146l288 -796l293 796h146l-457 -1235q-32 -86 -86 -135q-78 -72 -192 -72h-60l2 138q29 0 54.5 -1.5t53 7t48.5 28.5q27 21 51 84l74 195zM299 1116l174 299h156l-195 -299h-135z" />
<glyph unicode="&#xfe;" horiz-adv-x="1040" d="M174 -451v1881h137v-510q101 81 248 81q109 0 197 -47.5t137 -134.5q65 -112 65 -332q4 -211 -65 -333q-49 -87 -137 -135t-197 -48q-146 0 -248 82v-504h-137zM311 336q7 -70 31 -115q64 -112 217 -112q73 0 129.5 29.5t85.5 82.5q49 84 49 264q0 181 -49 267 q-29 53 -85.5 82.5t-129.5 29.5q-153 0 -217 -112q-24 -44 -31 -117v-299z" />
<glyph unicode="&#xff;" horiz-adv-x="997" d="M61 991h146l289 -796l292 796h148l-459 -1235q-78 -210 -278 -207h-60l2 138l41 -2q69 0 105 26.5t61 93.5l74 195zM190 1214q0 43 31 74t74 31t73.5 -31t30.5 -74t-30.5 -73.5t-73.5 -30.5t-74 30.5t-31 73.5zM594 1214q0 43 30.5 74t73.5 31t74 -31t31 -74t-31 -73.5 t-74 -30.5t-73.5 30.5t-30.5 73.5z" />
<glyph unicode="&#x152;" horiz-adv-x="2060" d="M92 715q0 170 26.5 283t88.5 206q76 118 195 181t264 63q132 0 242.5 -52.5t187.5 -150.5v185h872v-140h-729v-475h631v-141h-631v-535h729v-139h-870v186q-78 -100 -189 -152t-243 -52q-145 0 -264 62.5t-195 180.5q-63 95 -89 207.5t-26 282.5zM236 715 q0 -153 20.5 -246t71.5 -168q116 -178 338 -178q221 0 340 178q49 75 69.5 168.5t20.5 245.5t-20 245t-70 168q-119 179 -340 179q-222 0 -338 -179q-51 -75 -71.5 -167.5t-20.5 -245.5z" />
<glyph unicode="&#x153;" horiz-adv-x="1712" d="M92 492q0 220 70 335q53 83 146.5 130t207.5 47q112 0 207.5 -46.5t148.5 -136.5q57 91 151 137t208 46q212 0 330 -175q12 -19 21.5 -42.5t15.5 -42t10.5 -50.5t7 -47t3.5 -53t1 -47.5v-51.5v-44h-680q8 -154 53 -222q36 -53 103.5 -83.5t152.5 -30.5q171 0 260 114 l109 -82q-131 -165 -367 -165q-119 -2 -220.5 43.5t-158.5 138.5q-53 -90 -148.5 -136t-207.5 -46q-114 -2 -208 44.5t-146 131.5q-70 113 -70 334zM229 492q0 -182 52 -265q33 -53 93.5 -82.5t141.5 -29.5q79 0 141 29.5t93 82.5q51 82 51 265q0 187 -51 266 q-31 52 -92.5 81t-141.5 29q-81 1 -141.5 -28t-93.5 -82q-48 -80 -52 -266zM944 584h537q-4 121 -37 172q-73 112 -213 112q-164 3 -238 -112q-37 -54 -49 -172z" />
<glyph unicode="&#x178;" horiz-adv-x="1222" d="M72 1430h157l383 -777l381 777h158l-469 -957v-473h-141v477zM299 1692q0 43 30.5 73.5t73.5 30.5t74 -30.5t31 -73.5t-31 -74t-74 -31t-73.5 31t-30.5 74zM723 1692q0 43 30.5 73.5t73.5 30.5t74 -30.5t31 -73.5t-31 -74t-74 -31t-73.5 31t-30.5 74z" />
<glyph unicode="&#x2c6;" horiz-adv-x="956" d="M186 1092l195 299h194l193 -299h-154l-137 213l-137 -213h-154z" />
<glyph unicode="&#x2dc;" horiz-adv-x="1013" d="M164 1202q44 56 88.5 87.5t103.5 31.5q60 0 155.5 -44t135.5 -44q14 0 25 3t21.5 12t15 14.5t16 20.5t14.5 20l101 -82q-45 -59 -87 -89t-104 -30q-59 0 -159 44t-136 44q-13 0 -24 -3.5t-21.5 -12.5t-15 -14t-15.5 -21t-14 -19z" />
<glyph unicode="&#x2000;" horiz-adv-x="1001" />
<glyph unicode="&#x2001;" horiz-adv-x="2003" />
<glyph unicode="&#x2002;" horiz-adv-x="1001" />
<glyph unicode="&#x2003;" horiz-adv-x="2003" />
<glyph unicode="&#x2004;" horiz-adv-x="667" />
<glyph unicode="&#x2005;" horiz-adv-x="500" />
<glyph unicode="&#x2006;" horiz-adv-x="333" />
<glyph unicode="&#x2007;" horiz-adv-x="333" />
<glyph unicode="&#x2008;" horiz-adv-x="250" />
<glyph unicode="&#x2009;" horiz-adv-x="400" />
<glyph unicode="&#x200a;" horiz-adv-x="111" />
<glyph unicode="&#x2010;" horiz-adv-x="813" d="M133 498v125h547v-125h-547z" />
<glyph unicode="&#x2011;" horiz-adv-x="813" d="M133 498v125h547v-125h-547z" />
<glyph unicode="&#x2012;" horiz-adv-x="813" d="M133 498v125h547v-125h-547z" />
<glyph unicode="&#x2013;" horiz-adv-x="1052" d="M113 498v125h827v-125h-827z" />
<glyph unicode="&#x2014;" horiz-adv-x="1662" d="M113 498v125h1437v-125h-1437z" />
<glyph unicode="&#x2018;" horiz-adv-x="485" d="M143 1176l15 116l159 248h25l-14 -364q-2 -37 -28 -63t-64 -26q-39 0 -68 27t-25 62z" />
<glyph unicode="&#x2019;" horiz-adv-x="485" d="M143 1087l15 365q2 37 28 62.5t64 25.5q39 0 67.5 -26t24.5 -62l-14 -117l-160 -248h-25z" />
<glyph unicode="&#x201a;" horiz-adv-x="485" d="M143 -248l15 365q2 37 28 62.5t64 25.5q39 0 67.5 -26t24.5 -62l-14 -117l-160 -248h-25z" />
<glyph unicode="&#x201c;" horiz-adv-x="784" d="M143 1176l15 116l159 248h25l-14 -364q-2 -37 -28 -63t-64 -26q-39 0 -68 27t-25 62zM442 1176l15 116l159 248h25l-14 -364q-2 -37 -28 -63t-64 -26q-39 0 -68 27t-25 62z" />
<glyph unicode="&#x201d;" horiz-adv-x="784" d="M143 1087l15 365q2 37 28 62.5t64 25.5q39 0 67.5 -26t24.5 -62l-14 -117l-160 -248h-25zM442 1087l15 365q2 37 27.5 62.5t62.5 25.5q39 0 67.5 -26t24.5 -62l-14 -117l-158 -248h-25z" />
<glyph unicode="&#x201e;" horiz-adv-x="784" d="M143 -248l15 365q2 37 28 62.5t64 25.5q39 0 67.5 -26t24.5 -62l-14 -117l-160 -248h-25zM442 -248l15 365q2 37 27.5 62.5t62.5 25.5q39 0 67.5 -26t24.5 -62l-14 -117l-158 -248h-25z" />
<glyph unicode="&#x2022;" horiz-adv-x="899" d="M133 692q0 132 93 225t225 93q131 0 223 -93t92 -225q0 -131 -92.5 -224t-222.5 -93q-132 0 -225 93t-93 224z" />
<glyph unicode="&#x2026;" horiz-adv-x="1411" d="M154 92q0 44 32 76.5t76 32.5q46 0 78.5 -32.5t32.5 -76.5q0 -45 -32.5 -76.5t-78.5 -31.5q-45 0 -76.5 31.5t-31.5 76.5zM596 92q0 44 32.5 76.5t78.5 32.5q44 0 76 -32.5t32 -76.5q0 -45 -31.5 -76.5t-76.5 -31.5q-46 0 -78.5 31.5t-32.5 76.5zM1040 92q0 45 32 77 t77 32q44 0 76 -32.5t32 -76.5q0 -45 -31.5 -76.5t-76.5 -31.5q-46 0 -77.5 31t-31.5 77z" />
<glyph unicode="&#x202f;" horiz-adv-x="400" />
<glyph unicode="&#x2039;" horiz-adv-x="643" d="M92 473v111l436 417l2 -186l-301 -287l301 -286v-189z" />
<glyph unicode="&#x203a;" horiz-adv-x="643" d="M113 53v189l299 286l-299 287v186l438 -417v-111z" />
<glyph unicode="&#x205f;" horiz-adv-x="500" />
<glyph unicode="&#x20ac;" horiz-adv-x="1292" d="M68 479l28 127h113q-4 99 -2 152h-139l28 127h117q26 250 176.5 406.5t396.5 156.5q116 0 203 -31t168 -106l-74 -125q-69 66 -135.5 93.5t-161.5 27.5q-186 0 -295.5 -116t-132.5 -306h527l-29 -127h-506v-58q0 -36 4 -94h531l-29 -127h-485q36 -163 144.5 -259.5 t270.5 -96.5q95 0 162.5 27.5t136.5 93.5l80 -125q-80 -74 -172 -105.5t-207 -31.5q-223 0 -372.5 137t-190.5 360h-155z" />
<glyph unicode="&#x2122;" horiz-adv-x="989" d="M82 1372v58h338v-58h-139v-371h-60v371h-139zM461 1001v429h59l144 -357l141 357h61v-429h-59v287l-115 -287h-59l-115 287v-287h-57z" />
<glyph unicode="&#x25fc;" horiz-adv-x="993" d="M0 0v993h993v-993h-993z" />
<glyph unicode="&#xfb01;" horiz-adv-x="974" d="M92 856v135h96v23q0 175 60 270q93 146 313 146v-136q-73 0 -121 -19t-72.5 -58t-34 -86.5t-9.5 -116.5v-21h483v-993h-135v856h-348v-856h-136v856h-96zM653 1356q0 40 27.5 67t67.5 27q39 0 66.5 -27.5t27.5 -66.5q0 -38 -28 -66t-66 -28q-40 0 -67.5 28t-27.5 66z" />
<glyph unicode="&#xfb02;" horiz-adv-x="1021" d="M92 856v135h94v23q0 175 62 270q46 70 122 108t171 38h272v-1188q0 -68 25 -88q22 -19 69 -19l2 -135q-139 0 -196 88q-37 57 -37 154v1052h-135q-127 0 -179 -84q-38 -55 -38 -196v-23h208v-135h-208v-856h-138v856h-94z" />
</font>
</defs>
</svg>
