<?xml version="1.0" standalone="no"?>
<!DOCTYPE svg PUBLIC "-//W3C//DTD SVG 1.1//EN" "http://www.w3.org/Graphics/SVG/1.1/DTD/svg11.dtd" >
<svg xmlns="http://www.w3.org/2000/svg">
<metadata></metadata>
<defs>
<font id="newclearera_ot_regularregular" horiz-adv-x="1122" >
<font-face units-per-em="2048" ascent="1536" descent="-512" />
<missing-glyph horiz-adv-x="487" />
<glyph horiz-adv-x="2048" />
<glyph horiz-adv-x="2048" />
<glyph unicode="&#xd;" horiz-adv-x="2048" />
<glyph unicode=" "  horiz-adv-x="487" />
<glyph unicode="&#x09;" horiz-adv-x="487" />
<glyph unicode="&#xa0;" horiz-adv-x="487" />
<glyph unicode="!" horiz-adv-x="550" d="M154 96q0 50 35.5 85.5t84.5 35.5q51 0 87 -35.5t36 -85.5q0 -51 -36 -87t-87 -36q-50 0 -85 36t-35 87zM166 1303h219l-74 -947h-71z" />
<glyph unicode="&#x22;" horiz-adv-x="782" d="M190 1425h134l-39 -475h-56zM457 1425h133l-39 -475h-55z" />
<glyph unicode="#" horiz-adv-x="1069" d="M90 625v73h217l39 199h-201v76h215l62 330h96l-63 -330h215l63 330h94l-61 -330h213v-76h-227l-37 -199h211v-73h-226l-63 -334h-96l63 334h-215l-61 -334h-97l62 334h-203zM403 698h215l37 199h-213z" />
<glyph unicode="$" d="M172 963q0 85 24 150.5t60.5 105t87 65t96.5 35.5t97 12v94h43v-94q16 -1 44.5 -4.5t105 -26.5t140.5 -59l-26 -250h-45v142q-14 10 -43.5 33.5t-42.5 32.5t-36.5 22t-46 18.5t-50.5 7.5v-493q6 -3 17 -9.5t17 -9.5q51 -28 81.5 -47t75.5 -50t72 -59.5t54.5 -66t40 -80.5 t12.5 -92q0 -74 -21 -134.5t-56.5 -101t-84 -69.5t-100 -43t-108.5 -17v-217h-43v217q-8 0 -22.5 1t-58 7.5t-85 17t-97 32.5t-100.5 51l27 256h45v-156q18 -12 52 -36t49.5 -33.5t43.5 -22.5t58 -17.5t69 -4.5q13 0 19 2v489q-3 2 -10 6.5t-13.5 8t-11.5 6.5 q-37 21 -54.5 31t-52 31.5t-52 34.5t-45.5 35.5t-42.5 40t-33.5 43t-28 49.5t-15.5 54t-6.5 62zM326 1020q0 -41 15 -76t48 -64.5t64.5 -51t83.5 -50.5v469q-82 -9 -146.5 -67.5t-64.5 -159.5zM580 74q211 27 211 200q0 78 -55 139.5t-156 123.5v-463z" />
<glyph unicode="%" horiz-adv-x="1513" d="M82 1026q0 125 85 212t206 87q122 0 207.5 -87.5t85.5 -211.5q0 -123 -86 -210t-207 -87t-206 87t-85 210zM168 1028q0 -88 60 -151.5t145 -63.5t145 63.5t60 151.5q0 87 -60.5 150t-144.5 63t-144.5 -63t-60.5 -150zM174 0l1059 1303h104l-1056 -1303h-107zM850 272 q0 123 85.5 210t205.5 87q121 0 207 -87t86 -210q0 -124 -85.5 -211.5t-207.5 -87.5q-120 0 -205.5 87.5t-85.5 211.5zM936 272q0 -88 60 -151.5t145 -63.5t145 63.5t60 151.5q0 87 -60.5 150t-144.5 63t-144.5 -63t-60.5 -150z" />
<glyph unicode="&#x26;" horiz-adv-x="1542" d="M121 299q0 148 82 265t278 253q-32 40 -52.5 98t-20.5 115q0 64 19 113.5t50.5 81t77 51t94 27.5t105.5 8q139 0 219 -41v-172h-39l-33 141q-26 5 -56.5 8t-47.5 3l-17 1q-108 0 -165.5 -62t-57.5 -147q0 -38 21.5 -88t58.5 -96q36 -46 95 -117t137.5 -166t123.5 -149 q167 269 213 352l-207 33v45h484v-45l-207 -33q-102 -155 -252 -389q209 -251 221 -270q16 -19 24 -27t24.5 -15t39.5 -7q62 0 142 53l28 -43q-39 -45 -71 -66q-62 -41 -136 -41q-44 0 -76.5 9t-44 15.5t-33 29t-24.5 24.5q-4 4 -27 31.5t-65.5 77.5t-83.5 98 q-98 -145 -220 -215t-245 -70q-150 0 -253 91.5t-103 234.5zM297 344q0 -119 76.5 -196.5t189.5 -77.5q89 0 179.5 55t168.5 170q-210 247 -374 455q-123 -99 -181.5 -204t-58.5 -202z" />
<glyph unicode="'" horiz-adv-x="514" d="M190 1425h134l-39 -475h-56z" />
<glyph unicode="(" horiz-adv-x="688" d="M102 457q0 274 106.5 508t360.5 460h39q-79 -92 -124.5 -150.5t-90 -131t-66 -132t-39 -145t-23 -180.5t-5.5 -229t5.5 -229t23 -180.5t39 -145t66 -132t90 -131t124.5 -151.5h-39q-254 228 -360.5 461.5t-106.5 507.5z" />
<glyph unicode=")" horiz-adv-x="688" d="M80 -512q79 93 124.5 151.5t90 131t66 132t39 145t23 180.5t5.5 229t-5.5 229t-23 180.5t-39 145t-66 132t-90 131t-124.5 150.5h39q254 -226 360.5 -460t106.5 -508t-106.5 -507.5t-360.5 -461.5h-39z" />
<glyph unicode="*" horiz-adv-x="806" d="M106 1157l9 45l176 -10l-96 149l34 29l129 -121l23 176h45l23 -176l129 121l34 -29l-96 -149l176 10l8 -45l-168 -53l140 -107l-23 -39l-162 70l39 -172l-43 -16l-80 157l-79 -157l-43 16l38 172l-161 -70l-23 41l139 107zM295 1128q0 -45 31.5 -76.5t76.5 -31.5t77 31.5 t32 76.5q0 44 -32.5 75.5t-76.5 31.5t-76 -31.5t-32 -75.5z" />
<glyph unicode="+" horiz-adv-x="1153" d="M125 403v91h407v403h91v-403h403v-91h-403v-403h-91v403h-407z" />
<glyph unicode="," horiz-adv-x="514" d="M135 106q0 51 36 86t87 35q50 0 85.5 -35t35.5 -86v-38q0 -47 -8 -90.5t-28.5 -91t-63.5 -84.5t-105 -54l-18 43l104 82v113h-10q-51 0 -83 34t-32 86z" />
<glyph unicode="-" horiz-adv-x="583" d="M78 424v90h428v-90h-428z" />
<glyph unicode="." horiz-adv-x="514" d="M135 96q0 51 36 86t87 35q50 0 85.5 -35t35.5 -86t-35.5 -86t-85.5 -35q-51 0 -87 35t-36 86z" />
<glyph unicode="/" horiz-adv-x="698" d="M51 -479l500 1782h96l-500 -1782h-96z" />
<glyph unicode="0" d="M96 451q0 128 62.5 237t169.5 172.5t233 63.5t233 -63.5t169.5 -172.5t62.5 -237q0 -129 -62.5 -238.5t-169.5 -173.5t-233 -64t-233 64t-169.5 173.5t-62.5 238.5zM197 451q0 -156 107 -268.5t257 -112.5t257.5 112.5t107.5 268.5q0 154 -107.5 266t-257.5 112 t-257 -112t-107 -266z" />
<glyph unicode="1" d="M274 0v45l207 33v743l-205 33v45h572v-45l-207 -33v-743l205 -33v-45h-572z" />
<glyph unicode="2" d="M195 0v51q119 88 274 223q258 224 258 426q0 143 -65 224.5t-175 81.5q-92 0 -221 -52l-33 -141h-38v170q84 36 166.5 56t123.5 22l41 2q191 0 274 -92.5t83 -268.5q0 -52 -16 -103.5t-40 -94t-63.5 -87.5t-74.5 -77.5t-85.5 -71.5t-84.5 -62t-82.5 -56t-69.5 -48h596 v-252h-45l-35 150h-688z" />
<glyph unicode="3" d="M143 -399l37 45q15 -13 43 -31t91 -42t120 -24q44 0 90 10t94.5 36t86.5 64.5t62 101t24 139.5q0 64 -17.5 117t-46 86.5t-62 58t-70.5 36.5t-65.5 17.5t-52.5 5.5q-37 0 -77.5 -11.5t-54 -18t-46.5 -23.5l-16 43q90 43 161 84t117.5 73.5t79 66t49.5 58t26 54t11 47.5 t2 45q0 42 -9.5 79.5t-30.5 72.5t-61.5 56t-95.5 21q-85 0 -213 -51l-32 -141h-39v170q76 36 154.5 56t118.5 22l40 2q164 0 244 -64t80 -223q0 -32 -7 -63t-18 -56.5t-29 -50.5t-34 -44t-39 -39.5t-39.5 -33t-39.5 -27.5t-34.5 -21.5t-29.5 -16.5t-19 -11q358 -56 358 -393 q0 -176 -129 -285.5t-368 -109.5q-154 0 -314 113z" />
<glyph unicode="4" d="M47 0v92l711 826h28v-816h207l37 150h45v-252h-289v-483h-157v483h-582zM166 102h463v539z" />
<glyph unicode="5" d="M102 -377l37 51l33 -22q113 -90 223 -90q161 0 259 113t98 296q0 173 -92.5 288.5t-247.5 115.5q-89 0 -164 -19v744h594l37 149h45v-252h-518v-557h3h3h3h3h3h7q234 0 360.5 -127t126.5 -358q0 -61 -13 -120.5t-48.5 -123.5t-89 -112.5t-142.5 -79.5t-202 -31 q-52 0 -94.5 9t-84 31.5t-66.5 40t-73 54.5z" />
<glyph unicode="6" d="M78 559q0 186 51.5 329.5t147 248t245.5 194.5q67 40 179 67t217 27h61v-49h-21q-168 0 -296 -71q-170 -91 -278 -263.5t-126 -398.5q51 62 107.5 102.5t114.5 57t99 21.5t95 5q189 0 273.5 -108.5t84.5 -308.5q0 -204 -139.5 -320.5t-366.5 -116.5q-95 0 -175 35 t-141.5 104t-96.5 183t-35 262zM256 559q0 -150 19.5 -254t58.5 -164.5t91 -87t124 -26.5q139 0 224 106.5t85 263.5q0 363 -266 363q-78 0 -175.5 -55t-160.5 -138v-8z" />
<glyph unicode="7" d="M172 -467q6 -2 14 -2q43 0 83 18t67.5 43.5t51.5 58t36.5 56t19.5 43.5l424 1020h-614l-37 -149h-45v276h897l-483 -1157q-44 -108 -133 -180t-215 -72q-35 0 -66 16v29z" />
<glyph unicode="8" d="M145 319q0 59 13 110.5t32 88.5t49.5 70t55 52.5t60.5 39t54 27t46 18.5q-51 33 -84 57t-72 59t-61.5 66t-38 71.5t-15.5 84.5q0 96 29 168t70.5 111t98.5 63t101 30.5t90 6.5q41 0 83.5 -7t92.5 -29t88 -56.5t63.5 -95t25.5 -138.5q0 -57 -21.5 -109.5t-51.5 -88.5 t-69.5 -68t-67.5 -48t-54 -28q71 -44 119.5 -80.5t97 -86t73.5 -108t25 -124.5q0 -78 -20 -141t-50.5 -103t-74 -69.5t-81.5 -44.5t-83 -23.5t-69 -10t-48 -1.5q-20 0 -46 2.5t-66.5 11t-78.5 22.5t-78 40t-69.5 60t-48.5 86t-19 115zM287 338q0 -74 20.5 -131t51 -89 t71 -52t74 -26.5t67.5 -6.5q32 0 65.5 8t71 29.5t66 54.5t47.5 88t19 125q0 23 -6.5 46t-15 42t-27 41t-32.5 37t-42.5 37.5t-45 35t-53 36t-53.5 34t-57 35.5q-58 -25 -100 -58t-65 -65t-36 -72.5t-16.5 -73t-3.5 -75.5zM313 1116q0 -37 17.5 -72.5t40 -62t68.5 -61 t76.5 -54t90.5 -55.5q64 28 105.5 63.5t60.5 78t25 78.5t6 85q0 65 -18.5 115.5t-45.5 78.5t-63 45.5t-66.5 23t-60.5 5.5q-28 0 -57.5 -7t-62.5 -26t-58 -47.5t-41.5 -77.5t-16.5 -110z" />
<glyph unicode="9" d="M111 489q0 120 52.5 218.5t156.5 158.5t241 60q209 0 330 -145t121 -439q0 -284 -90.5 -459t-307.5 -305q-65 -39 -179.5 -64.5t-221.5 -25.5h-78v51h29q90 0 175.5 18t139.5 48q309 165 348 608q-208 -104 -331 -104q-170 0 -277.5 96.5t-107.5 283.5zM287 504 q0 -161 82.5 -244.5t208.5 -83.5q58 0 129 26t122 56q5 67 5 84q0 150 -19.5 254t-58.5 164.5t-91 87t-124 26.5q-65 0 -115.5 -33t-79.5 -87.5t-44 -118t-15 -131.5z" />
<glyph unicode=":" horiz-adv-x="514" d="M135 96q0 51 35.5 86t85.5 35q51 0 87 -35t36 -86t-36 -86t-87 -35q-50 0 -85.5 35t-35.5 86zM135 803q0 49 35.5 85t85.5 36q51 0 87 -35.5t36 -85.5q0 -51 -36 -87t-87 -36q-50 0 -85.5 36t-35.5 87z" />
<glyph unicode=";" horiz-adv-x="514" d="M135 106q0 51 35.5 86t85.5 35q51 0 87 -35t36 -86v-38q-5 -264 -205 -320l-18 43l102 82v113h-8q-51 0 -83 34t-32 86zM135 803q0 49 35.5 85t85.5 36q51 0 87 -35.5t36 -85.5q0 -51 -36 -87t-87 -36q-50 0 -85.5 36t-35.5 87z" />
<glyph unicode="&#x3c;" horiz-adv-x="1050" d="M61 449v59l885 461l43 -80l-788 -412l788 -411l-43 -80z" />
<glyph unicode="=" horiz-adv-x="1153" d="M78 233v91h997v-91h-997zM78 573v91h997v-91h-997z" />
<glyph unicode="&#x3e;" horiz-adv-x="1050" d="M61 66l789 411l-789 412l43 80l885 -461v-59l-885 -463z" />
<glyph unicode="?" horiz-adv-x="745" d="M68 977v186q18 25 27.5 37t39.5 40t60 43t80.5 28.5t109.5 13.5q165 0 258.5 -97t93.5 -284q0 -128 -51 -217.5t-131 -126.5t-174 -25l-33 -219h-74v346h218q28 45 44 132t18 151l1 64q0 211 -199 211q-54 0 -95.5 -14.5t-66.5 -40t-36 -42.5t-21 -39l-31 -147h-38z M199 96q0 50 34.5 85.5t85.5 35.5t86 -35.5t35 -85.5q0 -51 -35 -87t-86 -36t-85.5 36t-34.5 87z" />
<glyph unicode="@" horiz-adv-x="1386" d="M76 592q0 126 49 240.5t131.5 197t197 131.5t240.5 49q168 0 310.5 -82.5t225.5 -225t83 -310.5q0 -84 -11 -151t-27 -109t-41 -73t-45.5 -45.5t-47.5 -23t-40.5 -9.5t-31.5 -1q-140 0 -209 160q-124 -117 -223 -117q-80 0 -120 48.5t-40 125.5q0 59 34.5 105t87.5 70.5 t105.5 36.5t98.5 12v65q0 50 -14.5 86.5t-34.5 53.5t-40.5 26.5t-35.5 10.5l-14 1h-99l-24 -102h-33v108q48 34 77.5 45t78.5 11q71 0 121.5 -16t76.5 -38t40.5 -58.5t17 -62.5t2.5 -65v-283q0 -72 41 -123t106 -51q16 0 27 1t31.5 8.5t35.5 20.5t32.5 40t29 64.5t19 96 t7.5 132.5q0 113 -44 216t-119 178t-178 119t-216 44q-149 0 -260 -76t-166 -201t-55 -280t55 -280t166 -201t260 -76v-62q-168 0 -310.5 83t-225 225.5t-82.5 310.5zM600 418q0 -46 18.5 -75.5t50.5 -38.5t79 7t100 58q-31 88 -41 206q-31 0 -63 -7t-66 -23t-56 -49 t-22 -78z" />
<glyph unicode="A" horiz-adv-x="1333" d="M0 0v45l160 33l479 1251h61l476 -1251l157 -33v-45h-499v45l155 33l-143 377h-459l-141 -377l157 -33v-45h-403zM416 528h401l-201 531z" />
<glyph unicode="B" horiz-adv-x="1355" d="M143 0v45l174 33v1147l-174 32v46h594q160 0 258.5 -85.5t98.5 -236.5q0 -5 -0.5 -14.5t-5.5 -37t-14 -52t-28.5 -55t-46 -53t-69.5 -38.5t-96 -18h6q38 0 82 -11q46 -12 72 -24l26 -12q75 -38 125.5 -112.5t50.5 -182.5q0 -176 -112 -273.5t-298 -97.5h-643zM489 76h271 q129 0 195.5 84t66.5 202q0 117 -76.5 209.5t-204.5 92.5h-252v-588zM489 735h201q111 0 170.5 72.5t59.5 173.5q0 102 -59.5 175t-170.5 73h-201v-494z" />
<glyph unicode="C" horiz-adv-x="1361" d="M102 651q0 341 185 509.5t534 168.5q166 0 305 -78l31 92h45v-421h-45l-31 174q-66 84 -157 117.5t-176 33.5q-110 0 -201 -33t-161.5 -100t-110 -180t-39.5 -262q0 -604 540 -604q81 0 163.5 28.5t145.5 85.5l27 150h45v-271q-124 -51 -208.5 -69.5t-172.5 -18.5 q-349 0 -534 168.5t-185 509.5z" />
<glyph unicode="D" horiz-adv-x="1536" d="M143 0v45l174 33v1147l-174 32v46h641q315 0 483.5 -169.5t168.5 -482.5t-168 -482t-484 -169h-641zM489 82h289q108 0 192 31.5t137 84.5t87.5 127.5t48.5 154t14 171.5q0 91 -14 171.5t-48.5 156.5t-87.5 130t-137 87t-192 33h-289v-1147z" />
<glyph unicode="E" horiz-adv-x="1257" d="M143 0v45l176 33v1147l-176 32v46h940v-250h-45l-32 176h-517v-537h394l32 156h46v-387h-46l-32 155h-394v-540h531l33 174h45v-250h-955z" />
<glyph unicode="F" horiz-adv-x="1257" d="M143 0v45l174 33v1147l-174 32v46h940v-250h-45l-32 176h-517v-537h394l30 156h48v-387h-48l-30 155h-394v-538l177 -33v-45h-523z" />
<glyph unicode="G" horiz-adv-x="1474" d="M102 651q0 341 185 509.5t534 168.5q166 0 305 -78l31 92h45v-421h-45l-39 215q-53 56 -139 83t-186 27q-110 0 -201 -33t-161.5 -100t-110 -180t-39.5 -262q0 -604 540 -604q110 0 211 26v361l-184 30v45h512v-45l-158 -30v-387l-170 -64q-37 -14 -90 -21.5t-87 -8.5 l-34 -1q-349 0 -534 168.5t-185 509.5z" />
<glyph unicode="H" horiz-adv-x="1662" d="M143 0v45l174 33v1147l-174 32v46h502v-46l-156 -30v-535h687v535l-156 30v46h502v-46l-174 -32v-1147l174 -33v-45h-502v45l156 33v538h-687v-538l156 -33v-45h-502z" />
<glyph unicode="I" horiz-adv-x="804" d="M143 0v45l174 33v1147l-174 32v46h521v-46l-175 -32v-1147l177 -33v-45h-523z" />
<glyph unicode="J" horiz-adv-x="804" d="M-76 -434l60 -6q25 -2 48 -2q139 0 208 78q79 92 79 315v1274l-176 32v46h523v-46l-177 -32v-1252q0 -225 -104.5 -355t-284.5 -130q-3 0 -33 4.5t-73.5 13t-69.5 15.5v45z" />
<glyph unicode="K" horiz-adv-x="1415" d="M143 0v45l174 33v1147l-174 32v46h502v-46l-156 -30v-1149l156 -33v-45h-502zM514 672l514 555l-156 30v46h441v-46l-176 -32l-455 -488l563 -661l170 -31v-45h-334z" />
<glyph unicode="L" horiz-adv-x="1097" d="M143 0v45l176 33v1147l-176 32v46h523v-46l-177 -32v-1149h531l33 174h45v-250h-955z" />
<glyph unicode="M" horiz-adv-x="1832" d="M141 1260v45h328l449 -1020l450 1020h324v-45l-176 -33v-1149l176 -33v-45h-523v45l177 33v964l-472 -1069l-471 1065v-960l177 -33v-45h-437v45l174 33v1149z" />
<glyph unicode="N" horiz-adv-x="1576" d="M100 1257v46h303l771 -975v897l-177 32v46h439v-46l-176 -32v-1225h-41l-816 1032v-954l177 -33v-45h-437v45l174 33v1063l-69 90z" />
<glyph unicode="O" horiz-adv-x="1505" d="M102 651q0 326 168 502t484 176q315 0 483 -176.5t168 -501.5t-168 -500.5t-483 -175.5q-317 0 -484.5 175.5t-167.5 500.5zM281 651q0 -95 13 -177t47 -160t86 -132.5t135.5 -87.5t191.5 -33q107 0 190.5 33t136 87.5t86 132t47 160t13.5 177.5t-13.5 177.5t-47 160 t-86 132t-136 87.5t-190.5 33q-108 0 -191.5 -33t-135.5 -87.5t-86 -132.5t-47 -160t-13 -177z" />
<glyph unicode="P" horiz-adv-x="1284" d="M141 1257v46h633q187 0 298.5 -97t111.5 -274q0 -70 -21 -127.5t-53 -94.5t-79 -65t-91 -42.5t-97 -23t-88.5 -10.5t-74.5 -2h-191v-489l185 -33v-45h-531v45l174 33v1147zM489 639h240q88 0 154 46t97.5 113.5t31.5 141.5q0 75 -26 138t-87 106t-149 43h-261v-588z" />
<glyph unicode="Q" horiz-adv-x="1505" d="M102 651q0 326 168 502t484 176q315 0 483 -176.5t168 -501.5q0 -301 -142.5 -476.5t-412.5 -201.5l121 -174q140 -198 284 -198q51 0 112 25.5t94 47.5t55 41v-65l-36 -32q-35 -33 -68 -58t-92.5 -48.5t-119.5 -23.5q-108 0 -209 74t-184 196l-148 215 q-269 26 -413 202.5t-144 475.5zM281 651q0 -95 13 -177t47 -160t86 -132.5t135.5 -87.5t191.5 -33q107 0 190.5 33t136 87.5t86 132t47 160t13.5 177.5t-13.5 177.5t-47 160t-86 132t-136 87.5t-190.5 33q-108 0 -191.5 -33t-135.5 -87.5t-86 -132.5t-47 -160t-13 -177z " />
<glyph unicode="R" horiz-adv-x="1298" d="M141 0v45l176 33v1147l-174 32v46h594q158 0 257.5 -94.5t99.5 -247.5q0 -70 -24.5 -129.5t-64 -99t-83 -64t-88.5 -35.5l292 -557l172 -31v-45h-311l-328 623h-170v-545l156 -33v-45h-504zM489 692h201q75 0 129 42.5t77.5 102t23.5 124.5t-23.5 124t-77.5 101.5 t-129 42.5h-201v-537z" />
<glyph unicode="S" horiz-adv-x="1058" d="M154 963q0 89 26 156.5t65.5 106.5t94 64t102.5 33t99 8q131 0 237 -65l29 82h45v-357h-45l-27 142q-13 10 -46 36t-45.5 34t-38.5 21.5t-51 18t-58 4.5q-39 0 -78.5 -13.5t-75.5 -40t-59 -72t-23 -101.5q0 -29 7 -54.5t26 -49t33.5 -39.5t49 -39t51.5 -33.5t61.5 -35.5 t60.5 -34q44 -25 70 -40.5t66 -42t65 -48t54 -52.5t45 -61.5t27 -69.5t11 -81q0 -78 -23.5 -140.5t-63 -104t-92.5 -69t-109 -39.5t-116 -12q-51 0 -95 6.5t-77 19.5t-53.5 22.5t-44.5 24.5t-29 18l-28 -89h-45v363h45l26 -156q18 -12 52 -36.5t49.5 -33.5t43.5 -22 t57.5 -17.5t68.5 -4.5q42 0 79 5.5t73.5 20t63 37t42.5 59t16 82.5q0 39 -16.5 76t-40.5 65.5t-66.5 60.5t-77 53.5t-88.5 52.5q-41 23 -61.5 35t-57.5 35.5t-57 39.5t-48.5 41t-44 48.5t-31.5 52.5t-22.5 61t-6.5 68z" />
<glyph unicode="T" horiz-adv-x="1183" d="M0 1053v250h1184v-250h-47l-31 176h-430v-1151l178 -33v-45h-524v45l176 33v1151h-428l-33 -176h-45z" />
<glyph unicode="U" horiz-adv-x="1648" d="M143 1257v46h502v-46l-156 -30v-768q0 -224 78.5 -323t257.5 -99q239 0 340 168v1022l-157 30v46h501v-46l-174 -32v-1149l176 -31v-45l-346 -2v115q-130 -140 -350 -140q-496 0 -496 486v766z" />
<glyph unicode="V" horiz-adv-x="1359" d="M0 1257v46h518v-46l-158 -30l373 -983l373 981l-158 32v46h412v-46l-176 -32l-479 -1252h-46l-475 1252z" />
<glyph unicode="W" horiz-adv-x="1984" d="M0 1257v46h518v-46l-158 -30l373 -983l225 594l-147 387l-158 32v46h490v-46l-156 -30l373 -983l371 981l-158 32v46h412v-46l-175 -32l-481 -1252h-43l-291 764l-290 -764h-46l-475 1252z" />
<glyph unicode="X" horiz-adv-x="1339" d="M0 0v45l176 33l412 561l-379 586l-176 32v46h542v-46l-155 -30l280 -434l320 434l-156 30v46h441v-46l-175 -32l-376 -512l409 -635l176 -33v-45h-542v45l153 31l-311 483l-354 -483l155 -31v-45h-440z" />
<glyph unicode="Y" horiz-adv-x="1163" d="M0 1257v46h496v-46l-156 -32l295 -596l274 596l-155 32v46h409v-46l-176 -32l-307 -674v-473l176 -33v-45h-522v45l176 33v473l-334 674z" />
<glyph unicode="Z" horiz-adv-x="1396" d="M160 0v76l798 1153h-722l-31 -176h-45v307h45l31 -57h950v-74l-805 -1153h780l33 174h45v-250h-1079z" />
<glyph unicode="[" horiz-adv-x="610" d="M129 -512v1937h399v-47l-274 -30v-1782l274 -33v-45h-399z" />
<glyph unicode="\" horiz-adv-x="698" d="M51 1303h96l500 -1782h-96z" />
<glyph unicode="]" horiz-adv-x="610" d="M82 -467l274 33v1782l-274 30v47h399v-1937h-399v45z" />
<glyph unicode="^" horiz-adv-x="909" d="M211 1042l166 261h153l166 -261h-75l-166 179l-168 -179h-76z" />
<glyph unicode="_" horiz-adv-x="909" d="M0 0h909v-80h-909v80z" />
<glyph unicode="`" horiz-adv-x="1005" d="M344 1303h152l168 -261h-76z" />
<glyph unicode="a" horiz-adv-x="909" d="M92 209q0 80 47 142t119 95t143.5 49.5t133.5 16.5v88v10q0 24 -0.5 38t-4 41.5t-10 45t-20.5 40t-34 35.5t-51 22.5t-71 9.5h-131l-33 -140h-45v148q66 45 105.5 59.5t103.5 14.5q70 0 125 -11t91 -28t62 -45t39 -53.5t20.5 -62t9 -62t1.5 -62.5v-522l142 -33v-45h-281 l-14 76q-108 -90 -213 -100q-14 -1 -28 -1q-86 0 -142 55q-64 64 -64 179zM260 238q0 -116 81 -146q26 -10 55 -9q62 0 139 44v324q-31 0 -64 -5t-72 -19.5t-69 -37t-50 -62t-20 -89.5z" />
<glyph unicode="b" horiz-adv-x="1153" d="M39 1378v47h334v-591l135 51q107 39 197 39q77 0 138.5 -28t100 -73.5t64.5 -107t36.5 -124.5t10.5 -130q0 -234 -116.5 -360t-346.5 -126q-175 0 -301 121l-45 -98h-33v1350zM373 182q29 -69 87 -103t130 -34q103 0 171 54t97 141t29 204q0 195 -61 293.5t-214 98.5 q-30 0 -137 -37l-102 -39v-578z" />
<glyph unicode="c" horiz-adv-x="923" d="M94 438q0 232 123.5 359t355.5 127q7 0 19 -0.5t46.5 -6t66 -14t70 -27.5t65.5 -45v-198h-45l-33 147q-46 50 -86 64t-103 14q-103 0 -175.5 -55t-106 -144.5t-33.5 -203.5q0 -187 88 -298.5t246 -111.5q5 0 14 0.5t36.5 5.5t53 13.5t59 27t60.5 43.5l37 -53 q-40 -29 -55 -38.5t-55.5 -30.5t-82 -29.5t-92.5 -8.5q-113 0 -199.5 31t-137 78t-82.5 111.5t-43 122.5t-11 120z" />
<glyph unicode="d" horiz-adv-x="1146" d="M92 461q0 67 10.5 130t36.5 124.5t64.5 107t100 73.5t138.5 28q90 0 197 -39l135 -51v514l-174 32v45h332v-1347l176 -33v-45h-293l-12 53q-109 -78 -248 -78q-231 0 -347 126t-116 360zM258 444q0 -180 73.5 -289.5t225.5 -109.5q70 0 128 34t89 103v578l-104 39 q-2 1 -26.5 9.5t-38 13t-35 9.5t-35.5 5q-153 0 -215 -99t-62 -293z" />
<glyph unicode="e" horiz-adv-x="1005" d="M94 436q0 235 116 361.5t347 126.5q96 0 178 -39.5t134.5 -120.5t52.5 -189v-67h-660q-1 -8 -1 -17.5t0.5 -21.5t0.5 -18q0 -191 79.5 -294.5t240.5 -103.5q7 0 18.5 1t47 8t68.5 20t76.5 41.5t77.5 66.5l45 -57q-81 -67 -127 -93q-112 -65 -231 -65q-113 0 -199 31 t-135 77t-79.5 111t-40 122t-9.5 120zM272 582h484v36q0 119 -54.5 179.5t-144.5 60.5q-239 0 -285 -276z" />
<glyph unicode="f" horiz-adv-x="704" d="M41 838v59h174v182q0 33 0.5 49.5t3 51.5t8 55.5t17 51.5t27.5 50t41.5 41.5t58 34.5t77.5 20.5t99 8.5q63 0 102 -13t107 -53v-147h-45l-31 139h-117q-40 0 -71 -12t-50.5 -28t-33.5 -44t-21 -49t-10.5 -54.5t-3.5 -48.5v-42v-11v-182h260v-90h-260v-729l155 -33v-45 h-471v45l158 33v727z" />
<glyph unicode="g" horiz-adv-x="1003" d="M41 -199q0 125 109 222q-23 30 -23 76q0 99 104 270q-106 75 -106 243q0 147 81.5 229.5t244.5 82.5q50 0 110 -25h295v-59l-141 -29q59 -65 59 -199q0 -145 -80 -222t-243 -77q-94 0 -170 29q-17 -34 -27 -58.5t-19 -52.5t-6.5 -46.5t12 -35t34 -24.5t61.5 -8h332 q98 0 154.5 -45.5t56.5 -130.5q0 -192 -122.5 -322.5t-305.5 -130.5q-97 0 -177 27.5t-130 73t-76.5 100.5t-26.5 112zM156 -136v-20q0 -122 79.5 -206t215.5 -84q133 0 216 89t83 222q0 30 -8 53t-23.5 35t-28 20t-31.5 10t-23 2.5t-13 0.5h-435q-15 -32 -23 -67.5 t-9 -54.5zM254 621q0 -110 49 -176t148 -66q97 0 145.5 66t48.5 176t-48 172.5t-146 62.5q-99 0 -148 -62.5t-49 -172.5z" />
<glyph unicode="h" horiz-adv-x="1196" d="M39 1380v45h334v-602l162 60q118 41 170 41q54 0 97.5 -18t71 -43.5t47 -65t29 -71.5t15 -75t6 -64t0.5 -48v-461l155 -33v-45h-448v45l135 33v444v10q0 302 -201 304q-39 0 -137 -37l-102 -39v-682l155 -33v-45h-471v45l156 33v1270z" />
<glyph unicode="i" horiz-adv-x="585" d="M39 854v45h334v-821l155 -33v-45h-471v45l156 33v743zM176 1214q0 43 30 73t73 30q41 0 70.5 -30t29.5 -73q0 -41 -29.5 -70.5t-70.5 -29.5q-43 0 -73 29.5t-30 70.5z" />
<glyph unicode="j" horiz-adv-x="587" d="M-78 -481l17 47q30 -5 57 -5q42 0 76 13q56 20 82.5 53.5t41.5 87.5t17 82.5t2 65.5v958l-174 33v45h334v-1036q0 -27 -1.5 -52.5t-8 -65t-17 -72.5t-32 -68.5t-50 -60t-72.5 -40.5t-98 -16q-69 0 -174 31zM178 1214q0 41 30 72t71 31q42 0 72 -30.5t30 -72.5 q0 -41 -29.5 -70.5t-72.5 -29.5q-41 0 -71 29.5t-30 70.5z" />
<glyph unicode="k" horiz-adv-x="1056" d="M41 1380v45h332v-936l309 332l-115 31v45h387v-45l-170 -35l-272 -293l379 -444l160 -35v-45h-285l-393 465v-387l155 -33v-45h-469v45l156 33v1270z" />
<glyph unicode="l" horiz-adv-x="585" d="M39 1380v45h334v-1347l155 -33v-45h-471v45l156 33v1270z" />
<glyph unicode="m" horiz-adv-x="1794" d="M39 854v45h319l15 -76l162 60q118 41 170 41q143 0 210 -119l218 78q118 41 172 41t97 -18t70 -43.5t46.5 -65t29 -71.5t15 -75t6 -64t0.5 -48v-461l157 -33v-45h-450v45l135 33v444v7q0 25 -0.5 42t-4 51.5t-10.5 59.5t-22 56t-35.5 50.5t-53.5 33.5t-75 14 q-39 0 -137 -37l-133 -49q31 -88 31 -211v-461l133 -33v-45h-426v45l135 33v444v10q0 302 -201 304q-39 0 -137 -37l-102 -39v-682l155 -33v-45h-471v45l156 33v743z" />
<glyph unicode="n" horiz-adv-x="1196" d="M39 854v45h319l15 -76l162 60q118 41 170 41q54 0 97.5 -18t71 -43.5t47 -65t29 -71.5t15 -75t6 -64t0.5 -48v-461l155 -33v-45h-448v45l135 33v444v10q0 302 -201 304q-39 0 -137 -37l-102 -39v-682l155 -33v-45h-471v45l156 33v743z" />
<glyph unicode="o" horiz-adv-x="1087" d="M82 449q0 228 117.5 351.5t337.5 123.5q222 0 339 -123.5t117 -351.5q0 -227 -117.5 -350.5t-338.5 -123.5q-220 0 -337.5 123.5t-117.5 350.5zM248 449q0 -116 29.5 -205.5t96 -146t163.5 -56.5q98 0 164.5 56.5t96 146t29.5 205.5t-29 205.5t-96 146.5t-165 57 q-97 0 -163.5 -57t-96 -146.5t-29.5 -205.5z" />
<glyph unicode="p" horiz-adv-x="1146" d="M39 854v45h319l15 -65l135 51q107 39 197 39q77 0 138.5 -28t100 -73.5t64.5 -107t36.5 -124.5t10.5 -130q0 -234 -116.5 -360t-346.5 -126q-119 0 -219 60v-469l200 -33v-45h-516v45l156 33v1255zM373 182q29 -69 87 -103t130 -34q103 0 171 54t97 141t29 204 q0 195 -61 293.5t-214 98.5q-30 0 -137 -37l-102 -39v-578z" />
<glyph unicode="q" horiz-adv-x="1146" d="M92 438q0 234 116 360t347 126q176 0 299 -123l47 98h31v-1333l176 -33v-45h-537v45l203 31v502l-135 -52q-103 -41 -197 -41q-77 0 -138.5 28t-100 73.5t-64.5 107.5t-36.5 125t-10.5 131zM258 459q0 -391 277 -391q48 0 135 36l104 39v578q-31 69 -88 102t-129 33 q-152 0 -225.5 -108.5t-73.5 -288.5z" />
<glyph unicode="r" horiz-adv-x="753" d="M39 854v45h334v-139q39 80 97 122t124 42q48 0 76 -13t80 -53l-109 -127l-86 72q-102 0 -142 -51.5t-40 -147.5v-526l155 -31v-47h-471v47l156 31v743z" />
<glyph unicode="s" horiz-adv-x="860" d="M121 653q0 65 22 115.5t54 79t74.5 46.5t77.5 24t69 6q82 0 186 -58l35 58h45v-273h-45l-29 119q-58 51 -106.5 69.5t-102.5 18.5q-21 0 -46 -7t-51.5 -22t-44 -44.5t-17.5 -69.5q0 -31 18.5 -57.5t54 -49t71 -40t87.5 -42t86 -43.5q35 -20 56 -32.5t47 -35t39.5 -45 t23.5 -56t10 -74.5q0 -67 -25.5 -119.5t-66.5 -83t-88 -46.5t-94 -16q-31 0 -58 3t-46.5 6.5t-40 11.5t-31 12.5t-26.5 16t-20 15t-17.5 15.5t-14.5 13l-35 -86h-45v313h66q0 -95 69.5 -172.5t173.5 -77.5q22 0 49 6.5t57.5 20.5t51 43t20.5 69t-27 74.5t-70.5 60t-96 50.5 t-105.5 52.5t-96.5 58.5t-70.5 75.5t-27 97.5z" />
<glyph unicode="t" horiz-adv-x="710" d="M39 838v59h174v279h160v-279h239v-90h-239v-582q0 -50 12 -83t32 -46.5t44.5 -16.5t53 5.5t52.5 20t47 26.5l29 -43q-48 -54 -96.5 -80t-110.5 -26q-51 0 -90 13.5t-62.5 38t-38.5 51t-21.5 62t-8.5 60t-2 55.5v543z" />
<glyph unicode="u" horiz-adv-x="1177" d="M39 852v45h315v-522q0 -121 22 -184q45 -129 177 -130q39 0 137 37l105 39v684l-156 31v45h313v-821l174 -31v-45l-317 -2l-14 76l-164 -58q-114 -43 -170 -43q-54 0 -97 18t-70 44t-46.5 65.5t-29 71.5t-15 74.5t-6 63.5t-0.5 48v463z" />
<glyph unicode="v" horiz-adv-x="942" d="M0 854v45h426v-45l-137 -33l246 -583l217 583l-136 33v45h326v-45l-113 -33l-313 -846h-45l-358 846z" />
<glyph unicode="w" horiz-adv-x="1484" d="M0 854v45h426v-45l-137 -33l246 -583l172 460l-54 123l-112 33v45h426v-45l-138 -33l246 -583l217 583l-135 33v45h326v-45l-113 -33l-313 -846h-45l-264 625l-232 -625h-45l-358 846z" />
<glyph unicode="x" horiz-adv-x="970" d="M0 0v47l115 31l299 362l-283 381l-113 33v45h447v-45l-156 -33l199 -268l221 268l-135 33v45h362v-45l-125 -33l-282 -325l309 -418l113 -31v-47h-447v47l156 31l-227 307l-244 -307l141 -31v-47h-350z" />
<glyph unicode="y" horiz-adv-x="942" d="M0 854v45h426v-45l-137 -33l246 -583l217 583l-136 33v45h326v-45l-113 -33l-493 -1333h-105l-176 33v45h205l182 475l-329 780z" />
<glyph unicode="z" horiz-adv-x="882" d="M47 0v68l524 753h-421l-33 -153h-45v229h690v-45l-537 -774h457l35 151h45v-229h-715z" />
<glyph unicode="{" horiz-adv-x="686" d="M41 440v45l172 31q27 28 41 68.5t15.5 94.5t-1 96.5t-8.5 108.5q-1 13 -2 19q-6 64 -8 112.5t2.5 105.5t17 99t38.5 84t64.5 68.5t97 44t134.5 19.5v-27q-46 -5 -80.5 -24.5t-56.5 -46t-36 -66t-20 -77.5t-6.5 -88.5t2 -90t7.5 -90.5q11 -75 4.5 -149.5t-26.5 -135.5 t-66.5 -109t-114.5 -71q68 -23 114.5 -70.5t66.5 -108.5t26.5 -135t-4.5 -149q-5 -51 -7.5 -90.5t-2 -90t6.5 -88.5t20 -77.5t36 -66t56.5 -46t80.5 -24.5v-27q-76 2 -135 19.5t-97.5 44t-64.5 68.5t-38.5 83.5t-16.5 99t-2 105.5t8 112q16 172 10 238q-9 102 -59 152z" />
<glyph unicode="|" horiz-adv-x="585" d="M244 -512v1937h96v-1937h-96z" />
<glyph unicode="}" horiz-adv-x="686" d="M82 -485q46 5 81 24.5t57.5 46t36.5 66t20 78t6 88t-2.5 90t-8.5 90.5q-10 75 -3 149t27 135t66 108.5t113 70.5q-67 23 -113 71t-66 109t-27 135.5t3 149.5q6 50 8.5 90.5t2.5 90t-6 88t-20 78t-36.5 66t-57.5 46t-81 24.5v27q76 -2 134.5 -19.5t97 -44t64.5 -68.5 t38.5 -84t17 -99t2.5 -105.5t-8 -112.5q-5 -54 -7 -76t-4.5 -69.5t0.5 -74t8.5 -61.5t18 -60.5t31.5 -45.5l170 -31v-45l-168 -30q-28 -29 -43 -70t-16.5 -103.5t1 -99.5t9.5 -117q6 -64 8 -112t-1.5 -106t-16 -99t-38.5 -83t-64.5 -68.5t-97.5 -44t-136 -19.5v27z" />
<glyph unicode="~" horiz-adv-x="1177" d="M139 319q47 150 99.5 201t156.5 51q50 0 104.5 -20t94 -44.5t89.5 -44.5t93 -20q51 0 84.5 6.5t57 24t37.5 39t32 59.5h49q-47 -150 -99.5 -201t-156.5 -51q-51 0 -104.5 20.5t-91 45.5t-87.5 45.5t-96 20.5q-96 0 -136 -28t-75 -104h-51z" />
<glyph unicode="&#xa1;" horiz-adv-x="550" d="M154 801q0 51 35 86t85 35q51 0 87 -35t36 -86t-36 -86t-87 -35q-50 0 -85 35t-35 86zM166 -408l74 949h71l74 -949h-219z" />
<glyph unicode="&#xa2;" horiz-adv-x="923" d="M94 438q0 232 123.5 359t355.5 127q26 0 82 -9l64 177h47l-68 -187q91 -27 142 -74v-198h-45l-35 147q-46 50 -85 64t-102 14q-103 0 -175.5 -55t-106 -144.5t-33.5 -203.5q0 -187 88 -298.5t246 -111.5q5 0 14 0.5t36 5.5t52.5 13.5t59.5 27t61 43.5l37 -53 q-40 -29 -55 -38.5t-55.5 -30.5t-82 -29.5t-92.5 -8.5q-103 0 -192 27l-76 -207h-45l80 223q-70 30 -119.5 80t-74.5 109.5t-35.5 115.5t-10.5 115z" />
<glyph unicode="&#xa3;" horiz-adv-x="1183" d="M41 119q0 143 182 143q59 0 133 -24q1 31 -1 68t-4.5 60.5t-6 55.5t-4.5 37l-16 137h-240v45h233q-26 216 -30 268q-15 125 1 196q47 214 333 214q16 0 43.5 -2t109.5 -22t158 -56v-170h-39l-31 139q-126 52 -213 52q-55 0 -97 -23t-63.5 -59t-30.5 -74t-5 -72 q2 -23 8.5 -87t15.5 -154l15 -150h272v-45h-268q6 -82 14 -139q20 -162 -8 -269q75 -28 120 -43.5t107.5 -30t108.5 -14.5q54 0 97.5 11t70 28.5t41 33t22.5 30.5l29 153h39v-186q-11 -26 -27 -50t-44 -51.5t-62 -48t-84 -34t-107 -13.5q-111 0 -191 33t-159 90 q-73 -123 -240 -123q-95 0 -138.5 44.5t-43.5 101.5zM94 119q0 -41 33.5 -66.5t95.5 -25.5q107 0 129 145q-67 41 -129 41q-129 0 -129 -94z" />
<glyph unicode="&#xa4;" horiz-adv-x="1433" d="M61 516l43 90h72v45v45h-115l43 90h80q35 274 217 408.5t496 134.5q164 0 303 -78l31 92h45v-421h-45l-31 174q-66 84 -157.5 117.5t-176.5 33.5q-204 0 -341 -114t-165 -347h736l-43 -90h-699v-24v-66h658l-43 -90h-604q63 -448 532 -448q79 0 161.5 28.5t145.5 85.5 l27 150h45v-271q-123 -51 -208 -69.5t-171 -18.5q-314 0 -496 135t-217 408h-123z" />
<glyph unicode="&#xa5;" horiz-adv-x="1163" d="M0 1257v46h496v-46l-156 -32l295 -596l274 596l-155 32v46h409v-46l-176 -32l-237 -520h290v-46h-311l-49 -108v-25h360v-45h-360v-403l176 -33v-45h-522v45l176 33v403h-365v45h365v25l-55 108h-310v46h287l-256 520z" />
<glyph unicode="&#xa6;" horiz-adv-x="585" d="M244 334h96v-846h-96v846zM244 563v862h96v-862h-96z" />
<glyph unicode="&#xa7;" horiz-adv-x="860" d="M100 365q0 54 6 99t21.5 81.5t28.5 62.5t40.5 54.5t42 43t48.5 43t47 39.5q-45 32 -73 54.5t-58 54t-44 66.5t-14 75q0 65 22 115.5t54 79t74.5 46.5t77.5 24t69 6q83 0 187 -58l35 56h45v-271h-45l-27 119q-103 86 -209 86q-22 0 -47.5 -7t-52.5 -21.5t-44.5 -44 t-17.5 -68.5q0 -42 18 -78t54.5 -68t71.5 -55.5t88 -57.5t86 -59q82 -62 129 -138.5t47 -184.5q0 -47 -6 -88t-14.5 -72t-25 -61.5t-29.5 -49.5t-37 -44t-38 -37t-42.5 -36.5t-41.5 -35.5q45 -31 73.5 -54t58 -54.5t43.5 -66.5t14 -75q0 -65 -22 -115.5t-54 -78.5 t-74.5 -45.5t-77.5 -23t-69 -5.5q-84 0 -187 57l-34 -57h-45v272h45l28 -121q58 -49 106.5 -67.5t102.5 -18.5q21 0 46 7t52 22t44.5 44.5t17.5 68.5q0 42 -18 78t-54.5 67.5t-71.5 55.5t-88 57.5t-86 58.5q-82 61 -129 138.5t-47 185.5zM221 440q0 -56 17 -106t40 -85.5 t65 -74.5t72 -60.5t81 -56.5q5 6 23 29t25.5 32.5t23 32.5t23 37.5t19 39.5t16.5 46.5t9 50t4 58.5q0 56 -17 106t-39.5 85.5t-64.5 74.5t-71 60.5t-80 56.5q-3 -4 -23.5 -29t-26.5 -32.5t-23.5 -32t-24 -38t-18.5 -39t-16.5 -47t-9 -50t-4.5 -58.5z" />
<glyph unicode="&#xa8;" horiz-adv-x="1005" d="M195 1145q0 43 29.5 73.5t72.5 30.5t73.5 -30.5t30.5 -73.5t-30.5 -73t-73.5 -30t-72.5 30t-29.5 73zM606 1145q0 43 30 73.5t73 30.5t72.5 -30.5t29.5 -73.5t-29.5 -73t-72.5 -30t-73 30t-30 73z" />
<glyph unicode="&#xa9;" horiz-adv-x="1482" d="M72 639q0 136 53 260t142 214t213 143t261 53q182 0 336.5 -90t244 -244t89.5 -336q0 -137 -53 -261t-142.5 -213.5t-213.5 -142.5t-261 -53t-261 53t-213 142.5t-142 213.5t-53 261zM143 639q0 -122 47.5 -233.5t127.5 -191.5t190.5 -127.5t232.5 -47.5t233 47.5 t191 127.5t127 191.5t47 233.5t-47 232.5t-127 190.5t-191 127.5t-233 47.5t-232.5 -47.5t-190.5 -127.5t-127.5 -190.5t-47.5 -232.5zM365 637q0 191 116 288t318 97q100 0 172 -45l16 53h27v-237h-27l-16 96q-39 49 -92 71.5t-99 22.5q-128 0 -209.5 -84.5t-81.5 -249.5 t75.5 -259.5t234.5 -94.5q41 0 89 21t85 55l14 86h27v-154q-117 -49 -215 -49q-202 0 -318 96t-116 287z" />
<glyph unicode="&#xaa;" horiz-adv-x="557" d="M72 924q0 43 29 76.5t73 52t88 28t82 9.5v40v5q0 19 -0.5 30.5t-6.5 31.5t-17.5 32t-35 21.5t-57.5 9.5h-82l-18 -74h-29v78q39 24 64 31.5t65 7.5q59 0 101.5 -11.5t64 -27t33 -41.5t14 -45t2.5 -48v-276l64 -16v-25h-150l-8 39q-66 -47 -131 -52.5t-105 29t-40 95.5z M176 938q0 -60 50 -74t118 21v166q-24 0 -50 -5t-54 -16t-46 -35t-18 -57z" />
<glyph unicode="&#xab;" horiz-adv-x="1325" d="M182 651l656 414v-66l-420 -348l420 -348v-67zM621 651l522 332v-68l-287 -266l287 -264v-68z" />
<glyph unicode="&#xac;" d="M102 582v102h918v-432h-66l-36 330h-816z" />
<glyph unicode="&#xad;" horiz-adv-x="583" d="M78 424v90h428v-90h-428z" />
<glyph unicode="&#xae;" horiz-adv-x="1482" d="M72 639q0 136 53 260t142 214t213 143t261 53q182 0 336.5 -90t244 -244t89.5 -336q0 -137 -53 -261t-142.5 -213.5t-213.5 -142.5t-261 -53t-261 53t-213 142.5t-142 213.5t-53 261zM143 639q0 -122 47.5 -233.5t127.5 -191.5t190.5 -127.5t232.5 -47.5t233 47.5 t191 127.5t127 191.5t47 233.5t-47 232.5t-127 190.5t-191 127.5t-233 47.5t-232.5 -47.5t-190.5 -127.5t-127.5 -190.5t-47.5 -232.5zM422 262v27l102 18v666l-102 18v27h389q91 0 149 -55t58 -144q0 -79 -46.5 -127.5t-105.5 -62.5l170 -322l99 -18v-27h-199l-188 361 h-103v-316l90 -18v-27h-313zM645 664h117q63 0 97 47t34 108t-34 108.5t-97 47.5h-117v-311z" />
<glyph unicode="&#xaf;" horiz-adv-x="471" d="M0 1112v45h471v-45h-471z" />
<glyph unicode="&#xb0;" horiz-adv-x="630" d="M100 1227q0 89 63 152t152 63t152 -63t63 -152t-63 -152t-152 -63t-152 63t-63 152zM168 1227q0 -62 43 -105t104 -43t104.5 43.5t43.5 104.5t-43 104t-105 43q-61 0 -104 -43t-43 -104z" />
<glyph unicode="&#xb1;" horiz-adv-x="1153" d="M125 0v80h407v323h-407v91h407v403h91v-403h403v-91h-403v-323h411v-80h-909z" />
<glyph unicode="&#xb2;" horiz-adv-x="690" d="M127 729v29q44 33 156 127q147 130 147 243q0 80 -36.5 122t-100.5 42q-44 0 -117 -28l-18 -80h-31v104q47 20 94 31t71 13l23 1q112 0 168 -53.5t56 -151.5q0 -33 -9.5 -65t-30.5 -61t-40 -51.5t-52 -48.5t-51.5 -39.5t-53.5 -37.5t-44 -30h305v-66h-436z" />
<glyph unicode="&#xb3;" horiz-adv-x="690" d="M147 737l21 31l4 -4l10 -6t13 -7.5t16.5 -8.5t18.5 -7.5t21.5 -5.5t22.5 -2q21 0 40.5 3t41.5 12.5t38 24.5t27 41t11 60q0 42 -15 70.5t-39 41t-43.5 17t-37.5 4.5q-36 0 -78 -24l-12 29q69 33 111.5 61t59.5 52.5t21 39t4 35.5q0 86 -86 86q-29 0 -86 -23l-12 -61h-26 v90q34 16 68 24.5t51 9.5l18 1q79 0 131.5 -29.5t52.5 -97.5q0 -94 -127 -158q158 -25 158 -174q0 -73 -59.5 -123.5t-176.5 -50.5q-89 0 -162 49z" />
<glyph unicode="&#xb4;" horiz-adv-x="1005" d="M344 1042l166 261h154l-246 -261h-74z" />
<glyph unicode="&#xb5;" horiz-adv-x="1843" d="M12 561v260h47l31 -174h234v580l-179 33v45h328l449 -1020l450 1020h324v-45l-176 -33v-580h233l31 174h47v-260h-311v-483l176 -33v-45h-522v45l176 33v964l-471 -1069l-471 1065v-960l176 -33v-45h-437v45l177 33v483h-312z" />
<glyph unicode="&#xb6;" horiz-adv-x="1282" d="M102 932q0 175 111.5 273t296.5 98h633v-46l-176 -32v-1659l176 -33v-45h-254v1737h-166v-1737h-264v45l184 33v1001h-37q-39 0 -75 2t-89 10.5t-96.5 23t-90.5 42.5t-79 65t-53 94t-21 128z" />
<glyph unicode="&#xb7;" horiz-adv-x="550" d="M154 512q0 51 35 86t85 35q51 0 87 -35t36 -86t-36 -86t-87 -35q-50 0 -85 35t-35 86z" />
<glyph unicode="&#xb8;" horiz-adv-x="923" d="M258 -393l21 45q125 -47 190.5 -28t65.5 87q0 35 -17 56.5t-44 27t-54 4t-55 -9.5l-21 12l90 209h70l-70 -155q24 5 52 7t57.5 -8t53 -26.5t39 -47t15.5 -69.5q0 -64 -53 -104.5t-140 -42.5t-200 43z" />
<glyph unicode="&#xb9;" horiz-adv-x="690" d="M156 729v31l137 20v455h-137v35l241 55v-545l138 -20v-31h-379z" />
<glyph unicode="&#xba;" horiz-adv-x="557" d="M25 1051q0 122 65 187t189 65t188.5 -65t64.5 -187q0 -121 -64.5 -186.5t-188.5 -65.5t-189 65.5t-65 186.5zM117 1051q0 -95 40.5 -153t121.5 -58t121 58t40 153t-40 154t-121 59t-121.5 -59t-40.5 -154z" />
<glyph unicode="&#xbb;" horiz-adv-x="1325" d="M182 317v68l287 264l-287 266v68l525 -332zM489 236v67l418 348l-418 348v66l654 -414z" />
<glyph unicode="&#xbc;" horiz-adv-x="1513" d="M145 0l1059 1303h105l-1059 -1303h-105zM156 729v31l137 20v455h-137v35l241 55v-545l138 -20v-31h-379zM834 213v43l311 362h63v-358h97v-47h-97v-160l97 -20v-31h-299v31l98 20v160h-270zM899 260h205v238z" />
<glyph unicode="&#xbd;" horiz-adv-x="1513" d="M145 0l1059 1303h105l-1059 -1303h-105zM156 729v31l137 20v455h-137v35l241 55v-545l138 -20v-31h-379zM932 0v29q69 51 155 127q55 46 100.5 110t45.5 131q0 81 -36 123.5t-99 42.5q-40 0 -117 -31l-18 -79h-31v106q47 20 94 31.5t70 12.5l24 1q111 0 167 -53.5 t56 -151.5q0 -34 -9.5 -66t-30.5 -61t-40 -52t-51.5 -48.5t-51.5 -40t-54 -38t-45 -30.5h307v-63h-436z" />
<glyph unicode="&#xbe;" horiz-adv-x="1513" d="M176 0l1057 1303h104l-1056 -1303h-105zM176 741l23 31l6 -4q6 -5 12 -9t16.5 -10t21 -10t24 -7t26.5 -3q26 0 50 6t49.5 20.5t41 44.5t15.5 72t-15 70.5t-39 40.5t-42.5 16.5t-36.5 4.5q-34 0 -80 -23l-10 29q68 32 110.5 60t59.5 52t21.5 39t4.5 37q0 86 -86 86 q-22 0 -86 -22l-14 -64h-25v92q34 16 68 24.5t51 9.5l18 1q50 0 89.5 -11t67.5 -41t28 -75q0 -17 -5 -34t-12 -30t-18.5 -26t-20.5 -21.5t-22.5 -18t-20 -13.5t-17.5 -11l-11 -6q155 -24 155 -172q0 -74 -58.5 -124t-174.5 -50q-91 0 -164 49zM862 213v43l314 362h63v-358 h96v-47h-96v-160l96 -20v-31h-299v31l99 20v160h-273zM930 260h205v238z" />
<glyph unicode="&#xbf;" horiz-adv-x="745" d="M8 -47q0 127 51.5 216t131.5 126t174 27l32 219h74v-346h-217q-28 -45 -44 -132t-18 -151l-2 -64q0 -210 199 -210q158 0 219 133l29 149h39v-188q-18 -25 -27 -37t-39.5 -40t-60 -43t-81 -28.5t-110.5 -13.5q-163 0 -256.5 98t-93.5 285zM305 801q0 51 35 86t86 35 t86 -35t35 -86t-35 -86t-86 -35t-86 35t-35 86z" />
<glyph unicode="&#xc0;" horiz-adv-x="1333" d="M0 0v45l160 33l479 1251h61l476 -1251l157 -33v-45h-499v45l155 33l-143 377h-459l-141 -377l157 -33v-45h-403zM416 528h401l-201 531zM508 1714h154l165 -260h-75z" />
<glyph unicode="&#xc1;" horiz-adv-x="1333" d="M0 0v45l160 33l479 1251h61l476 -1251l157 -33v-45h-499v45l155 33l-143 377h-459l-141 -377l157 -33v-45h-403zM416 528h401l-201 531zM508 1454l166 260h153l-243 -260h-76z" />
<glyph unicode="&#xc2;" horiz-adv-x="1333" d="M0 0v45l160 33l479 1251h61l476 -1251l157 -33v-45h-499v45l155 33l-143 377h-459l-141 -377l157 -33v-45h-403zM416 528h401l-201 531zM424 1454l166 260h153l166 -260h-75l-166 178l-168 -178h-76z" />
<glyph unicode="&#xc3;" horiz-adv-x="1333" d="M0 0v45l160 33l479 1251h61l476 -1251l157 -33v-45h-499v45l155 33l-143 377h-459l-141 -377l157 -33v-45h-403zM350 1460q29 98 77.5 144.5t129.5 46.5q65 0 135 -41q3 -2 26.5 -15t31.5 -16.5t27.5 -11.5t35.5 -10.5t33 -2.5q27 0 44 2.5t38 11.5t37 29.5t28 53.5h41 q-29 -98 -77.5 -144.5t-129.5 -46.5q-65 0 -135 41q-5 2 -27 14.5t-30.5 16.5t-26.5 11.5t-34.5 10t-34.5 2.5q-27 0 -43.5 -2.5t-38 -11t-37.5 -29t-29 -53.5h-41zM416 528h401l-201 531z" />
<glyph unicode="&#xc4;" horiz-adv-x="1333" d="M0 0v45l160 33l479 1251h61l476 -1251l157 -33v-45h-499v45l155 33l-143 377h-459l-141 -377l157 -33v-45h-403zM358 1536q0 41 31 71.5t72 30.5q43 0 73.5 -30.5t30.5 -71.5q0 -43 -30.5 -73.5t-73.5 -30.5q-41 0 -72 31t-31 73zM416 528h401l-201 531zM770 1536 q0 42 30 72t72 30t72.5 -30t30.5 -72q0 -43 -30 -73.5t-73 -30.5t-72.5 30.5t-29.5 73.5z" />
<glyph unicode="&#xc5;" horiz-adv-x="1333" d="M0 0v45l160 33l479 1251h61l476 -1251l157 -33v-45h-499v45l155 33l-143 377h-459l-141 -377l157 -33v-45h-403zM416 528h401l-201 531zM526 1536q0 60 42 101.5t102 41.5t101.5 -41.5t41.5 -101.5t-41.5 -101.5t-101.5 -41.5t-102 41.5t-42 101.5zM561 1536 q0 -44 32.5 -76.5t76.5 -32.5t76 32.5t32 76.5t-32 76.5t-76 32.5t-76.5 -32.5t-32.5 -76.5z" />
<glyph unicode="&#xc6;" horiz-adv-x="1710" d="M0 0v45l160 33l516 1147l-174 32v46h1034v-250h-47l-31 176h-518v-537h393l33 156h45v-387h-45l-33 155h-393v-540h533l30 174h47v-250h-938v45l158 33v538h-274l-240 -538l139 -33v-45h-395zM530 692h240v533h-2z" />
<glyph unicode="&#xc7;" horiz-adv-x="1361" d="M102 651q0 341 185 509.5t534 168.5q170 0 303 -78l33 92h45v-421h-45l-33 174q-66 84 -156.5 117.5t-176.5 33.5q-87 0 -162 -20t-140 -64.5t-111.5 -110.5t-72.5 -163t-26 -217q0 -604 542 -604q80 0 163 28.5t144 85.5l29 150h45v-271q-124 -51 -208.5 -69.5 t-172.5 -18.5q-38 0 -104 4l-55 -122q24 5 52 7t57.5 -8t53 -26.5t39 -47t15.5 -69.5q0 -64 -53 -104.5t-140.5 -42.5t-200.5 43l21 45q124 -47 189 -28t65 87q0 35 -16.5 56.5t-43.5 27t-53.5 4t-54.5 -9.5l-21 12l80 185q-268 37 -408.5 203t-140.5 462z" />
<glyph unicode="&#xc8;" horiz-adv-x="1257" d="M143 0v45l176 33v1147l-176 32v46h940v-250h-45l-32 176h-517v-537h394l32 156h46v-387h-46l-32 155h-394v-540h531l33 174h45v-250h-955zM469 1714h154l165 -260h-75z" />
<glyph unicode="&#xc9;" horiz-adv-x="1257" d="M143 0v45l176 33v1147l-176 32v46h940v-250h-45l-32 176h-517v-537h394l32 156h46v-387h-46l-32 155h-394v-540h531l33 174h45v-250h-955zM489 1454l166 260h154l-244 -260h-76z" />
<glyph unicode="&#xca;" horiz-adv-x="1257" d="M143 0v45l176 33v1147l-176 32v46h940v-250h-45l-32 176h-517v-537h394l32 156h46v-387h-46l-32 155h-394v-540h531l33 174h45v-250h-955zM424 1454l166 260h153l166 -260h-75l-166 178l-168 -178h-76z" />
<glyph unicode="&#xcb;" horiz-adv-x="1257" d="M143 0v45l176 33v1147l-176 32v46h940v-250h-45l-32 176h-517v-537h394l32 156h46v-387h-46l-32 155h-394v-540h531l33 174h45v-250h-955zM319 1536q0 41 31 71.5t74 30.5q41 0 71.5 -30.5t30.5 -71.5q0 -43 -30.5 -73.5t-71.5 -30.5q-43 0 -74 30.5t-31 73.5zM731 1536 q0 42 30.5 72t72.5 30q43 0 73.5 -30.5t30.5 -71.5q0 -43 -30.5 -73.5t-73.5 -30.5t-73 30.5t-30 73.5z" />
<glyph unicode="&#xcc;" horiz-adv-x="804" d="M143 0v45l174 33v1147l-174 32v46h521v-46l-175 -32v-1147l177 -33v-45h-523zM242 1714h153l166 -260h-74z" />
<glyph unicode="&#xcd;" horiz-adv-x="804" d="M143 0v45l174 33v1147l-174 32v46h521v-46l-175 -32v-1147l177 -33v-45h-523zM242 1454l168 260h151l-244 -260h-75z" />
<glyph unicode="&#xce;" horiz-adv-x="804" d="M143 0v45l174 33v1147l-174 32v46h521v-46l-175 -32v-1147l177 -33v-45h-523zM160 1454l166 260h153l166 -260h-76l-168 178l-165 -178h-76z" />
<glyph unicode="&#xcf;" horiz-adv-x="804" d="M129 1536q0 41 30.5 71.5t73.5 30.5q41 0 72 -30.5t31 -71.5q0 -42 -31 -73t-72 -31q-43 0 -73.5 30.5t-30.5 73.5zM143 0v45l174 33v1147l-174 32v46h521v-46l-175 -32v-1147l177 -33v-45h-523zM469 1536q0 41 30.5 71.5t71.5 30.5q43 0 74 -30.5t31 -71.5 q0 -43 -31 -73.5t-74 -30.5q-41 0 -71.5 30.5t-30.5 73.5z" />
<glyph unicode="&#xd0;" horiz-adv-x="1536" d="M143 0v45l174 33v551h-174v45h174v551l-174 32v46h641q315 0 483.5 -169.5t168.5 -482.5t-168 -482t-484 -169h-641zM489 82h289q108 0 192 31.5t137 84.5t87.5 127.5t48.5 154t14 171.5q0 91 -14 171.5t-48.5 156.5t-87.5 130t-137 87t-192 33h-289v-555h314v-45h-314 v-547z" />
<glyph unicode="&#xd1;" horiz-adv-x="1576" d="M100 1257v46h303l771 -975v897l-177 32v46h439v-46l-176 -32v-1225h-41l-816 1032v-954l177 -33v-45h-437v45l174 33v1063l-69 90zM401 1460q29 98 77.5 144.5t129.5 46.5q65 0 135 -41q3 -2 26.5 -15t31.5 -16.5t27.5 -11.5t35.5 -10.5t33 -2.5q27 0 44 2.5t38 11.5 t37 29.5t28 53.5h41q-29 -98 -77 -144.5t-129 -46.5q-66 0 -136 41q-5 2 -27 14.5t-30.5 16.5t-26.5 11.5t-34.5 10t-34.5 2.5q-27 0 -43.5 -2.5t-38 -11t-37.5 -29t-29 -53.5h-41z" />
<glyph unicode="&#xd2;" horiz-adv-x="1505" d="M102 651q0 326 168 502t484 176q315 0 483 -176.5t168 -501.5t-168 -500.5t-483 -175.5q-317 0 -484.5 175.5t-167.5 500.5zM281 651q0 -95 13 -177t47 -160t86 -132.5t135.5 -87.5t191.5 -33q107 0 190.5 33t136 87.5t86 132t47 160t13.5 177.5t-13.5 177.5t-47 160 t-86 132t-136 87.5t-190.5 33q-108 0 -191.5 -33t-135.5 -87.5t-86 -132.5t-47 -160t-13 -177zM592 1714h153l166 -260h-73z" />
<glyph unicode="&#xd3;" horiz-adv-x="1505" d="M102 651q0 326 168 502t484 176q315 0 483 -176.5t168 -501.5t-168 -500.5t-483 -175.5q-317 0 -484.5 175.5t-167.5 500.5zM281 651q0 -95 13 -177t47 -160t86 -132.5t135.5 -87.5t191.5 -33q107 0 190.5 33t136 87.5t86 132t47 160t13.5 177.5t-13.5 177.5t-47 160 t-86 132t-136 87.5t-190.5 33q-108 0 -191.5 -33t-135.5 -87.5t-86 -132.5t-47 -160t-13 -177zM592 1454l168 260h151l-243 -260h-76z" />
<glyph unicode="&#xd4;" horiz-adv-x="1505" d="M102 651q0 326 168 502t484 176q315 0 483 -176.5t168 -501.5t-168 -500.5t-483 -175.5q-317 0 -484.5 175.5t-167.5 500.5zM281 651q0 -95 13 -177t47 -160t86 -132.5t135.5 -87.5t191.5 -33q107 0 190.5 33t136 87.5t86 132t47 160t13.5 177.5t-13.5 177.5t-47 160 t-86 132t-136 87.5t-190.5 33q-108 0 -191.5 -33t-135.5 -87.5t-86 -132.5t-47 -160t-13 -177zM510 1454l166 260h153l166 -260h-75l-168 178l-166 -178h-76z" />
<glyph unicode="&#xd5;" horiz-adv-x="1505" d="M102 651q0 326 168 502t484 176q315 0 483 -176.5t168 -501.5t-168 -500.5t-483 -175.5q-317 0 -484.5 175.5t-167.5 500.5zM281 651q0 -95 13 -177t47 -160t86 -132.5t135.5 -87.5t191.5 -33q107 0 190.5 33t136 87.5t86 132t47 160t13.5 177.5t-13.5 177.5t-47 160 t-86 132t-136 87.5t-190.5 33q-108 0 -191.5 -33t-135.5 -87.5t-86 -132.5t-47 -160t-13 -177zM410 1460q30 99 78 145t130 46q64 0 134 -41q6 -3 34.5 -18.5t39.5 -20t34 -11t45 -6.5q27 0 44.5 2.5t38.5 11.5t37 29.5t28 53.5h41q-29 -98 -77.5 -144.5t-129.5 -46.5 q-65 0 -135 41q-6 3 -22.5 12.5t-24.5 13.5t-23 10.5t-26 10t-26 6t-30 2.5q-27 0 -44 -2.5t-38.5 -11t-37.5 -29t-29 -53.5h-41z" />
<glyph unicode="&#xd6;" horiz-adv-x="1505" d="M102 651q0 326 168 502t484 176q315 0 483 -176.5t168 -501.5t-168 -500.5t-483 -175.5q-317 0 -484.5 175.5t-167.5 500.5zM281 651q0 -95 13 -177t47 -160t86 -132.5t135.5 -87.5t191.5 -33q107 0 190.5 33t136 87.5t86 132t47 160t13.5 177.5t-13.5 177.5t-47 160 t-86 132t-136 87.5t-190.5 33q-108 0 -191.5 -33t-135.5 -87.5t-86 -132.5t-47 -160t-13 -177zM444 1536q0 42 30 72t73 30q42 0 72 -30t30 -72q0 -43 -29.5 -73.5t-72.5 -30.5t-73 30.5t-30 73.5zM854 1536q0 41 30.5 71.5t73.5 30.5q42 0 72.5 -30t30.5 -72 q0 -43 -30 -73.5t-73 -30.5t-73.5 30.5t-30.5 73.5z" />
<glyph unicode="&#xd7;" horiz-adv-x="1153" d="M193 127l319 322l-319 321l63 64l319 -322l322 322l64 -64l-320 -321l320 -322l-64 -64l-322 322l-319 -322z" />
<glyph unicode="&#xd8;" horiz-adv-x="1505" d="M102 651q0 326 167.5 502t482.5 176q255 0 407 -110l70 84h104l-110 -136q180 -177 180 -516q0 -326 -167 -501t-484 -175q-250 0 -406 111l-70 -86h-104l111 137q-181 175 -181 514zM279 651q0 -255 94 -401l706 870q-121 121 -327 121q-107 0 -190.5 -33t-136 -87.5 t-86 -132t-47 -160t-13.5 -177.5zM424 184q120 -123 328 -123q108 0 191.5 33t136 87.5t86.5 132t47.5 160t13.5 177.5q0 251 -97 402z" />
<glyph unicode="&#xd9;" horiz-adv-x="1648" d="M143 1257v46h502v-46l-156 -30v-768q0 -224 78.5 -323t257.5 -99q239 0 340 168v1022l-157 30v46h501v-46l-174 -32v-1149l176 -31v-45l-346 -2v115q-130 -140 -350 -140q-496 0 -496 486v766zM666 1714h151l168 -260h-76z" />
<glyph unicode="&#xda;" horiz-adv-x="1648" d="M143 1257v46h502v-46l-156 -30v-768q0 -224 78.5 -323t257.5 -99q239 0 340 168v1022l-157 30v46h501v-46l-174 -32v-1149l176 -31v-45l-346 -2v115q-130 -140 -350 -140q-496 0 -496 486v766zM666 1454l165 260h154l-246 -260h-73z" />
<glyph unicode="&#xdb;" horiz-adv-x="1648" d="M143 1257v46h502v-46l-156 -30v-768q0 -224 78.5 -323t257.5 -99q239 0 340 168v1022l-157 30v46h501v-46l-174 -32v-1149l176 -31v-45l-346 -2v115q-130 -140 -350 -140q-496 0 -496 486v766zM582 1454l166 260h153l166 -260h-76l-166 178l-168 -178h-75z" />
<glyph unicode="&#xdc;" horiz-adv-x="1648" d="M143 1257v46h502v-46l-156 -30v-768q0 -224 78.5 -323t257.5 -99q239 0 340 168v1022l-157 30v46h501v-46l-174 -32v-1149l176 -31v-45l-346 -2v115q-130 -140 -350 -140q-496 0 -496 486v766zM516 1536q0 42 30 72t72 30q43 0 74 -30.5t31 -71.5q0 -43 -31 -73.5 t-74 -30.5t-72.5 30.5t-29.5 73.5zM928 1536q0 42 30 72t72 30t72.5 -30t30.5 -72q0 -43 -30 -73.5t-73 -30.5t-72.5 30.5t-29.5 73.5z" />
<glyph unicode="&#xdd;" horiz-adv-x="1163" d="M0 1257v46h496v-46l-156 -32l295 -596l274 596l-155 32v46h409v-46l-176 -32l-307 -674v-473l176 -33v-45h-522v45l176 33v473l-334 674zM422 1454l166 260h153l-243 -260h-76z" />
<glyph unicode="&#xde;" horiz-adv-x="1284" d="M141 1378v47h533v-47l-187 -30v-164h287q186 0 298 -98t112 -273q0 -70 -21 -127.5t-53 -94.5t-79 -64.5t-91 -42t-97 -23t-88.5 -10.5t-74.5 -2h-191v-371l185 -33v-45h-531v45l174 33v1270zM489 520h240q88 0 154 46t97.5 113.5t31.5 141.5q0 75 -26 138t-87 106 t-149 43h-261v-588z" />
<glyph unicode="&#xdf;" horiz-adv-x="1228" d="M39 854v45h176v404q5 3 15 8q68 36 113.5 57.5t135 45.5t176.5 24q165 0 247.5 -64.5t82.5 -222.5q0 -52 -19 -98.5t-44 -77.5t-64 -60t-64 -42.5t-59.5 -30t-36.5 -17.5q-26 -14 -45.5 -45t-19.5 -65q0 -32 19 -58.5t56.5 -49.5t74.5 -40.5t93 -42t91 -43.5 q48 -25 73 -41.5t55 -45t43 -66t13 -88.5q0 -67 -27 -120.5t-70.5 -84t-92.5 -46.5t-99 -16q-29 0 -54 1.5t-46.5 6.5t-37.5 8.5t-33 12t-25.5 12t-22.5 14.5t-17.5 13.5t-16.5 14.5l-13 12l-37 -68h-47v293h70q0 -95 73 -171.5t183 -76.5q23 0 51 6.5t60.5 20t53.5 42.5 t21 68q0 41 -28.5 75.5t-74.5 60.5t-101 51t-110 52.5t-101 58.5t-74.5 75.5t-28.5 97.5q0 50 9.5 88t31 65t37.5 41t45 34q34 23 61.5 43.5t47.5 36t35 34t24.5 28.5t16 28.5t9.5 24t4.5 25.5t1.5 23.5v26.5q0 41 -10.5 79.5t-33 73t-64 55.5t-96.5 21q-114 0 -183 -81.5 t-69 -208.5v-1090h-316v45l158 33v743z" />
<glyph unicode="&#xe0;" horiz-adv-x="909" d="M92 209q0 80 47 142t119 95t143.5 49.5t133.5 16.5v88v10q0 24 -0.5 38t-4 41.5t-10 45t-20.5 40t-34 35.5t-51 22.5t-71 9.5h-131l-33 -140h-45v148q66 45 105.5 59.5t103.5 14.5q70 0 125 -11t91 -28t62 -45t39 -53.5t20.5 -62t9 -62t1.5 -62.5v-522l142 -33v-45h-281 l-14 76q-108 -90 -213 -100t-169.5 54t-64.5 179zM252 1303h154l165 -261h-75zM260 238q0 -115 81 -145.5t194 34.5v324q-31 0 -64 -5t-72 -19.5t-69 -37t-50 -62t-20 -89.5z" />
<glyph unicode="&#xe1;" horiz-adv-x="909" d="M92 209q0 80 47 142t119 95t143.5 49.5t133.5 16.5v88v10q0 24 -0.5 38t-4 41.5t-10 45t-20.5 40t-34 35.5t-51 22.5t-71 9.5h-131l-33 -140h-45v148q66 45 105.5 59.5t103.5 14.5q70 0 125 -11t91 -28t62 -45t39 -53.5t20.5 -62t9 -62t1.5 -62.5v-522l142 -33v-45h-281 l-14 76q-108 -90 -213 -100t-169.5 54t-64.5 179zM256 1042l166 261h153l-245 -261h-74zM260 238q0 -115 81 -145.5t194 34.5v324q-31 0 -64 -5t-72 -19.5t-69 -37t-50 -62t-20 -89.5z" />
<glyph unicode="&#xe2;" horiz-adv-x="909" d="M92 209q0 80 47 142t119 95t143.5 49.5t133.5 16.5v88v10q0 24 -0.5 38t-4 41.5t-10 45t-20.5 40t-34 35.5t-51 22.5t-71 9.5h-131l-33 -140h-45v148q66 45 105.5 59.5t103.5 14.5q70 0 125 -11t91 -28t62 -45t39 -53.5t20.5 -62t9 -62t1.5 -62.5v-522l142 -33v-45h-281 l-14 76q-108 -90 -213 -100t-169.5 54t-64.5 179zM170 1042l166 261h153l166 -261h-73l-168 179l-168 -179h-76zM260 238q0 -115 81 -145.5t194 34.5v324q-31 0 -64 -5t-72 -19.5t-69 -37t-50 -62t-20 -89.5z" />
<glyph unicode="&#xe3;" horiz-adv-x="909" d="M92 209q0 80 47 142t119 95t143.5 49.5t133.5 16.5v88v10q0 24 -0.5 38t-4 41.5t-10 45t-20.5 40t-34 35.5t-51 22.5t-71 9.5h-131l-33 -140h-45v148q66 45 105.5 59.5t103.5 14.5q70 0 125 -11t91 -28t62 -45t39 -53.5t20.5 -62t9 -62t1.5 -62.5v-522l142 -33v-45h-281 l-14 76q-108 -90 -213 -100t-169.5 54t-64.5 179zM127 1047q24 99 64.5 144.5t109.5 45.5q49 0 113 -39q4 -2 20 -13t21 -14t19 -11t22.5 -10.5t21.5 -5.5t25 -3q23 0 37.5 2.5t32.5 11t31.5 29t23.5 53.5h34q-24 -98 -64.5 -144t-109.5 -46q-48 0 -114 40q-1 1 -12.5 9 t-13.5 9.5t-12.5 8t-14.5 8t-13 6.5t-15 6.5t-14.5 4t-16.5 3.5t-17 1q-19 0 -29.5 -1t-26.5 -6t-27 -14.5t-22.5 -28.5t-19.5 -46h-33zM260 238q0 -115 81 -145.5t194 34.5v324q-31 0 -64 -5t-72 -19.5t-69 -37t-50 -62t-20 -89.5z" />
<glyph unicode="&#xe4;" horiz-adv-x="909" d="M92 209q0 80 47 142t119 95t143.5 49.5t133.5 16.5v88v10q0 24 -0.5 38t-4 41.5t-10 45t-20.5 40t-34 35.5t-51 22.5t-71 9.5h-131l-33 -140h-45v148q66 45 105.5 59.5t103.5 14.5q70 0 125 -11t91 -28t62 -45t39 -53.5t20.5 -62t9 -62t1.5 -62.5v-522l142 -33v-45h-281 l-14 76q-108 -90 -213 -100t-169.5 54t-64.5 179zM133 1145q0 43 30.5 73.5t72.5 30.5q43 0 73.5 -30.5t30.5 -73.5t-30.5 -73t-73.5 -30q-42 0 -72.5 30.5t-30.5 72.5zM260 238q0 -115 81 -145.5t194 34.5v324q-31 0 -64 -5t-72 -19.5t-69 -37t-50 -62t-20 -89.5zM492 1145 q0 43 30.5 73.5t73.5 30.5q41 0 71.5 -30.5t30.5 -73.5t-30 -73t-72 -30q-43 0 -73.5 30t-30.5 73z" />
<glyph unicode="&#xe5;" horiz-adv-x="909" d="M92 209q0 80 47 142t119 95t143.5 49.5t133.5 16.5v88v10q0 24 -0.5 38t-4 41.5t-10 45t-20.5 40t-34 35.5t-51 22.5t-71 9.5h-131l-33 -140h-45v148q66 45 105.5 59.5t103.5 14.5q70 0 125 -11t91 -28t62 -45t39 -53.5t20.5 -62t9 -62t1.5 -62.5v-522l142 -33v-45h-281 l-14 76q-108 -90 -213 -100t-169.5 54t-64.5 179zM260 238q0 -115 81 -145.5t194 34.5v324q-31 0 -64 -5t-72 -19.5t-69 -37t-50 -62t-20 -89.5zM268 1159q0 60 42 102t102 42t101.5 -42t41.5 -102t-41.5 -101.5t-101.5 -41.5t-102 41.5t-42 101.5zM303 1159q0 -44 32.5 -76 t76.5 -32q45 0 76.5 31.5t31.5 76.5q0 46 -31 77.5t-77 31.5q-45 0 -77 -32t-32 -77z" />
<glyph unicode="&#xe6;" horiz-adv-x="1439" d="M92 209q0 80 47 142t119 95t143.5 49.5t133.5 16.5v88v10q0 24 -0.5 38t-4 41.5t-10 45t-20.5 40t-34 35.5t-51 22.5t-71 9.5h-131l-33 -140h-45v148q66 45 106 59.5t103 14.5q237 0 309 -123q120 123 344 123q151 0 259 -94t108 -255v-67h-659q-1 -8 -1 -17.5t0.5 -21.5 t0.5 -18q0 -191 78.5 -294.5t238.5 -103.5q7 0 19 1t47 8t69 20t77.5 41.5t78.5 66.5l45 -57q-1 -1 -21.5 -17.5t-28 -22l-30 -22t-37 -24t-39 -21.5t-45.5 -21t-48 -15t-55 -11.5t-57 -3.5q-266 0 -381 164q-75 -73 -156.5 -118.5t-150.5 -45.5q-108 -1 -162.5 64.5 t-54.5 169.5zM262 238q0 -58 24.5 -97t67 -53t106 7t134.5 79q-59 113 -59 262v15q-31 0 -64 -5t-71.5 -19.5t-68 -37t-49.5 -62t-20 -89.5zM713 582h483v36q0 119 -54.5 179.5t-144.5 60.5q-123 0 -193 -73.5t-91 -202.5z" />
<glyph unicode="&#xe7;" horiz-adv-x="923" d="M94 438q0 232 123.5 359t355.5 127q7 0 19 -0.5t46 -6t65.5 -14t70 -27.5t66.5 -45v-198h-45l-35 147q-46 50 -85 64t-102 14q-103 0 -175.5 -55t-106 -144.5t-33.5 -203.5q0 -187 88 -298.5t246 -111.5q5 0 14 0.5t36 5.5t52.5 13.5t59.5 27t61 43.5l37 -53 q-40 -29 -55 -38.5t-55.5 -30.5t-82 -29.5t-92.5 -8.5q-47 0 -78 5l-55 -125q24 5 52 7t57.5 -8t53 -26.5t39 -47t15.5 -69.5q0 -64 -53 -104.5t-140 -42.5t-200 43l21 45q125 -47 190.5 -28t65.5 87q0 35 -17 56.5t-44 27t-54 4t-55 -9.5l-21 12l82 187q-78 17 -138.5 54.5 t-96 82.5t-58.5 102t-31 107.5t-8 103.5z" />
<glyph unicode="&#xe8;" horiz-adv-x="1005" d="M94 436q0 235 116 361.5t347 126.5q96 0 178 -39.5t134.5 -120.5t52.5 -189v-67h-660q-1 -8 -1 -17.5t0.5 -21.5t0.5 -18q0 -191 79.5 -294.5t240.5 -103.5q7 0 18.5 1t47 8t68.5 20t76.5 41.5t77.5 66.5l45 -57q-81 -67 -127 -93q-112 -65 -231 -65q-113 0 -199 31 t-135 77t-79.5 111t-40 122t-9.5 120zM272 582h484v36q0 119 -54.5 179.5t-144.5 60.5q-239 0 -285 -276zM344 1303h152l168 -261h-76z" />
<glyph unicode="&#xe9;" horiz-adv-x="1005" d="M94 436q0 235 116 361.5t347 126.5q96 0 178 -39.5t134.5 -120.5t52.5 -189v-67h-660q-1 -8 -1 -17.5t0.5 -21.5t0.5 -18q0 -191 79.5 -294.5t240.5 -103.5q7 0 18.5 1t47 8t68.5 20t76.5 41.5t77.5 66.5l45 -57q-81 -67 -127 -93q-112 -65 -231 -65q-113 0 -199 31 t-135 77t-79.5 111t-40 122t-9.5 120zM272 582h484v36q0 119 -54.5 179.5t-144.5 60.5q-239 0 -285 -276zM344 1042l166 261h154l-246 -261h-74z" />
<glyph unicode="&#xea;" horiz-adv-x="1005" d="M94 436q0 235 116 361.5t347 126.5q96 0 178 -39.5t134.5 -120.5t52.5 -189v-67h-660q-1 -8 -1 -17.5t0.5 -21.5t0.5 -18q0 -191 79.5 -294.5t240.5 -103.5q7 0 18.5 1t47 8t68.5 20t76.5 41.5t77.5 66.5l45 -57q-81 -67 -127 -93q-112 -65 -231 -65q-113 0 -199 31 t-135 77t-79.5 111t-40 122t-9.5 120zM272 582h484v36q0 119 -54.5 179.5t-144.5 60.5q-239 0 -285 -276zM313 1042l166 261h154l166 -261h-76l-168 179l-166 -179h-76z" />
<glyph unicode="&#xeb;" horiz-adv-x="1005" d="M94 436q0 235 116 361.5t347 126.5q96 0 178 -39.5t134.5 -120.5t52.5 -189v-67h-660q-1 -8 -1 -17.5t0.5 -21.5t0.5 -18q0 -191 79.5 -294.5t240.5 -103.5q7 0 18.5 1t47 8t68.5 20t76.5 41.5t77.5 66.5l45 -57q-81 -67 -127 -93q-112 -65 -231 -65q-113 0 -199 31 t-135 77t-79.5 111t-40 122t-9.5 120zM195 1145q0 43 29.5 73.5t72.5 30.5t73.5 -30.5t30.5 -73.5t-30.5 -73t-73.5 -30t-72.5 30t-29.5 73zM272 582h484v36q0 119 -54.5 179.5t-144.5 60.5q-239 0 -285 -276zM606 1145q0 43 30 73.5t73 30.5t72.5 -30.5t29.5 -73.5 t-29.5 -73t-72.5 -30t-73 30t-30 73z" />
<glyph unicode="&#xec;" horiz-adv-x="585" d="M39 854v45h334v-821l155 -33v-45h-471v45l158 33v743zM133 1303h154l166 -261h-76z" />
<glyph unicode="&#xed;" horiz-adv-x="585" d="M39 854v45h334v-821l155 -33v-45h-471v45l158 33v743zM133 1042l166 261h154l-244 -261h-76z" />
<glyph unicode="&#xee;" horiz-adv-x="585" d="M39 854v45h334v-821l155 -33v-45h-471v45l158 33v743zM39 1042l166 261h153l166 -261h-75l-166 179l-168 -179h-76z" />
<glyph unicode="&#xef;" horiz-adv-x="585" d="M39 854v45h334v-821l155 -33v-45h-471v45l158 33v743zM39 1145q0 43 30.5 73.5t71.5 30.5q43 0 74 -30.5t31 -73.5t-31 -73t-74 -30q-41 0 -71.5 30t-30.5 73zM322 1145q0 43 30.5 73.5t73.5 30.5t72.5 -30.5t29.5 -73.5t-29.5 -73t-72.5 -30t-73.5 30t-30.5 73z" />
<glyph unicode="&#xf0;" d="M90 412q0 417 359 417q54 0 94.5 -5t98.5 -21.5t114.5 -57t107.5 -102.5q-24 294 -194 492l-224 -162l-26 37l219 159q-82 85 -178 136q-128 71 -297 71h-21v49h62q105 0 216.5 -27t178.5 -67q78 -46 135 -92l219 158l27 -37l-209 -152q138 -119 205 -275.5t67 -373.5 q0 -148 -35 -262t-96.5 -183t-141.5 -104t-175 -35q-227 0 -366.5 116.5t-139.5 320.5zM264 397q0 -157 85 -263.5t224 -106.5q72 0 124.5 26.5t91.5 87t59 164.5t20 254q0 1 -1 3.5t-1 4.5q-64 84 -160.5 138.5t-175.5 54.5q-266 0 -266 -363z" />
<glyph unicode="&#xf1;" horiz-adv-x="1196" d="M39 854v45h319l15 -76l162 60q118 41 170 41q54 0 97.5 -18t71 -43.5t47 -65t29 -71.5t15 -75t6 -64t0.5 -48v-461l155 -33v-45h-448v45l135 33v444v7q1 305 -201 307q-39 0 -137 -37l-102 -39v-682l155 -33v-45h-471v45l156 33v743zM252 1047q30 98 78.5 144t130.5 46 q63 0 133 -41q7 -4 28 -15t31 -15.5t27.5 -11.5t34 -10t33.5 -3q27 0 44 2.5t38.5 11t37 29t27.5 53.5h41q-28 -98 -77 -144t-130 -46q-67 0 -135 40q-6 3 -27 14.5t-30.5 16.5t-27 12t-34 10t-33.5 3q-27 0 -44 -2.5t-38.5 -11t-37.5 -29t-29 -53.5h-41z" />
<glyph unicode="&#xf2;" horiz-adv-x="1087" d="M82 449q0 228 117.5 351.5t337.5 123.5q222 0 339 -123.5t117 -351.5q0 -227 -117.5 -350.5t-338.5 -123.5q-220 0 -337.5 123.5t-117.5 350.5zM248 449q0 -116 29.5 -205.5t96 -146t163.5 -56.5q98 0 164.5 56.5t96 146t29.5 205.5t-29 205.5t-96 146.5t-165 57 q-97 0 -163.5 -57t-96 -146.5t-29.5 -205.5zM383 1303h154l165 -261h-73z" />
<glyph unicode="&#xf3;" horiz-adv-x="1087" d="M82 449q0 228 117.5 351.5t337.5 123.5q222 0 339 -123.5t117 -351.5q0 -227 -117.5 -350.5t-338.5 -123.5q-220 0 -337.5 123.5t-117.5 350.5zM248 449q0 -116 29.5 -205.5t96 -146t163.5 -56.5q98 0 164.5 56.5t96 146t29.5 205.5t-29 205.5t-96 146.5t-165 57 q-97 0 -163.5 -57t-96 -146.5t-29.5 -205.5zM383 1042l168 261h151l-243 -261h-76z" />
<glyph unicode="&#xf4;" horiz-adv-x="1087" d="M82 449q0 228 117.5 351.5t337.5 123.5q222 0 339 -123.5t117 -351.5q0 -227 -117.5 -350.5t-338.5 -123.5q-220 0 -337.5 123.5t-117.5 350.5zM248 449q0 -116 29.5 -205.5t96 -146t163.5 -56.5q98 0 164.5 56.5t96 146t29.5 205.5t-29 205.5t-96 146.5t-165 57 q-97 0 -163.5 -57t-96 -146.5t-29.5 -205.5zM301 1042l166 261h154l165 -261h-75l-168 179l-166 -179h-76z" />
<glyph unicode="&#xf5;" horiz-adv-x="1087" d="M82 449q0 228 117.5 351.5t337.5 123.5q222 0 339 -123.5t117 -351.5q0 -227 -117.5 -350.5t-338.5 -123.5q-220 0 -337.5 123.5t-117.5 350.5zM201 1047q30 98 78.5 144t130.5 46q63 0 133 -41q8 -4 28 -15t30.5 -16t27.5 -11.5t33.5 -9.5t33.5 -3q37 0 59 4t48 26.5 t41 65.5h41q-28 -98 -77 -144t-130 -46q-64 0 -135 40q-6 3 -27 14.5t-30.5 16.5t-27 12t-34 10t-33.5 3q-27 0 -44 -2.5t-38.5 -11t-37 -29t-27.5 -53.5h-43zM248 449q0 -116 29.5 -205.5t96 -146t163.5 -56.5q98 0 164.5 56.5t96 146t29.5 205.5t-29 205.5t-96 146.5 t-165 57q-97 0 -163.5 -57t-96 -146.5t-29.5 -205.5z" />
<glyph unicode="&#xf6;" horiz-adv-x="1087" d="M82 449q0 228 117.5 351.5t337.5 123.5q222 0 339 -123.5t117 -351.5q0 -227 -117.5 -350.5t-338.5 -123.5q-220 0 -337.5 123.5t-117.5 350.5zM236 1145q0 43 29.5 73.5t72.5 30.5t72.5 -30.5t29.5 -73.5t-29.5 -73t-72.5 -30t-72.5 30t-29.5 73zM248 449 q0 -116 29.5 -205.5t96 -146t163.5 -56.5q98 0 164.5 56.5t96 146t29.5 205.5t-29 205.5t-96 146.5t-165 57q-97 0 -163.5 -57t-96 -146.5t-29.5 -205.5zM645 1145q0 43 31 73.5t74 30.5t72.5 -30.5t29.5 -73.5t-29.5 -73t-72.5 -30t-74 30t-31 73z" />
<glyph unicode="&#xf7;" horiz-adv-x="1153" d="M125 403v91h901v-91h-901zM479 139q0 41 29 70t70 29q40 0 69 -29t29 -70q0 -40 -29 -69t-69 -29q-41 0 -70 29t-29 69zM479 760q0 41 29 69.5t70 28.5q40 0 69 -28.5t29 -69.5q0 -40 -29 -69t-69 -29q-41 0 -70 29t-29 69z" />
<glyph unicode="&#xf8;" horiz-adv-x="1087" d="M82 449q0 228 117.5 351.5t339.5 123.5q169 0 278 -74l39 47h105l-82 -100q114 -120 114 -348q0 -227 -117 -350.5t-337 -123.5q-164 0 -273 68l-35 -43h-104l76 94q-121 127 -121 355zM250 449q0 -141 43 -242l450 553q-78 98 -204 98q-98 0 -164.5 -57t-95.5 -146.5 t-29 -205.5zM338 133q76 -92 201 -92q74 0 130.5 32t90 88.5t50.5 129t17 158.5q0 139 -41 235z" />
<glyph unicode="&#xf9;" horiz-adv-x="1177" d="M39 852v45h315v-522q0 -121 22 -184q45 -129 177 -130q39 0 137 37l105 39v684l-156 31v45h313v-821l174 -31v-45l-317 -2l-14 76l-164 -58q-114 -43 -170 -43q-54 0 -97 18t-70 44t-46.5 65.5t-29 71.5t-15 74.5t-6 63.5t-0.5 48v463zM354 1303h154l166 -261h-76z" />
<glyph unicode="&#xfa;" horiz-adv-x="1177" d="M39 852v45h315v-522q0 -121 22 -184q45 -129 177 -130q39 0 137 37l105 39v684l-156 31v45h313v-821l174 -31v-45l-317 -2l-14 76l-164 -58q-114 -43 -170 -43q-54 0 -97 18t-70 44t-46.5 65.5t-29 71.5t-15 74.5t-6 63.5t-0.5 48v463zM356 1042l166 261h154l-244 -261 h-76z" />
<glyph unicode="&#xfb;" horiz-adv-x="1177" d="M39 852v45h315v-522q0 -121 22 -184q45 -129 177 -130q39 0 137 37l105 39v684l-156 31v45h313v-821l174 -31v-45l-317 -2l-14 76l-164 -58q-114 -43 -170 -43q-54 0 -97 18t-70 44t-46.5 65.5t-29 71.5t-15 74.5t-6 63.5t-0.5 48v463zM315 1042l166 261h154l166 -261 h-76l-168 179l-166 -179h-76z" />
<glyph unicode="&#xfc;" horiz-adv-x="1177" d="M39 852v45h315v-522q0 -121 22 -184q45 -129 177 -130q39 0 137 37l105 39v684l-156 31v45h313v-821l174 -31v-45l-317 -2l-14 76l-164 -58q-114 -43 -170 -43q-54 0 -97 18t-70 44t-46.5 65.5t-29 71.5t-15 74.5t-6 63.5t-0.5 48v463zM266 1145q0 43 31 73.5t74 30.5 t72.5 -30.5t29.5 -73.5t-29.5 -73t-72.5 -30t-74 30t-31 73zM678 1145q0 43 29.5 73.5t72.5 30.5t74 -30.5t31 -73.5t-31 -73t-74 -30t-72.5 30t-29.5 73z" />
<glyph unicode="&#xfd;" horiz-adv-x="942" d="M0 854v45h426v-45l-137 -33l246 -583l217 583l-136 33v45h326v-45l-113 -33l-493 -1333h-105l-176 33v45h205l182 475l-329 780zM356 1042l166 261h154l-244 -261h-76z" />
<glyph unicode="&#xfe;" horiz-adv-x="1146" d="M39 1257v46h334v-469l135 51q107 39 197 39q77 0 138.5 -28t100 -73.5t64.5 -107t36.5 -124.5t10.5 -130q0 -234 -116 -360t-347 -126q-119 0 -219 60v-469l200 -33v-45h-516v45l158 33v1659zM373 182q31 -69 88.5 -103t128.5 -34q152 0 225.5 109.5t73.5 289.5 q0 194 -62 293t-215 99q-14 0 -35 -4.5t-36.5 -10t-37.5 -13t-28 -9.5l-102 -39v-578z" />
<glyph unicode="&#xff;" horiz-adv-x="942" d="M0 854v45h426v-45l-137 -33l246 -583l217 583l-136 33v45h326v-45l-113 -33l-493 -1333h-105l-176 33v45h205l182 475l-329 780zM211 1145q0 43 29.5 73.5t72.5 30.5t73 -30.5t30 -73.5t-30 -73t-73 -30t-72.5 30t-29.5 73zM621 1145q0 43 30.5 73.5t73.5 30.5 q41 0 71.5 -30.5t30.5 -73.5t-30.5 -73t-71.5 -30q-43 0 -73.5 30t-30.5 73z" />
<glyph unicode="&#x152;" horiz-adv-x="2039" d="M260 651q0 326 167 502t482 176q126 0 224 -26h733v-250h-47l-31 176h-518v-537h393l33 156h45v-387h-45l-33 155h-393v-540h532l31 174h47v-250h-756q-98 -25 -215 -25q-315 0 -482 175.5t-167 500.5zM436 651q0 -95 13.5 -177.5t47 -160t86 -132t136 -87.5t190.5 -33 q109 0 191 31v1118q-82 31 -191 31q-107 0 -190.5 -33t-136 -87.5t-86 -132t-47 -160t-13.5 -177.5z" />
<glyph unicode="&#x153;" horiz-adv-x="1736" d="M82 449q0 228 117.5 351.5t339.5 123.5q126 0 224 -47t148 -129q50 83 147.5 129.5t229.5 46.5q96 0 178.5 -39.5t135.5 -120.5t53 -189v-67h-662v-57q0 -191 79.5 -294.5t240.5 -103.5q7 0 19 1t47 8t68.5 20t77 41.5t77.5 66.5l47 -57q-1 -1 -21.5 -17.5t-28 -22 l-30 -22t-37 -24t-39 -21.5t-45.5 -21t-48 -15t-55 -11.5t-57 -3.5q-142 0 -237.5 47.5t-141.5 124.5q-53 -82 -148.5 -127t-221.5 -45q-222 0 -339.5 123.5t-117.5 350.5zM250 449q0 -116 29 -205.5t95.5 -146t164.5 -56.5q74 0 130.5 32t90 88.5t50.5 129t17 158.5 q0 116 -28.5 205.5t-95 146.5t-164.5 57t-164.5 -57t-95.5 -146.5t-29 -205.5zM1004 582h483v36q0 119 -54.5 179.5t-144.5 60.5q-238 0 -284 -276z" />
<glyph unicode="&#x178;" horiz-adv-x="1163" d="M0 1257v46h496v-46l-156 -32l295 -596l274 596l-155 32v46h409v-46l-176 -32l-307 -674v-473l176 -33v-45h-522v45l176 33v473l-334 674zM289 1536q0 43 30.5 72.5t73.5 29.5q42 0 72.5 -30t30.5 -72t-30.5 -72t-72.5 -30q-43 0 -73.5 29.5t-30.5 72.5zM756 1536 q0 42 30 72t72 30q43 0 74 -30t31 -72t-31 -72t-74 -30q-42 0 -72 30t-30 72z" />
<glyph unicode="&#x2c6;" horiz-adv-x="485" d="M0 1042l166 261h153l166 -261h-75l-166 179l-168 -179h-76z" />
<glyph unicode="&#x2dc;" horiz-adv-x="684" d="M0 1047q28 98 77 144t130 46q65 0 135 -41q3 -1 26.5 -14.5t31 -16.5t27 -11t35.5 -10.5t34 -2.5q27 0 44 2.5t38.5 11t37 29t27.5 53.5h41q-28 -98 -77 -144t-130 -46q-67 0 -135 40q-6 3 -27 15t-30.5 16.5t-27.5 11.5t-34.5 10t-34.5 3q-26 0 -43 -2.5t-38 -11 t-37 -29t-29 -53.5h-41z" />
<glyph unicode="&#x2000;" horiz-adv-x="857" />
<glyph unicode="&#x2001;" horiz-adv-x="1714" />
<glyph unicode="&#x2002;" horiz-adv-x="857" />
<glyph unicode="&#x2003;" horiz-adv-x="1714" />
<glyph unicode="&#x2004;" horiz-adv-x="571" />
<glyph unicode="&#x2005;" horiz-adv-x="428" />
<glyph unicode="&#x2006;" horiz-adv-x="285" />
<glyph unicode="&#x2007;" horiz-adv-x="285" />
<glyph unicode="&#x2008;" horiz-adv-x="214" />
<glyph unicode="&#x2009;" horiz-adv-x="342" />
<glyph unicode="&#x200a;" horiz-adv-x="95" />
<glyph unicode="&#x2010;" horiz-adv-x="583" d="M78 424v90h428v-90h-428z" />
<glyph unicode="&#x2011;" horiz-adv-x="583" d="M78 424v90h428v-90h-428z" />
<glyph unicode="&#x2012;" horiz-adv-x="583" d="M78 424v90h428v-90h-428z" />
<glyph unicode="&#x2013;" horiz-adv-x="1153" d="M78 424v90h997v-90h-997z" />
<glyph unicode="&#x2014;" horiz-adv-x="1970" d="M0 424v90h1970v-90h-1970z" />
<glyph unicode="&#x2018;" horiz-adv-x="514" d="M115 1266v39q0 51 35 85.5t86 34.5t85.5 -34.5t34.5 -85.5q0 -52 -31 -86.5t-81 -34.5h-11v-113l105 -82l-21 -43q-202 57 -202 320z" />
<glyph unicode="&#x2019;" horiz-adv-x="514" d="M158 1305q0 51 35.5 85.5t85.5 34.5q51 0 86.5 -34.5t35.5 -85.5v-39q-5 -264 -204 -320l-19 43l103 82v113h-9q-50 0 -82 34.5t-32 86.5z" />
<glyph unicode="&#x201a;" horiz-adv-x="514" d="M158 106q0 51 35 86t86 35t85.5 -35t34.5 -86v-38q0 -263 -202 -320l-19 43l103 82v113h-9q-50 0 -82 34t-32 86z" />
<glyph unicode="&#x201c;" horiz-adv-x="837" d="M115 1067v39q0 262 202 319l19 -43l-103 -82v-110h11q49 0 80.5 -35.5t31.5 -87.5q0 -50 -34.5 -85.5t-85.5 -35.5t-86 35.5t-35 85.5zM436 1067v39q0 47 8 90t28.5 90.5t63.5 84.5t105 54l18 -43l-102 -82v-110h8q50 0 82.5 -35.5t32.5 -87.5q0 -49 -36 -85t-85 -36 q-51 0 -87 35.5t-36 85.5z" />
<glyph unicode="&#x201d;" horiz-adv-x="837" d="M158 1305q0 51 35 85.5t86 34.5t85.5 -34.5t34.5 -85.5v-39q0 -263 -202 -320l-19 43l103 82v113h-9q-50 0 -82 34.5t-32 86.5zM481 1305q0 51 35 85.5t86 34.5t86 -34.5t35 -85.5v-39q0 -47 -8 -90t-28 -91t-62.5 -85t-104.5 -54l-20 43l104 82v113h-10 q-50 0 -81.5 34.5t-31.5 86.5z" />
<glyph unicode="&#x201e;" horiz-adv-x="837" d="M158 106q0 51 35 86t86 35t85.5 -35t34.5 -86v-38q0 -263 -202 -320l-19 43l103 82v113h-9q-50 0 -82 34t-32 86zM481 106q0 51 35 86t86 35t86 -35t35 -86v-38q0 -47 -8 -90t-28 -91t-62.5 -85t-104.5 -54l-20 43l104 82v113h-10q-50 0 -81.5 34t-31.5 86z" />
<glyph unicode="&#x2022;" d="M238 600q0 134 95 229t228 95t228.5 -95t95.5 -229q0 -135 -95 -229.5t-229 -94.5t-228.5 94.5t-94.5 229.5z" />
<glyph unicode="&#x2026;" horiz-adv-x="1875" d="M158 96q0 51 35 86t86 35t85.5 -35t34.5 -86t-34.5 -86t-85.5 -35t-86 35t-35 86zM838 96q0 51 35 86t85 35q51 0 87 -35t36 -86t-36 -86t-87 -35q-50 0 -85 35t-35 86zM1518 96q0 51 35.5 86t86.5 35q50 0 85.5 -35t35.5 -86t-35.5 -86t-85.5 -35q-51 0 -86.5 35 t-35.5 86z" />
<glyph unicode="&#x202f;" horiz-adv-x="342" />
<glyph unicode="&#x2039;" horiz-adv-x="1017" d="M182 651l654 414v-66l-418 -348l418 -348v-67z" />
<glyph unicode="&#x203a;" horiz-adv-x="1017" d="M182 236v67l418 348l-418 348v66l654 -414z" />
<glyph unicode="&#x205f;" horiz-adv-x="428" />
<glyph unicode="&#x20ac;" horiz-adv-x="1433" d="M61 516l43 90h72v45v45h-115l43 90h80q35 274 217 408.5t496 134.5q164 0 303 -78l31 92h45v-421h-45l-31 174q-66 84 -157.5 117.5t-176.5 33.5q-204 0 -341 -114t-165 -347h736l-43 -90h-699v-24v-66h658l-43 -90h-604q63 -448 532 -448q79 0 161.5 28.5t145.5 85.5 l27 150h45v-271q-123 -51 -208 -69.5t-171 -18.5q-314 0 -496 135t-217 408h-123z" />
<glyph unicode="&#x2122;" horiz-adv-x="1802" d="M168 1161v142h602v-142h-29l-16 86h-203v-536l86 -17v-28h-278v28l86 17v536h-203l-16 -86h-29zM840 666v28l86 17v549l-86 14v29h204l201 -457l207 457h182v-29l-86 -14v-549l86 -17v-28h-278v28l86 17v446l-232 -504l-229 521v-463l86 -17v-28h-227z" />
<glyph unicode="&#x25fc;" horiz-adv-x="901" d="M0 0v901h901v-901h-901z" />
<glyph unicode="&#xfb01;" horiz-adv-x="1193" d="M41 838v59h174v182q0 38 1 64.5t5 60t11.5 57t21 50t32.5 44.5t47 36t63.5 28t83 16.5t104.5 6.5q77 0 144 -22.5t138 -88.5v-149h-45l-30 139q-50 47 -170 47q-51 0 -91.5 -12t-66 -29t-44 -43t-27 -47.5t-13.5 -50.5t-5.5 -42t-0.5 -32v-215h606v-819l158 -33v-45h-449 v45l133 33v729h-448v-729l155 -33v-45h-471v45l158 33v727z" />
<glyph unicode="&#xfb02;" horiz-adv-x="1193" d="M41 838v59h174v182q0 38 1 64.5t5 60t11.5 57t21 50t32.5 44.5t47 36t63.5 28t83 16.5t104.5 6.5q82 0 148.5 -23t88.5 -65l113 98h45v-1374l158 -33v-45h-449v45l133 33v729h-448v-729l155 -33v-45h-471v45l158 33v727zM373 897h448v285q0 186 -200 186q-51 0 -91.5 -12 t-66 -29t-44 -43t-27 -47.5t-13.5 -50.5t-5.5 -42t-0.5 -32v-215z" />
</font>
</defs>
</svg>
